<?xml version="1.0" standalone="no"?>
<!DOCTYPE svg PUBLIC "-//W3C//DTD SVG 1.1//EN" "http://www.w3.org/Graphics/SVG/1.1/DTD/svg11.dtd" >
<svg xmlns="http://www.w3.org/2000/svg" xmlns:xlink="http://www.w3.org/1999/xlink" version="1.1">
<metadata>
Created by FontForge 20170731 at Fri Jul 22 23:41:06 2016
 By Aleksey,,,
(C)1999 House Industries/Brand Design Co., Inc.
</metadata>
<defs>
<font id="SignPainter-HouseScript" horiz-adv-x="404" >
  <font-face 
    font-family="SignPainter-HouseScript"
    font-weight="400"
    font-stretch="normal"
    units-per-em="1000"
    panose-1="2 0 0 6 7 0 0 2 0 4"
    ascent="800"
    descent="-200"
    x-height="390"
    cap-height="616"
    bbox="-307.154 -488.667 1082.83 910.947"
    underline-thickness="20"
    underline-position="-173"
    unicode-range="U+000D-F8FF"
  />
<missing-glyph horiz-adv-x="604" 
d="M49 0v702h501v-702h-501zM99 658v-618h403v618h-403z" />
    <glyph glyph-name="a_r_r" unicode="arr" horiz-adv-x="1051" 
d="M595 108q-14 -41 -7 -67t31 -28q42 -3 99 81.5t99 199.5q-27 10 -29.5 37.5t12 55.5t36 50t36.5 23q12 1 17 -9t4 -28t-5.5 -40t-13.5 -48q49 6 110 48q21 14 30 2q11 -13 18.5 -28.5t7.5 -36.5t-13 -37q-88 -101 -113 -174q-14 -41 -6.5 -67.5t31.5 -28.5q29 -2 63.5 38
t59.5 99q3 7 8 7t7 -6q13 -30 -3 -65q-20 -45 -60 -74t-80 -28q-57 1 -79.5 45.5t-3.5 105.5q22 74 125 191q-60 -38 -120 -38q-118 -301 -244 -305q-55 -1 -77 44t-3 107q21 70 125 191q-58 -39 -120 -39q-115 -289 -245 -301q-41 -4 -63 19.5t-20 63.5q-65 -79 -127 -79
q-45 0 -66.5 36t-12 93.5t49.5 116.5q55 81 111 120.5t98 39.5q29 0 44.5 -18.5t15.5 -45.5q21 35 35 53q13 18 24 6q13 -14 14.5 -42.5t-14.5 -67.5q-9 -18 -45 -81.5t-49 -92.5q-19 -42 -15.5 -67.5t27.5 -22.5q46 5 102 85t98 192q-28 10 -30.5 37.5t12 55t36 50
t37.5 23.5q11 1 16 -9t4 -28t-5.5 -40t-13.5 -48q48 5 110 47q21 14 30 3q11 -14 19 -30t8.5 -37t-13.5 -36q-88 -97 -114 -173zM236 170q30 53 45 93t13.5 60t-15.5 21q-25 2 -72 -41.5t-87 -107.5q-26 -42 -39 -83t-9.5 -66.5t22.5 -25.5q56 0 142 150z" />
    <glyph glyph-name="e_r_r" unicode="err" horiz-adv-x="964" 
d="M505 107q-12 -41 -5 -67.5t30 -27.5q43 -1 100 83t100 199q-28 10 -30 37.5t12.5 55t36 50t36.5 23.5q12 1 17.5 -9t4 -28t-6.5 -40t-14 -48q50 5 112 47q19 13 28 3q12 -14 20 -29.5t8.5 -36.5t-13.5 -37q-95 -107 -115 -173q-12 -41 -5 -68.5t30 -28.5q30 -1 65 39
t59 99q3 7 8.5 7t7.5 -6q11 -26 -5 -65q-19 -45 -59 -74t-81 -28q-56 1 -78 45.5t-3 105.5q21 70 125 191q-59 -39 -120 -39q-123 -300 -246 -305q-55 -2 -77 44.5t-3 109.5q23 75 124 188q-60 -38 -120 -38q-66 -138 -145 -219t-164 -82q-94 -1 -124 76t20 173
q45 88 109.5 131t104.5 20q41 -25 59 -51q13 -16 4.5 -56.5t-37.5 -77.5q-38 -48 -83.5 -58t-100.5 28q-23 -68 -9 -111t53 -45q76 -3 151 82t123 196q-27 11 -28 39t15 56t38 49.5t37 22.5q12 0 16.5 -10t3 -28t-7 -40t-15.5 -47q50 7 108 47q21 14 28 3q12 -14 20 -29.5
t8.5 -36.5t-13.5 -37q-91 -103 -114 -174zM218 241q24 31 36.5 63.5t3.5 40.5q-11 10 -37.5 -5.5t-58.5 -51t-53 -79.5q-2 -2 -4.5 -8t-4.5 -9q14 -9 28.5 -10t25.5 3t23.5 14t21 19.5t19.5 22.5z" />
    <glyph glyph-name="i_r_r" unicode="irr" horiz-adv-x="862" 
d="M231 456q17 -35 -7 -66q-9 -12 -27 -8t-29 23q-11 21 -9 40.5t14 32.5t30 5.5t28 -27.5zM686 333q48 6 107 47q20 14 30 2q11 -12 19 -28t8.5 -37.5t-13.5 -36.5q-89 -98 -114 -174q-13 -41 -6 -67.5t31 -28.5q29 -1 63.5 39t60.5 99q7 16 15 0q12 -27 -4 -65
q-20 -45 -59.5 -73.5t-80.5 -27.5q-56 2 -78.5 45.5t-3.5 105.5q23 77 125 190q-60 -38 -122 -38q-3 -7 -20.5 -42t-23.5 -46.5t-22.5 -43.5t-26 -45.5t-26 -38.5t-29.5 -36.5t-30 -25.5t-33.5 -20t-33.5 -6q-56 -1 -78.5 44t-2.5 107q24 77 127 192q-60 -40 -123 -40
q-52 -120 -124 -206.5t-147 -94.5q-56 -6 -75.5 38.5t3.5 106.5q21 61 63 134.5t67 108.5q13 17 24 6q12 -13 13 -42t-14 -68q-8 -18 -40 -73.5t-46 -91.5q-11 -28 -14 -49t3.5 -31.5t21.5 -9.5q51 5 118 85t108 193q-22 8 -27.5 28t3.5 42.5t24 44.5t33 36.5t30 14.5
t16.5 -10t2 -28.5t-8.5 -40t-15 -46.5q48 5 110 47q21 13 28 3q11 -12 19.5 -28.5t9 -38t-13.5 -36.5q-94 -104 -115 -173q-12 -41 -4 -67t31 -28q44 -3 105 83t97 198q-28 10 -31 37.5t12 55.5t36.5 50.5t36.5 23.5t20 -17.5t0.5 -47.5t-16.5 -60z" />
    <glyph glyph-name="o_r_r" unicode="orr" horiz-adv-x="956" 
d="M496 108q-14 -41 -7 -68.5t33 -27.5q42 0 99.5 83.5t100.5 197.5q-28 10 -30.5 37.5t12.5 55.5t36.5 50t36.5 23q22 -2 21 -37t-20 -88q49 6 110 48q20 14 30 2q11 -13 19 -28.5t8.5 -36.5t-13.5 -37q-88 -99 -114 -174q-14 -41 -6.5 -67.5t31.5 -28.5q29 -2 63.5 38
t60.5 99q8 17 15 1q12 -28 -4 -65q-20 -46 -59.5 -75t-80.5 -27q-56 3 -78.5 46.5t-3.5 104.5q24 78 125 191q-60 -38 -120 -38q-120 -301 -245 -305q-56 -1 -78.5 44.5t-3.5 107.5q24 77 125 190q-57 -37 -122 -37q-47 -79 -123 -83q-17 -69 -61 -131.5t-96 -79.5
q-77 -26 -127 42q-30 47 -24.5 105t41.5 120q32 55 74 91.5t85 38.5q24 2 38.5 -5t29.5 -28q6 -8 17.5 -20t17.5 -20t10.5 -26t2.5 -44q0 -7 -3 -15q49 5 78 61q-26 11 -26.5 39t15.5 55.5t38.5 49t37.5 21.5q12 0 17 -12t2 -31.5t-8.5 -39.5t-13.5 -41q49 7 108 46
q20 13 29 3q11 -13 18.5 -28.5t9.5 -36.5t-13 -36q-92 -103 -115 -174zM257 248q9 44 6 69q-2 15 -8.5 19.5t-13 -2.5t-8.5 -21q-5 -42 24 -65zM249 219q-29 15 -47 42.5t-19 55.5q-43 -38 -76 -95q-32 -56 -41.5 -114t10.5 -75q21 -19 61.5 9t75.5 93q23 43 36 84z" />
    <glyph glyph-name="u_r_r" unicode="urr" horiz-adv-x="1040" 
d="M578 108q-12 -41 -4.5 -68.5t30.5 -27.5q44 0 101.5 83t100.5 198q-28 10 -30 37.5t12.5 55.5t36 50t36.5 23q11 1 16 -9t4 -28t-5.5 -40t-13.5 -48q49 6 110 48q20 14 30 2q11 -13 19 -28.5t8.5 -36.5t-13.5 -37q-90 -102 -114 -174q-13 -41 -6 -67.5t31 -28.5
q29 -2 63.5 37.5t60.5 99.5q8 16 15 1q12 -28 -4 -65q-20 -46 -59.5 -75t-80.5 -27q-56 3 -78.5 46.5t-4.5 104.5q21 72 125 191q-58 -38 -118 -38q-23 -56 -48 -104.5t-57 -96t-69 -75.5t-74 -28q-56 0 -78 44.5t-3 106.5q24 78 125 191q-60 -38 -120 -38
q-119 -291 -245 -302q-44 -4 -66 22.5t-18 70.5q-75 -96 -140 -91q-35 3 -50.5 26t-14.5 52.5t12 66.5q34 107 138 251q13 18 25 1q35 -47 -19 -132q-50 -78 -77 -148q-13 -32 -12.5 -58.5t17.5 -27.5q49 -4 147 154q31 50 69 120t54 91q13 18 25 6q13 -13 14 -42t-15 -68
q-10 -22 -46 -83.5t-48 -87.5q-12 -28 -15.5 -50t3.5 -33.5t22 -9.5q47 6 102.5 86t97.5 192q-28 10 -30 37.5t12.5 55.5t36 50t36.5 23q12 1 17 -9t4 -28t-6 -40t-14 -48q51 6 111 48q19 14 29 2q11 -13 19.5 -29t8.5 -37t-13 -36q-94 -108 -115 -174z" />
    <glyph glyph-name="a_r" unicode="ar" horiz-adv-x="733" 
d="M209 69q-62 -80 -126 -80q-45 0 -66.5 36.5t-12 94.5t49.5 116q56 81 112 121t98 40q28 0 43.5 -19t15.5 -47q21 35 35 55q13 19 24 6q13 -15 14.5 -43t-13.5 -67q-9 -21 -46 -84t-49 -90q-18 -43 -15 -68t26 -23q48 5 107 85.5t94 190.5q-28 10 -31 38t12 56t36.5 50.5
t36.5 23.5q11 1 16 -8.5t3.5 -28t-6.5 -40t-13 -49.5q51 6 111 47q19 14 30 2t19 -28t8 -36.5t-13 -36.5q-92 -106 -114 -174q-13 -41 -5.5 -67.5t30.5 -28.5q30 -2 64 38t60 100q3 6 7.5 6.5t7.5 -6.5q12 -28 -4 -65q-20 -45 -59.5 -74t-80.5 -28q-56 2 -78 46t-4 106
q23 75 124 188q-63 -37 -118 -37q-42 -120 -107 -207t-139 -93q-40 -3 -62.5 20t-21.5 62zM279 346q-24 2 -71.5 -42t-87.5 -108q-26 -42 -39 -82.5t-9.5 -66t22.5 -25.5q29 -1 66 39t77 111q71 126 55 164q-3 9 -13 10z" />
    <glyph glyph-name="c_r" unicode="cr" horiz-adv-x="642" 
d="M664 86q-19 -45 -58.5 -74.5t-79.5 -27.5q-57 3 -79.5 46.5t-3.5 105.5q23 75 125 189q-62 -37 -121 -37q-59 -133 -140.5 -218t-170.5 -85q-94 0 -124 77.5t20 172.5q46 89 111 132t104 19q38 -23 55 -56q5 -15 6 -26t-5 -28.5t-12 -30t-14.5 -31t-13.5 -31.5
q-4 -11 -7 -13t-14 3q-19 10 -26 31.5t2 55.5q3 9 9 22t10.5 22.5t9 20.5t4 16t-4.5 10q-9 7 -33 -9t-53.5 -52t-51.5 -80q-39 -84 -30 -139t55 -57q76 -3 153.5 83.5t122.5 196.5q-27 10 -28.5 38t14.5 56t38 50t38 22q22 -4 19 -38t-23 -87q52 7 109 48q20 15 30 2
q11 -13 18.5 -28.5t8 -36.5t-13.5 -37q-90 -102 -113 -174q-13 -41 -6 -67.5t31 -28.5q29 -2 63.5 38t59.5 99q8 17 15 1q11 -25 -5 -65z" />
    <glyph glyph-name="e_r" unicode="er" horiz-adv-x="645" 
d="M667 88q-19 -45 -59 -75t-81 -28q-56 3 -78 47t-3 106q24 78 124 189q-60 -38 -120 -38q-66 -138 -145.5 -219.5t-164.5 -82.5q-94 -1 -124.5 76.5t19.5 173.5q45 89 110 131.5t105 19.5q39 -23 59 -51q14 -17 5 -57t-38 -77q-38 -49 -83.5 -59t-100.5 29
q-23 -68 -9 -112t53 -46q76 -3 151.5 83t123.5 197q-27 11 -28 39t15 56t38 49.5t38 22.5q22 -4 19 -38t-23 -87q49 7 109 47q21 14 28 3q12 -13 20 -29t8.5 -37.5t-13.5 -36.5q-92 -102 -115 -174q-12 -41 -5 -68t30 -28q30 -1 65 39t60 99q8 16 15 1q12 -26 -5 -65z
M101 195q14 -9 28.5 -10t25.5 3t23.5 14t21 19.5t19.5 22.5q24 31 37 63.5t3 40.5q-11 10 -37.5 -5.5t-58.5 -51t-54 -79.5q-1 -3 -3.5 -8.5t-4.5 -8.5z" />
    <glyph glyph-name="j_r" unicode="jr" horiz-adv-x="512" 
d="M223 459q18 -39 -6 -67q-9 -12 -26.5 -7.5t-29.5 22.5q-12 21 -10 41t15 33q12 12 30 5t27 -27zM8 -6q182 81 268 300q-26 10 -27 38t15.5 55.5t38 49t36.5 22.5q12 1 17 -9t3.5 -28t-7.5 -40t-15 -48q51 7 107 47q20 14 30 3q11 -13 19 -28.5t8.5 -36.5t-13.5 -37
q-89 -101 -114 -175q-13 -40 -5.5 -67.5t30.5 -28.5q29 -1 64 39.5t60 99.5q7 16 15 0q12 -27 -4 -65q-19 -45 -59 -73.5t-81 -27.5q-56 1 -78.5 45t-3.5 106q24 77 124 189q-60 -37 -118 -37q-53 -122 -124.5 -202t-202.5 -133q-35 -83 -62.5 -140.5t-68.5 -114.5t-78 -71
q-36 -14 -58 19q-10 14 -15.5 24.5t-11 26.5t-4.5 34.5t8 39.5q22 64 80 112.5t137 76.5q118 286 203 415q12 19 25 6q12 -13 12.5 -42t-15.5 -68q-8 -18 -59 -119t-76 -157zM-99 -83q-60 -34 -101 -88t-53.5 -95t-2.5 -54q7 -9 32 19.5t60 88.5t65 129z" />
    <glyph glyph-name="k_r" unicode="kr" horiz-adv-x="687" 
d="M714 150q11 -26 -5 -65q-19 -45 -59 -74t-81 -28q-56 2 -78 46.5t-3 105.5q23 73 125 190q-60 -38 -120 -38q-29 -74 -65 -138t-86 -112t-96 -47q-56 2 -92 49.5t-35 142.5q0 14 4 19.5t18 9.5q44 14 81 37t58.5 45t31.5 42t4 30q-6 14 -37.5 4.5t-71.5 -39.5
q-54 -41 -95 -111t-103 -217q-7 -15 -16 -4q-25 31 -1 110q21 73 119 263.5t162 278.5q15 21 26 1q25 -48 -28 -144l-44 -77t-45 -80q45 44 87 56q29 8 48.5 -2.5t34.5 -42.5q31 -66 -21 -116q-59 -56 -139 -82q3 -60 22 -101t43 -42q38 -2 99 82t98 190q-28 10 -30.5 38
t12.5 56t36.5 50.5t36.5 23.5q12 1 17 -9.5t4 -28.5t-5.5 -40.5t-13.5 -48.5q48 7 110 48q19 15 28 2q11 -12 19.5 -28t8.5 -36.5t-13 -36.5q-94 -108 -115 -174q-12 -41 -5 -68t30 -28q30 -1 65 39t60 99q3 6 7.5 6.5t7.5 -6.5z" />
    <glyph glyph-name="o_r" unicode="or" horiz-adv-x="633" 
d="M656 85q-21 -46 -60 -75.5t-80 -27.5q-57 3 -79.5 46.5t-3.5 106.5q20 68 125 190q-61 -39 -121 -39q-49 -78 -124 -81q-16 -69 -59.5 -132t-96.5 -80q-25 -12 -62.5 -2.5t-64.5 45.5q-30 48 -24.5 105t39.5 120q29 53 73 89.5t88 40.5q38 4 67 -34q5 -7 17.5 -19.5
t18 -20t10 -26t2.5 -44.5q0 -2 -1 -7.5t-1 -8.5q49 9 78 62q-26 11 -26.5 39t15.5 55.5t38 49t37 21.5q12 0 17 -11.5t2 -31t-8.5 -40t-13.5 -42.5q48 7 108 48q20 14 30 2q11 -13 18.5 -28.5t8 -36.5t-13.5 -37q-87 -99 -113 -174q-14 -41 -6.5 -67.5t31.5 -28.5
q29 -2 63 38.5t60 98.5q3 7 7.5 8t7.5 -6q13 -31 -3 -65zM257 247q8 41 5 70q-2 16 -8.5 20t-13 -3t-8.5 -21q-5 -41 25 -66zM248 218q-29 16 -46.5 43.5t-18.5 54.5q-45 -38 -77 -94q-32 -57 -41.5 -115t10.5 -75q21 -18 61.5 10.5t76.5 93.5q25 48 35 82z" />
    <glyph glyph-name="t_r" unicode="tr" horiz-adv-x="557" 
d="M579 85q-19 -45 -59 -74t-81 -28q-56 2 -78 46.5t-3 105.5q24 78 125 190q-61 -38 -122 -38q-56 -127 -129 -214.5t-146 -87.5q-55 0 -80 52.5t7 138.5q32 79 106 211q-46 1 -64 28q-7 10 -3.5 15.5t14.5 4.5q26 -2 82 3q56 100 76 124q15 23 24 0q18 -44 -14 -115
q42 -3 60 -35q4 -8 0.5 -12t-14.5 -3q-35 2 -72 -1q-108 -188 -135 -248q-25 -56 -18 -96t39 -39q46 2 113.5 84t113.5 196q-26 10 -27 38t15 56t38.5 50t37.5 23q23 -2 20.5 -37t-24.5 -88q50 4 109 46q19 13 29 2q12 -13 19 -28t9.5 -36.5t-13.5 -36.5q-93 -104 -115 -174
q-13 -41 -5.5 -68t30.5 -28q29 -1 64 39t61 99q3 6 7.5 6.5t7.5 -6.5q11 -27 -5 -65z" />
    <glyph glyph-name="u_r" unicode="ur" horiz-adv-x="716" 
d="M738 86q-19 -45 -58.5 -73.5t-79.5 -27.5q-57 1 -79.5 45t-3.5 106q23 73 125 190q-60 -38 -120 -38q-114 -290 -245 -301q-44 -4 -66 22.5t-18 70.5q-72 -97 -140 -92q-34 2 -49.5 25t-14.5 53.5t13 65.5q41 122 138 253q13 16 23 1q35 -48 -17 -134q-63 -106 -79 -146
q-15 -37 -13.5 -60.5t18.5 -25.5q52 -4 148 152q30 49 68 120t55 93q13 17 24 6q13 -14 14 -42.5t-15 -67.5q-9 -20 -45.5 -81.5t-48.5 -89.5q-19 -43 -15.5 -69t26.5 -24q46 4 102 84t98 192q-28 10 -30.5 38t12.5 56t36.5 50.5t36.5 23.5q12 1 17 -9.5t4 -28.5t-5.5 -40
t-13.5 -48q50 7 110 47q19 16 30 3t18.5 -28.5t8 -36.5t-13.5 -37q-86 -97 -113 -173q-14 -41 -6.5 -68t31.5 -29q29 -1 63.5 39t59.5 99q3 7 7.5 7t7.5 -7q11 -25 -5 -65z" />
    <glyph glyph-name="y_r" unicode="yr" horiz-adv-x="692" 
d="M214 7q163 86 241 287q-26 11 -26.5 39t15.5 55.5t38 49.5t37 22q12 0 17 -10t3 -28t-7.5 -40t-14.5 -48q51 9 107 47q12 8 17 9t13 -6q11 -13 19.5 -29t8.5 -37t-13 -36q-91 -101 -115 -173q-13 -41 -5.5 -68.5t30.5 -28.5q29 -1 63.5 38.5t60.5 99.5q3 6 8 6.5t8 -6.5
q10 -28 -5 -65q-19 -45 -58.5 -73.5t-81.5 -27.5q-56 1 -78.5 45t-4.5 106q20 70 122 187q-53 -33 -115 -35q-53 -119 -120 -196.5t-183 -126.5q-55 -133 -105 -219t-105 -109q-36 -15 -58 20q-10 15 -15 25t-10 26t-3.5 34t8.5 39q40 120 215 189q25 59 31 73
q-57 -59 -109 -55q-51 3 -61.5 49.5t10.5 94.5q45 127 136 253q12 17 25 1q34 -46 -19 -134q-56 -95 -77 -146q-15 -37 -13.5 -61t18.5 -25q49 -4 140 148q18 30 60 108.5t61 106.5q14 19 25 7q12 -15 12.5 -43t-16.5 -67q-99 -199 -131 -272zM105 -72q-60 -34 -101 -88
t-54 -95t-3 -54q7 -9 32 19t60.5 88t65.5 130z" />
    <glyph glyph-name="f_r" unicode="fr" horiz-adv-x="566" 
d="M105 184q71 -19 65 -124q-1 -5 -1.5 -14t-0.5 -14q45 28 89 99t76 162q-28 10 -30.5 37.5t12.5 55.5t36 50.5t37 23.5q11 1 16 -9.5t4 -28.5t-5.5 -40t-13.5 -48q50 6 110 47q20 14 30 3q11 -13 19 -29t8.5 -37t-13.5 -36q-87 -96 -114 -173q-14 -41 -6.5 -68t31.5 -29
q29 -1 63.5 39t60.5 99q7 16 15 0q11 -25 -5 -65q-19 -45 -58.5 -73.5t-81.5 -27.5q-56 1 -78 45.5t-3 105.5q24 78 124 189q-60 -37 -119 -37q-35 -100 -90 -180t-119 -106q-13 -78 -45.5 -156.5t-69.5 -124.5q-47 -58 -97 -13q-53 47 -41 143q19 147 135.5 372.5
t233.5 398.5q15 21 24 -1q22 -54 -34 -150q-3 -6 -43.5 -72.5t-68.5 -116.5t-52 -97zM101 17q7 37 9 73q1 18 -1.5 34t-6.5 24.5t-8 6.5q-8 -3 -14.5 -31.5t-6.5 -48.5q0 -55 28 -58zM95 -10q-45 5 -61 39q-45 -106 -65 -185.5t-4 -100.5q15 -19 55 51q48 85 75 196z" />
    <glyph glyph-name="f_j" unicode="fj" horiz-adv-x="428" 
d="M475 395q-10 -12 -27 -7.5t-29 22.5q-12 21 -10.5 41t15.5 33q12 12 30 5t26 -27q17 -43 -5 -67zM465 152q7 -21 -15 -59q-50 -87 -209 -154q-25 -60 -46 -105t-49 -95t-57 -82t-57 -43q-35 -13 -57 19q-13 18 -19.5 32t-10.5 40t7 51q21 66 79.5 115t138.5 76
q33 81 67 157q-36 -23 -81 -21q-50 2 -77 47q-77 -158 -135 -311q-7 -17 -17 -4q-29 39 -6 110q50 155 160.5 373.5t203.5 300.5q24 21 42 5q41 -40 22 -109q-24 -89 -100 -189t-153 -151q18 -41 61 -41q39 -1 78 32.5t64 85.5q41 88 81 145q13 19 24 6q12 -15 12.5 -43
t-15.5 -67q-6 -12 -61.5 -123.5t-80.5 -169.5q112 60 190 173q11 15 16 -1zM160 287q-6 -11 -21.5 -39t-23.5 -45q65 53 117 129t71.5 128t11.5 57q-5 3 -29 -27.5t-59 -86t-67 -116.5zM152 -95q-60 -34 -101 -88t-53.5 -95t-2.5 -54q7 -9 32.5 19.5t60.5 88t64 129.5z" />
    <glyph glyph-name="f_p" unicode="fp" horiz-adv-x="652" 
d="M210 21q-31 -19 -60 -26q-12 -76 -42 -150.5t-66 -119.5q-26 -32 -46 -36t-43 16q-56 45 -43 145q19 148 135 371.5t234 398.5q14 20 24 -1q22 -51 -32 -150q-14 -25 -74.5 -125t-91.5 -159q53 -17 52 -116q0 -21 -3 -42q35 17 70.5 54.5t57.5 80.5q81 153 131 225
q7 10 14 9t11 -11q8 -20 7 -43q90 77 144 20q62 -65 -11 -220q-47 -100 -105 -137q66 3 113 44t76 101q5 9 11.5 8.5t8.5 -8.5q6 -25 -15 -65q-54 -99 -176 -106q-94 -6 -139 36q-27 25 -34 66q-82 -151 -155 -318q-7 -17 -17 -4q-25 35 -2 110q12 39 66 152zM373 178
q-41 -110 -1 -141q24 -19 65 23.5t77 117.5q29 60 36.5 112.5t-12.5 61.5q-18 9 -56.5 -24.5t-73.5 -90.5q-1 -2 -14.5 -24t-20.5 -35zM102 17q8 50 9 72q1 18 -1.5 34.5t-7 25t-8.5 6.5q-7 -4 -14 -32.5t-7 -47.5q0 -51 29 -58zM96 -10q-44 5 -62 40q-45 -107 -65 -186
t-3 -100q16 -19 56 53q48 84 74 193z" />
    <glyph glyph-name="o_j" unicode="oj" horiz-adv-x="541" 
d="M594 460q16 -37 -6 -66q-10 -12 -27 -7.5t-29 22.5q-12 20 -10 40.5t15 33.5q12 12 30 5t27 -28zM578 150q6 -22 -15 -58q-52 -90 -209 -153q-35 -83 -62.5 -140.5t-68.5 -114.5t-78 -71q-36 -13 -57 18q-13 20 -19 33.5t-10.5 40t6.5 51.5q21 66 79 114.5t139 76.5
q68 165 131 288q-45 -33 -100 -30q-16 -69 -60 -132t-97 -80q-78 -25 -127 42q-30 47 -24.5 105t41.5 120q32 55 73.5 91.5t84.5 38.5q24 2 39 -5t30 -28q6 -8 17.5 -20t17.5 -20t10.5 -26t2.5 -44q0 -2 -3 -17q76 0 173 144q15 21 25 8q12 -14 12.5 -42.5t-15.5 -67.5
q-1 -1 -58.5 -117t-83.5 -176q114 61 190 173q4 6 9 5.5t7 -7.5zM257 247q10 38 6 70q-2 15 -8.5 20t-13 -1.5t-8.5 -21.5q-7 -39 24 -67zM250 222q-28 14 -46.5 40t-19.5 55q-43 -37 -77 -95q-32 -56 -41.5 -115t9.5 -74q22 -19 62.5 9t75.5 93q25 48 37 87zM265 -96
q-60 -34 -101 -87.5t-53.5 -94.5t-2.5 -54q8 -10 33 18.5t60 88t64 129.5z" />
    <glyph glyph-name="o_m" unicode="om" horiz-adv-x="923" 
d="M954 151q4 -4 2.5 -25t-9.5 -38q-22 -43 -65 -75t-84 -31q-63 1 -85.5 45t4.5 105q15 35 46.5 85.5t50.5 81t13 33.5q-5 2 -17 -3t-36.5 -23.5t-53.5 -47.5q-93 -93 -173 -270q-9 -20 -23 -6q-35 35 -1 125q13 34 48 91.5t57.5 95.5t14.5 41q-6 2 -22 -6.5t-44 -31.5
t-58 -55q-74 -81 -146 -249q-6 -13 -19 -3q-34 27 -10 101q12 40 64 140q-43 -29 -93 -25q-16 -69 -60 -133t-97 -81q-76 -25 -127 43q-30 47 -24.5 105t41.5 120q30 53 73 90t86 40q23 1 37 -6t30 -28q6 -7 18 -19.5t18 -20t10 -26t2 -44.5q0 -11 -2 -16q83 1 180 156
q4 8 11 8t11 -8q23 -38 -2 -104q37 41 83 75t71 33t36.5 -32.5t2.5 -65.5q38 37 80.5 64.5t65.5 26.5q26 -1 33 -36.5t-9 -71.5q-10 -24 -45 -81t-46 -79q-21 -43 -13.5 -73.5t35.5 -28.5q50 3 123 138q7 13 17 0zM258 246q10 47 6 70q-2 15 -8.5 20t-13 -1.5t-8.5 -21.5
q-6 -42 24 -67zM250 221q-27 15 -45.5 40.5t-19.5 54.5q-43 -37 -77 -95q-33 -55 -42 -114t11 -75q21 -19 61.5 9.5t75.5 93.5q25 46 36 86z" />
    <glyph glyph-name="o_n" unicode="on" horiz-adv-x="749" 
d="M769 89q-21 -44 -62.5 -75t-84.5 -31q-60 0 -79.5 41.5t4.5 105.5q14 41 44.5 94t48.5 83.5t11 32.5t-25 -6t-47.5 -31t-59.5 -55q-68 -74 -146 -253q-7 -16 -19 -3q-31 34 -8 102q23 66 63 136q-42 -28 -93 -25q-16 -68 -60.5 -131.5t-97.5 -80.5q-76 -25 -126 42
q-31 48 -25.5 105.5t41.5 119.5q31 54 73.5 90t85.5 40q40 4 67 -33q6 -8 18 -20.5t18 -20t10 -26t2 -43.5q0 -12 -1 -18q80 1 182 156q11 17 21 2q22 -37 4 -94q39 41 80.5 70.5t64.5 26.5q27 -3 41.5 -35t-2.5 -71q-10 -20 -45 -80.5t-48 -88.5q-20 -43 -15.5 -72.5
t32.5 -28.5q52 1 126 138q3 6 9 6t8 -6q9 -23 -10 -63zM258 247q10 46 6 70q-2 15 -8.5 20t-13 -2t-8.5 -21q-6 -43 24 -67zM251 220q-27 15 -45.5 42t-19.5 55q-42 -35 -78 -95q-33 -56 -42.5 -115t11.5 -75q22 -18 62.5 10.5t74.5 92.5q25 46 37 85z" />
    <glyph glyph-name="o_l" unicode="ol" horiz-adv-x="574" 
d="M445 205q-21 -52 -30 -93.5t-4 -68.5t27 -28q34 -2 80 41.5t75 102.5q3 6 7 8.5t8 0.5t6 -9q7 -21 -10 -61q-13 -31 -63 -71.5t-102 -38.5q-53 2 -76 40.5t-6 115.5q5 21 10 39q-8 -1 -23 -1q-18 0 -35 3q-20 -65 -62 -121t-90 -71q-79 -25 -127 42q-30 47 -24.5 105
t41.5 120q31 54 73 90t85 40q41 4 68 -33q5 -7 17.5 -20t17.5 -20.5t9.5 -26t2.5 -43.5q-2 -24 -5 -38q18 -2 28 -2q21 0 31 1q34 108 99 214t136 180q23 25 43 5q40 -40 22 -109q-24 -88 -94 -175q-71 -89 -135 -118zM463 247q52 36 105 111q34 49 57.5 101.5t13.5 59.5
q-5 3 -29 -27t-58.5 -85.5t-67.5 -116.5q-9 -16 -21 -43zM255 242q12 48 8 75q-2 15 -8.5 19.5t-13 -2t-8.5 -20.5q-6 -41 22 -72zM247 212q-64 43 -64 103q-48 -39 -78 -93q-31 -56 -40.5 -115t10.5 -75q21 -18 62 10t76 93q17 32 34 77z" />
    <glyph glyph-name="o_i" unicode="oi" horiz-adv-x="563" 
d="M533 407q-24 43 4 73q12 13 30.5 5.5t27.5 -28.5q16 -36 -7 -65q-9 -12 -26.5 -8t-28.5 23zM590 150q10 -27 -8 -63q-23 -45 -65.5 -75t-84.5 -29q-55 1 -72 43.5t6 103.5q16 45 42 100q-38 -28 -93 -25q-16 -69 -60.5 -132t-97.5 -80q-76 -25 -126 42
q-31 48 -25.5 105.5t41.5 119.5q32 54 74 90t85 40q24 2 39 -5t30 -28q4 -5 21.5 -23.5t22.5 -36t3 -50.5q0 -7 -2 -17q78 0 173 143q13 20 25 6q13 -13 14 -41.5t-15 -67.5q-9 -20 -41 -78t-43 -84q-13 -29 -16 -51t3.5 -34t22.5 -11q32 1 69.5 42t60.5 96q3 7 8 7t9 -7z
M257 247q10 35 6 70q-1 15 -7.5 20t-13.5 -2t-9 -21q-7 -39 24 -67zM251 220q-28 15 -46.5 41.5t-19.5 55.5q-48 -41 -78 -95q-31 -56 -41 -115t10 -75q21 -18 62 10t75 93q23 43 38 85z" />
    <glyph glyph-name="o_o" unicode="oo" horiz-adv-x="691" 
d="M692 215q-9 -10 -28 -12q-17 -69 -60.5 -131t-95.5 -79q-76 -25 -126 42q-52 69 -6 182q-27 -13 -62 -13q-17 -69 -60.5 -131.5t-96.5 -79.5q-74 -25 -125 42q-32 48 -26 105.5t41 119.5q31 54 74 90t86 40q41 4 67 -33q3 -5 21.5 -23.5t23.5 -36t3 -50.5q0 -2 -0.5 -7
t-0.5 -8q53 8 108 76q63 78 128 82q41 3 67 -33q6 -7 18 -20t17.5 -20.5t10 -26t2.5 -43.5q-3 -22 -3 -23q13 0 19 1q4 1 6 -0.5t1.5 -4t-3.5 -5.5zM263 317q-2 15 -8.5 19.5t-13 -2.5t-8.5 -21q-7 -46 24 -69q10 41 6 73zM607 243q10 42 6 74q-2 15 -8 19.5t-12.5 -2
t-8.5 -20.5q-8 -42 23 -71zM599 217q-10 3 -18 11q-19 13 -33 37.5t-14 49.5q-42 -33 -77 -93q-32 -55 -40.5 -115t10.5 -75q21 -18 61 10t75 93q23 42 36 82zM184 315q-42 -33 -77 -93q-32 -56 -41.5 -114.5t11.5 -75.5q22 -17 61.5 11t74.5 92q27 50 36 83
q-26 14 -45.5 40.5t-19.5 56.5z" />
    <glyph glyph-name="g_r" unicode="gr" horiz-adv-x="718" 
d="M178 40q-52 -52 -102 -52q-45 0 -66 36.5t-11 94.5t50 116q56 81 111.5 121t96.5 40q29 0 45 -19t15 -47q26 44 34 55q13 20 25 5t12.5 -42.5t-16.5 -67.5q-92 -185 -131 -271q165 85 240 284q-26 11 -26.5 39t15.5 56t38 49.5t37 22.5q12 1 17.5 -9t3.5 -28t-7.5 -40.5
t-15.5 -48.5q53 9 108 47q20 13 29 2q12 -13 19 -28t9.5 -36.5t-13.5 -36.5q-93 -104 -115 -174q-13 -41 -5.5 -68t30.5 -28q29 -1 64 39t61 99q3 6 7.5 6.5t7.5 -6.5q11 -27 -5 -65q-19 -45 -59 -74t-81 -28q-56 2 -78 46.5t-3 105.5q23 74 125 190q-61 -39 -121 -39
q-52 -118 -118.5 -195.5t-181.5 -124.5q-28 -65 -47 -106t-47.5 -94t-58 -85t-58.5 -44q-35 -14 -57 21q-12 19 -18 32.5t-9.5 39.5t7.5 52q39 119 215 190q14 36 28 68zM230 171q31 52 46 92.5t13.5 60.5t-15.5 21q-25 2 -72 -42t-87 -108q-26 -42 -39 -82.5t-9.5 -66
t22.5 -25.5q52 0 141 150zM133 -70q-61 -36 -102.5 -89.5t-53.5 -94t-2 -54.5q7 -10 31.5 18t60 88.5t66.5 131.5z" />
    <glyph glyph-name="o_u" unicode="ou" horiz-adv-x="765" 
d="M790 90q-23 -45 -64.5 -76t-84.5 -31q-47 0 -67.5 26.5t-14.5 71.5q-76 -100 -143 -94q-34 3 -49.5 26t-14.5 53t13 66q13 40 38 86q-48 -22 -90 -18q-19 -68 -62 -129t-93 -78q-25 -12 -62.5 -2t-64.5 46q-31 48 -25.5 104.5t40.5 120.5q30 54 73 90t87 39q40 3 68 -34
q5 -6 17.5 -19t17.5 -20.5t9.5 -26t2.5 -44.5q0 -4 -2 -20q41 1 80 30t66 73q6 10 38 55q12 16 25 1q33 -49 -19 -134q-56 -92 -78 -146q-15 -37 -13.5 -60.5t18.5 -25.5q53 -4 148 152q31 50 68.5 120.5t53.5 92.5q13 19 25 6q13 -15 14 -43.5t-15 -67.5q-9 -19 -45 -80
t-49 -90t-16 -51.5t4.5 -34.5t25.5 -11q29 1 64.5 40.5t66.5 97.5q4 7 9 7.5t9 -6.5q12 -22 -9 -62zM263 318q-3 23 -15.5 21t-14.5 -24q-5 -43 23 -68q11 39 7 71zM249 218q-27 15 -46 42.5t-19 56.5q-47 -40 -78 -95q-31 -56 -40.5 -114t10.5 -75q21 -18 61.5 10.5
t76.5 93.5q17 30 35 81z" />
    <glyph glyph-name="i_r" unicode="ir" horiz-adv-x="539" 
d="M232 459q17 -35 -7 -66q-9 -12 -27 -8t-29 23q-11 21 -9 40.5t14 32.5t30 5.5t28 -27.5zM362 334q49 5 110 47q20 15 30 3q11 -12 18.5 -28t7.5 -37t-13 -36q-90 -103 -113 -175q-13 -41 -6 -68.5t31 -28.5q29 -1 63.5 39.5t59.5 99.5q3 7 7.5 7t7.5 -7q11 -25 -5 -65
q-19 -45 -58.5 -73.5t-81.5 -27.5q-56 1 -78.5 45t-2.5 106q24 77 127 192q-60 -40 -123 -40q-53 -120 -124 -206.5t-147 -94.5q-55 -6 -74 38.5t3 106.5q19 60 61 133t68 110q13 18 24 6q12 -13 13 -42t-14 -68q-8 -19 -40 -74t-46 -90q-18 -43 -15.5 -68.5t26.5 -22.5
q51 6 118.5 86t107.5 192q-22 8 -27 28t4 43t23.5 44.5t32.5 36t30 14.5t16.5 -10t2 -28.5t-8.5 -40t-15 -46.5z" />
    <glyph glyph-name="o_v" unicode="ov" horiz-adv-x="649" 
d="M667 300q-10 -13 -56.5 -68t-91.5 -114.5t-87 -126.5q-10 -15 -21 -10q-29 15 -39.5 34t-9.5 57q3 51 26 168q-26 -29 -75 -34q-16 -69 -60 -132.5t-97 -79.5q-75 -24 -125 43q-63 83 15 225q30 54 73 90t87 39q40 3 67 -34q5 -7 17 -19t18 -20t10.5 -26.5t2.5 -44.5
q0 -1 -0.5 -5t-0.5 -7q71 18 106 151q6 21 21 8q25 -21 30 -50t-6 -74q-4 -16 -13.5 -52.5t-14.5 -56.5t-11.5 -55.5t-11.5 -73.5q52 85 134.5 194.5t135.5 163.5q15 15 18 -4q4 -29 -41 -86zM256 247q10 40 6 72q-2 15 -8.5 19.5t-13 -2.5t-8.5 -21q-6 -41 24 -68zM248 219
q-27 14 -46 41.5t-19 56.5q-42 -34 -77 -95q-32 -56 -41.5 -114t10.5 -74q22 -18 62 10t75 93q23 42 36 82z" />
    <glyph glyph-name="o_w" unicode="ow" horiz-adv-x="863" 
d="M887 360q-12 -67 -86 -188q-116 -188 -204 -187q-31 1 -48.5 25t-14.5 56q-67 -81 -122 -76q-44 4 -56 45.5t9 96.5q11 34 37 87q-41 -21 -90 -19q-18 -68 -61 -129t-95 -77q-75 -23 -125 43q-63 83 15 225q30 54 73 90t87 39q23 2 38 -5.5t30 -28.5q2 -3 20.5 -22
t23.5 -36.5t3 -51.5q0 -6 -2 -20q42 1 80.5 30t66.5 74q11 18 36 54q12 18 25 1q34 -48 -18 -134q-54 -88 -80 -151q-10 -24 -13 -43t1 -29t15 -10q36 1 118 134l3 4.5l3 4.5t3.5 5.5t2.5 4.5q33 52 71 122t53 91q14 20 25 6q13 -15 14 -43.5t-16 -67.5q-10 -19 -45.5 -82
t-49.5 -91q-20 -42 -19 -67t22 -25q27 0 68 45t81 116q6 52 21 96t31.5 69t30 38.5t22.5 15.5q11 2 15.5 -7.5t0.5 -27.5zM256 247q10 36 6 72q-1 15 -8 19.5t-13.5 -2.5t-8.5 -21q-6 -41 24 -68zM249 219q-27 14 -46 41.5t-19 56.5q-45 -35 -78 -95q-31 -56 -41 -114
t10 -74q22 -18 62.5 10t74.5 93q23 43 37 82z" />
    <glyph glyph-name="t_t" unicode="tt" horiz-adv-x="444" 
d="M131 386q-44 4 -65 31q-15 19 13 19q51 0 80 1q41 71 75 120q16 21 24 0q18 -47 -15 -116q30 1 81.5 4t64.5 4q53 93 72 117q15 20 24 -1q19 -43 -13 -114q44 -3 62 -32q5 -9 1.5 -14t-14.5 -4q-26 2 -75 0q-12 -22 -41.5 -73t-54 -96.5t-41.5 -82.5q-24 -56 -17.5 -95.5
t37.5 -41.5q32 -1 70 41t69 103q3 6 7 8.5t8 0.5t6 -9q6 -20 -10 -57q-15 -34 -61 -75t-99 -39q-32 2 -56 23.5t-31 58.5q-24 -34 -59.5 -58.5t-76.5 -23.5q-55 2 -78.5 53.5t7.5 137.5q31 75 106 210zM360 397q-14 -1 -67 -4.5t-78 -4.5q-99 -169 -130 -239
q-24 -55 -17.5 -95t38.5 -42q31 -1 70 44t65 105q35 83 119 236z" />
    <glyph glyph-name="o_p" unicode="op" horiz-adv-x="741" 
d="M755 83q-53 -97 -176 -106q-92 -6 -140 38q-29 27 -32 65q-87 -159 -157 -319q-8 -18 -16 -3q-26 34 -2 110q30 97 177 364q-41 -31 -94 -26q-17 -70 -61 -133.5t-97 -80.5q-73 -24 -126 43q-22 28 -25.5 66.5t7.5 78t34 80.5q30 54 73.5 90.5t86.5 39.5q40 3 67 -34
q3 -4 21.5 -22.5t23.5 -36t3 -51.5q0 -1 -3 -16q82 1 181 155q7 10 13.5 9t10.5 -11q9 -22 8 -45q24 22 48 34.5t51 11.5t47 -23q59 -66 -13 -220q-48 -102 -103 -136q66 3 113 44t75 99q5 10 11.5 9t8.5 -9q8 -23 -15 -65zM257 246q9 39 6 70q-2 15 -8.5 20t-13 -1.5
t-8.5 -21.5q-7 -39 24 -67zM603 176q29 60 36 113.5t-12 60.5q-19 8 -57.5 -25t-72.5 -89q-2 -4 -37 -60q-41 -108 -1 -141q24 -20 66 23.5t78 117.5zM250 221q-28 15 -46.5 41t-19.5 54q-44 -39 -77 -95q-32 -56 -41.5 -115t9.5 -74q22 -19 62.5 9.5t75.5 93.5q24 44 37 86
z" />
    <glyph glyph-name="o_y" unicode="oy" horiz-adv-x="748" 
d="M777 154q5 -21 -19 -58q-46 -75 -191 -133q-120 -293 -210 -328q-33 -13 -57 20q-41 57 -20 124q37 120 213 190q3 8 9.5 22.5t11.5 26.5t9 23q-56 -60 -108 -55q-34 3 -50 26t-15 53t13 66q13 38 44 99q-43 -28 -92 -25q-18 -70 -62 -133t-96 -79q-76 -25 -126 42
q-31 48 -25.5 105t41.5 120q31 55 73.5 91t85.5 39q39 3 67 -34q5 -7 17.5 -19.5t18 -20t10 -26t2.5 -44.5q0 -2 -0.5 -7.5t-0.5 -8.5q45 2 89 42.5t91 110.5q13 19 26 1q33 -47 -19 -133q-59 -97 -77 -147q-30 -83 3 -86q51 -4 142 148q19 33 60.5 110.5t60.5 106.5
q13 19 24 5q13 -14 13.5 -42.5t-16.5 -67.5q-91 -179 -134 -275q106 55 177 153q3 4 6.5 5.5t6.5 -0.5t4 -7zM257 246q9 44 6 70q-2 16 -8.5 21t-13 -1.5t-8.5 -21.5q-6 -41 24 -68zM250 221q-27 15 -45.5 41t-19.5 54q-43 -34 -79 -95q-32 -56 -41 -114t11 -74
q21 -18 61 9.5t76 92.5q24 44 37 86zM477 -72q-60 -35 -101.5 -89t-53.5 -95t-2 -54q7 -9 32 19.5t60.5 88.5t64.5 130z" />
    <glyph glyph-name="a_x" unicode="ax" horiz-adv-x="695" 
d="M484 149q-19 207 -24 231q-4 20 20 15q56 -12 65 -98q3 -26 7 -82q95 97 150 173q6 9 14 8t7 -13q-1 -25 -41 -83q-40 -57 -126 -138q5 -62 9 -89q8 -54 30 -54q25 -1 58 41t55 93q3 7 9.5 6.5t7.5 -7.5q7 -35 -12 -68q-55 -97 -138 -99q-39 -1 -60 26t-27 87q0 2 -1 3
q-138 -116 -211 -116q-35 0 -54.5 21.5t-18.5 57.5q-59 -74 -122 -74q-45 0 -66.5 36t-11.5 94t49 117q54 82 110.5 121.5t99.5 39.5q30 0 45.5 -21.5t13.5 -51.5q22 43 36 60q15 19 25 7q13 -15 14 -43t-15 -67q-10 -20 -50 -87t-53 -95q-17 -35 -17 -60.5t21 -24.5
q58 3 202 134zM235 172q76 134 54 166q-4 6 -12 7q-24 2 -71.5 -41t-87.5 -107q-26 -42 -39 -83t-9.5 -66.5t22.5 -25.5q29 0 66.5 40.5t76.5 109.5z" />
    <glyph glyph-name="e_x" unicode="ex" horiz-adv-x="599" 
d="M389 146q-11 163 -25 233q-3 9 3 12.5t16 1.5q55 -13 65 -99q2 -15 4.5 -44.5t3.5 -40.5q77 78 153 179q6 9 13.5 8t6.5 -13q-4 -30 -43 -84q-47 -65 -126 -140q7 -82 8 -86q7 -54 31 -54q25 -1 57.5 41t54.5 93q4 7 10 6t8 -7q8 -29 -13 -68q-26 -47 -62.5 -72.5
t-74.5 -26.5q-40 -1 -61 26t-25 87v2q-135 -108 -243 -113q-65 -3 -104.5 33.5t-40.5 93.5t29 123q45 89 110.5 131.5t105.5 19.5q40 -24 58 -50q14 -17 5 -57.5t-38 -77.5q-25 -32 -53 -48t-62.5 -12.5t-68.5 30.5q-24 -70 -6.5 -115t69.5 -41q98 8 235 129zM100 196
q21 -9 35.5 -11t31.5 9.5t27.5 22.5t23.5 28q24 32 37 64t3 40q-11 9 -38 -6t-59 -50.5t-53 -79.5q-6 -12 -8 -17z" />
    <glyph glyph-name="i_x" unicode="ix" horiz-adv-x="484" 
d="M232 459q8 -20 5.5 -38t-11.5 -28q-10 -12 -27.5 -8t-28.5 23q-25 45 5 73q13 12 31 5t26 -27zM339 209q85 86 148 174q7 9 14 8.5t6 -12.5q-1 -31 -37 -80q-42 -56 -127 -140q4 -63 7 -88q6 -51 30 -53q24 -1 57.5 40.5t57.5 92.5q3 7 8.5 6.5t7.5 -7.5q9 -31 -12 -67
q-27 -47 -64 -73t-76 -26q-40 0 -60 26.5t-24 86.5q-131 -113 -205 -113q-55 0 -72.5 42t3.5 104q16 52 60.5 132t68.5 112q14 19 24 6q13 -13 14.5 -42t-13.5 -68q-9 -21 -43.5 -80t-45.5 -85q-18 -42 -15 -67t28 -24q56 3 193 129q-12 174 -23 231q-2 10 3.5 13.5
t16.5 1.5q54 -10 63 -99q3 -28 7 -81z" />
    <glyph glyph-name="o_x" unicode="ox" horiz-adv-x="624" 
d="M653 151q9 -24 -11 -63q-23 -46 -58.5 -74t-72.5 -29q-40 -2 -62 24.5t-31 87.5q0 12 -3 30q-89 -76 -138 -136q-4 -5 -9 -7.5t-8.5 -0.5t-3.5 10q2 40 61 103q25 27 90 81q-24 163 -39 201q-4 9 1 12.5t17 2.5q56 -3 71 -75q5 -24 15 -88q101 84 151 151q5 7 10 9
t8.5 -1t3.5 -12q0 -35 -55 -100q-8 -9 -21.5 -21.5t-24 -21t-33 -26.5t-33.5 -27q7 -43 18 -109q10 -55 32 -55q25 -1 54 38.5t55 95.5q4 7 9 6.5t7 -6.5zM342 218q-10 -11 -27 -13q-17 -68 -61 -130.5t-97 -80.5q-73 -24 -126 44q-31 47 -25.5 104.5t41.5 120.5
q30 54 73 90.5t86 39.5q41 3 68 -34q5 -7 17 -19.5t18 -20.5t10 -26.5t2 -43.5q-1 -4 -1 -11.5t-1 -11.5q3 0 9.5 1t10.5 1q11 0 3 -10zM256 245q12 48 8 74q-2 15 -8.5 19.5t-13 -2t-8.5 -20.5q-8 -43 22 -71zM249 218q-9 4 -19 12q-18 13 -31.5 37.5t-14.5 50.5
q-47 -40 -77 -94q-31 -57 -41 -115.5t10 -74.5q22 -18 62.5 10t75.5 94q22 41 35 80z" />
    <glyph glyph-name="u_x" unicode="ux" horiz-adv-x="672" 
d="M483 148q-19 208 -24 232q-2 9 3 12.5t15 2.5q58 -14 67 -99q3 -26 7 -82q95 97 150 173q6 9 13.5 8.5t6.5 -13.5q-1 -24 -41 -82q-34 -50 -125 -138q4 -67 7 -90q7 -54 32 -54q25 -1 57.5 41t54.5 93q4 7 10.5 6.5t7.5 -7.5q7 -33 -13 -68q-26 -46 -62 -71t-75 -27
q-40 -2 -60.5 24.5t-26.5 87.5v4q-142 -116 -213 -116q-39 0 -59.5 23.5t-16.5 64.5q-70 -91 -136 -86q-49 4 -60.5 50t9.5 95q43 121 138 253q12 16 25 1q33 -49 -19 -134q-56 -92 -78 -146q-15 -37 -13.5 -60.5t18.5 -25.5q53 -4 148 152q31 50 68.5 120.5t53.5 92.5
q13 19 25 6q13 -15 14 -43.5t-15 -67.5q-8 -17 -47.5 -87t-53.5 -101q-7 -16 -11 -29.5t-4.5 -24.5t5 -17t15.5 -6q57 1 203 133z" />
    <glyph glyph-name="g_j" unicode="gj" horiz-adv-x="604" 
d="M650 393q-9 -11 -27.5 -6.5t-28.5 21.5q-11 20 -9.5 40t14.5 33q12 12 30 5.5t27 -27.5q16 -40 -6 -66zM639 149q3 -6 -1.5 -23.5t-14.5 -35.5q-27 -47 -74.5 -77.5t-125.5 -61.5q-76 -180 -114 -241q-43 -70 -85 -93q-35 -19 -60 19q-39 56 -18 120q41 128 204 200
q3 8 38 89q-54 -43 -158 -81q-29 -63 -50 -105t-51 -92.5t-60 -81t-60 -41.5q-35 -12 -56 22q-9 14 -14.5 25t-9.5 26.5t-2.5 33.5t9.5 39q45 122 220 181q5 11 15 33.5t15 33.5q-49 -51 -101 -51q-45 0 -66 36t-11.5 94t48.5 116q55 82 111.5 121.5t98.5 39.5
q29 0 44.5 -19.5t15.5 -48.5q15 28 34 57q12 19 24 6q13 -15 13.5 -43t-16.5 -67q-51 -103 -132 -275q123 61 187 149q79 162 119 221q7 10 12 11.5t12 -5.5q12 -13 12.5 -42.5t-15.5 -67.5q-10 -22 -61 -123t-75 -155q118 62 181 158q12 14 18 -1zM239 169q31 53 45.5 93
t13.5 60t-15 21q-25 2 -72.5 -41.5t-87.5 -108.5q-26 -41 -39 -82t-9.5 -66.5t23.5 -25.5q27 -1 63.5 39.5t77.5 110.5zM139 -69q-38 -20 -70 -48.5t-50.5 -56t-32.5 -55t-14.5 -45t2.5 -26.5q7 -10 32.5 17t62 85t70.5 129zM331 -88q-56 -37 -94.5 -91.5t-49.5 -95
t-2 -53.5q5 -7 27.5 21t56.5 88.5t62 130.5z" />
    <glyph glyph-name="r_r" unicode="rr" horiz-adv-x="671" 
d="M695 85q-19 -45 -59 -73.5t-81 -27.5q-56 1 -78.5 45.5t-3.5 105.5q25 81 125 190q-60 -37 -120 -37q-120 -301 -247 -305q-56 -1 -77 44t-3 108q22 75 127 190q-62 -37 -123 -37q-9 -17 -50.5 -88t-70.5 -130t-38 -102q-2 -8 -7 -10t-12 5q-47 47 -1 134q11 20 33.5 54
t56.5 84t43 63q-23 13 -20.5 40t17.5 54t37 47.5t36 20.5q23 -2 21 -37.5t-24 -87.5q47 7 108 47q19 13 30 2q11 -12 19.5 -28.5t8.5 -37t-13 -35.5q-93 -104 -115 -174q-13 -41 -5.5 -69t30.5 -27q43 1 100.5 84.5t99.5 195.5q-28 10 -30.5 38t12.5 56t36.5 50t36.5 23
q22 -2 21 -37.5t-20 -88.5q54 8 110 48q19 14 30 2t19 -28t8 -37t-13 -36q-89 -100 -114 -174q-14 -41 -6.5 -67.5t31.5 -28.5q29 -2 63.5 38t60.5 99q7 16 15 0q12 -26 -4 -65z" />
    <glyph glyph-name="s_r" unicode="sr" horiz-adv-x="603" 
d="M625 85q-19 -45 -58.5 -73.5t-81.5 -27.5q-56 1 -78 45.5t-3 105.5q24 77 125 190q-60 -37 -120 -37q-23 -58 -44 -101t-50 -88.5t-65.5 -74t-77.5 -37.5q-53 -11 -98 7.5t-70 65.5q-19 33 -15.5 74.5t29.5 61.5q20 15 21 -10q0 -16 1 -23q67 89 115 171q5 50 34 76
q16 15 32 18.5t22 -3.5q11 -11 -8 -44q-1 -2 -4.5 -8.5t-5.5 -9.5q-3 -48 3.5 -127t4.5 -110q-4 -73 -39 -100q47 24 93 96t83 171q-28 10 -30.5 38t12.5 56t36.5 50t36.5 23q12 1 17 -9.5t4 -28.5t-5.5 -40t-13.5 -48q50 7 110 47q19 16 30 3q11 -12 18.5 -28t7.5 -37
t-13 -36q-95 -109 -115 -174q-12 -41 -5 -68.5t30 -28.5q30 -1 65 39t60 99q3 7 7.5 7t7.5 -7q11 -25 -5 -65zM153 269q-46 -78 -104 -159q12 -46 33 -71.5t45 -17.5q12 4 19.5 21.5t9 50.5t1.5 56.5t-2 66.5t-2 53z" />
    <glyph glyph-name=".notdef" horiz-adv-x="604" 
d="M49 0v702h501v-702h-501zM99 658v-618h403v618h-403z" />
    <glyph glyph-name=".null" horiz-adv-x="0" 
 />
    <glyph glyph-name=".null" horiz-adv-x="0" 
 />
    <glyph glyph-name="nonmarkingreturn" horiz-adv-x="333" 
 />
    <glyph glyph-name="CR" unicode="&#xd;" horiz-adv-x="220" 
 />
    <glyph glyph-name="space" unicode=" " horiz-adv-x="220" 
 />
    <glyph glyph-name="exclam" unicode="!" horiz-adv-x="317" 
d="M356 615q6 9 13.5 8.5t11.5 -10.5q24 -53 -30 -151q-124 -222 -190 -367q-7 -14 -17 -4q-31 33 -3 109q31 83 96 209t119 206zM131 52q16 -34 -7 -64q-9 -12 -27 -7.5t-28 21.5q-11 20 -9.5 40t14.5 33q11 12 29 5t28 -28z" />
    <glyph glyph-name="quotedbl" unicode="&#x22;" horiz-adv-x="318" 
d="M191 433q-13 -18 -24 -16q-12 1 -7 16q15 42 46.5 105.5t54.5 91.5q14 18 23 1q13 -25 -8 -63q-52 -91 -85 -135zM239 398q-19 -19 -26 -13q-10 7 -2 20q23 40 66.5 102t69.5 87q8 8 16 6.5t10 -9.5q5 -28 -20 -63q-46 -64 -114 -130z" />
    <glyph glyph-name="numbersign" unicode="#" horiz-adv-x="510" 
d="M217 347q-51 -1 -104 -6q-7 -1 -10 3.5t2 9.5q17 22 82 32q20 3 53 6q51 94 87 152q12 21 19 2q11 -29 -27 -113q-3 -7 -9.5 -20.5t-8.5 -17.5q45 3 93 3q58 104 92 151q14 19 19 -1q10 -33 -29 -110q-14 -26 -21 -40q59 0 91 -4q21 -3 9 -15q-29 -30 -113 -30h-14
q-64 -114 -79 -142q61 1 109 -2q22 -2 9 -15q-31 -31 -112 -31h-32q-43 -79 -73 -143q-6 -12 -14 0q-14 24 10 87q12 29 24 55q-33 0 -93 -2q-34 -68 -62 -128q-6 -13 -14 0q-14 24 8 87q7 20 15 38q-67 -4 -98 -7q-9 -1 -10.5 2.5t2.5 8.5q16 25 81 35q18 3 45 6
q27 62 73 149zM367 349h-90q-12 -23 -77 -147q29 2 93 4q32 66 74 143z" />
    <glyph glyph-name="dollar" unicode="$" horiz-adv-x="351" 
d="M290 499q32 55 60 102q10 18 19 2q15 -25 -15 -89q-16 -32 -20 -39q21 -18 30 -42q8 -11 2.5 -34t-11 -36t-17.5 -37.5t-18 -38.5q-4 -9 -7.5 -10.5t-14.5 4.5q-39 24 -16 83q3 8 9 19.5t10 21l8 19t3.5 16.5t-5.5 11q-10 8 -44.5 -9t-67 -52.5t-34.5 -71.5
q-1 -17 16.5 -33t49.5 -34t41 -25q21 -18 18 -41.5t-26 -48.5q-18 -20 -50 -27.5t-70 2.5q-10 -19 -26 -52.5t-21 -42.5q-7 -13 -14 -3q-16 22 4 74q3 7 8 21t8 20q-38 22 -70 67q-9 13 6 16q32 7 64 -17q6 -4 20 -15.5t21.5 -17t21.5 -11.5t29 -7q25 -2 39 12q15 15 -4 31
q-8 7 -46.5 28.5t-63 45.5t-24.5 53q1 59 45 108t101 73q25 10 52 5z" />
    <glyph glyph-name="percent" unicode="%" horiz-adv-x="596" 
d="M478 469q-52 -3 -96 26q0 -12 -1 -19q-7 -56 -47.5 -119.5t-88.5 -76.5q-59 -16 -97 38q-47 66 17 176q24 42 59 69t70 28q19 1 29.5 -4.5t22.5 -23.5q33 -49 101 -53.5t101 34.5q24 25 27 4q8 -45 -50 -113q-16 -19 -75 -86.5t-101.5 -117.5t-96 -116.5t-85.5 -113.5
q-11 -16 -17 2q-12 34 23 90q33 52 122.5 162t182.5 214zM453 -15q-60 -18 -99 35q-49 67 13 175q25 44 58 72t67 30q33 3 54 -26q2 -3 16.5 -18t18 -28.5t1.5 -39.5q-4 -56 -43 -121t-86 -79zM327 542q-15 15 -50 -11.5t-62 -70.5q-24 -40 -32.5 -83t5.5 -56q14 -14 44.5 6
t57.5 67q28 48 38.5 93t-1.5 55zM526 248q-14 14 -48.5 -12.5t-60.5 -71.5q-24 -42 -31 -85.5t7 -54.5q17 -13 46 7.5t55 68.5t35 94t-3 54z" />
    <glyph glyph-name="ampersand" unicode="&#x26;" horiz-adv-x="523" 
d="M337 142q-45 -8 -46 -8q-71 -7 -93 40q-7 16 10 16q34 -1 106 15t99 18q66 4 90 -48q3 -8 0.5 -12.5t-10.5 -3.5q-41 5 -101 -6q12 -48 -34 -108q-30 -39 -76 -64.5t-102.5 -24t-101.5 40.5q-39 34 -46 82.5t14 94.5t66 85t103 55q-56 19 -59 78q-3 67 55.5 127t118.5 79
q35 15 72.5 13.5t68.5 -28.5q32 -27 36.5 -54t-14.5 -64q-27 -57 -41 -97q-5 -13 -21 -5q-19 10 -26 33.5t4 62.5q5 14 12.5 29.5t12.5 25.5t9 19.5t3.5 16t-5.5 11.5q-15 15 -68.5 -10t-101 -75.5t-44.5 -96.5q2 -28 20.5 -37t52.5 -8q59 1 74 -42q5 -12 -11 -14
q-111 -9 -191.5 -68t-82.5 -131q-1 -31 17 -52t50 -23q42 -3 96 33.5t85 104.5z" />
    <glyph glyph-name="quotesingle" unicode="'" horiz-adv-x="241" 
d="M190 436q-12 -16 -26 -14q-9 1 -4 17q14 39 49 103.5t59 93.5q17 20 25 0q10 -26 -11 -61q-49 -84 -92 -139z" />
    <glyph glyph-name="parenleft" unicode="(" horiz-adv-x="228" 
d="M346 643q16 10 19 -7q9 -54 -69 -123q-105 -94 -161 -242.5t-42 -327.5q1 -6 -3 -7.5t-8 1.5q-21 13 -28 54q-30 178 46.5 362t245.5 290z" />
    <glyph glyph-name="parenright" unicode=")" horiz-adv-x="245" 
d="M279 633q28 -128 -3 -265t-95.5 -237t-143.5 -159q-44 -32 -79 -32q-6 0 -7 3.5t4 7.5q135 114 203.5 266.5t62.5 289.5q-4 100 40 134q14 11 18 -8z" />
    <glyph glyph-name="asterisk" unicode="*" horiz-adv-x="366" 
d="M429 531q-7 -33 -50 -44q-19 -5 -70 -16q37 -59 49 -74q4 -5 1.5 -9.5t-10.5 -5.5q-27 -2 -50 27q-19 25 -22 29q-32 -55 -48 -90q-5 -13 -15 -1q-18 20 -2 62q1 2 6.5 17t10.5 26q-43 -10 -76 -19q-7 -2 -10.5 0.5t-2.5 8.5q6 29 48 44q41 14 46 15q-33 53 -50 83
q-8 15 8 17q34 3 58 -37q2 -4 9.5 -14t12.5 -18q27 55 65 115q5 8 15 2q10 -7 12 -23.5t-9 -43.5q-2 -4 -6.5 -12.5t-12 -22t-13.5 -24.5q46 11 92 20q9 1 12.5 -1.5t1.5 -10.5z" />
    <glyph glyph-name="plus" unicode="+" horiz-adv-x="314" 
d="M250 314q62 -1 71 -54q2 -7 0 -10.5t-11 -2.5q-37 4 -97 -2q-39 -66 -52 -99q-4 -18 -18 -7q-35 27 -12 83q6 15 7 17h-2q-62 1 -74 53q-2 7 1 11t11 3q37 -3 98 3q6 10 25.5 45.5t28.5 51.5t23 1q30 -34 1 -93z" />
    <glyph glyph-name="comma" unicode="," horiz-adv-x="239" 
d="M86 -16q-24 13 -16 47q5 22 20.5 35t31.5 12q18 -1 27 -21.5t0 -46.5q-10 -30 -37 -47t-53 -7q-5 2 -4.5 6t4.5 6q16 6 27 16z" />
    <glyph glyph-name="hyphen" unicode="-" horiz-adv-x="325" 
d="M118 199q-63 3 -73 53q-2 7 0 11t10 3q30 -2 93.5 3t80.5 5q64 0 75 -52q2 -7 -0.5 -11t-10.5 -3q-41 3 -99.5 -3.5t-75.5 -5.5z" />
    <glyph glyph-name="period" unicode="." horiz-adv-x="223" 
d="M60 43q9 20 25.5 30t31.5 5t19 -22.5t-4 -37.5t-25 -30t-32 -5t-19 23.5t4 36.5z" />
    <glyph glyph-name="slash" unicode="/" horiz-adv-x="396" 
d="M549 645q19 18 24 -6q11 -53 -61 -137q-21 -24 -125 -135.5t-199 -220t-139 -176.5q-4 -6 -9.5 -6t-9.5 8q-14 36 17 93q41 76 219 277t283 303z" />
    <glyph glyph-name="zero" unicode="0" horiz-adv-x="489" 
d="M400 239q39 80 53.5 154t5 119t-35.5 54q-38 13 -113 -44t-135 -160q-41 -71 -57.5 -145.5t-5.5 -125.5t43 -63q47 -19 119.5 41t125.5 170zM441 588q55 -21 73 -85t4 -138.5t-49 -146.5q-59 -121 -141.5 -187.5t-172.5 -37.5q-55 18 -83.5 64t-29.5 107q-1 73 26.5 148
t69.5 132t89 98.5t87 58.5q41 16 74 12t53 -25z" />
    <glyph glyph-name="one" unicode="1" horiz-adv-x="218" 
d="M199 479q-46 -3 -42 13q2 4 6 8q64 62 96 96q13 12 26 0q44 -39 -7 -136q-13 -24 -67 -122.5t-100 -188.5t-81 -174q-7 -17 -18 -4q-29 33 -5 111q15 46 74.5 169t117.5 228z" />
    <glyph glyph-name="two" unicode="2" horiz-adv-x="423" 
d="M84 52q74 22 136 24q71 1 89 -48q5 -15 -10 -15q-41 1 -120 -12t-127 -27q-34 -10 -50 7q-16 18 -25 42q-6 15 -3 22.5t19 17.5q132 79 245.5 178.5t168 186t21.5 123.5q-12 17 -31 13t-36 -14.5t-37 -32t-33 -38.5t-25 -35q-25 -37 -46.5 -52.5t-53.5 -14.5
q-10 1 -11.5 4t1.5 12q17 47 60.5 107.5t96.5 87.5q34 19 75.5 15t69.5 -32q65 -65 11 -175q-34 -68 -142 -170t-243 -174z" />
    <glyph glyph-name="three" unicode="3" horiz-adv-x="429" 
d="M472 415q-48 -63 -136 -100q31 -7 46 -20q38 -32 28 -92t-65 -128q-40 -49 -92.5 -71.5t-97.5 -18.5t-79 26q-32 21 -46.5 52t-14 56.5t9.5 46.5q12 30 35 47.5t47 17.5q17 0 8 -14q-36 -58 -39.5 -108t24.5 -66q37 -23 91 0.5t96 76.5q39 48 53 90.5t-7 62.5
q-14 8 -34.5 7.5t-39.5 -5.5t-42 1t-41 27q-11 13 9 19q100 29 170.5 80.5t92.5 97t0 68.5q-45 48 -145 -77q-53 -67 -108 -56q-18 3 -10 18q22 45 65.5 90.5t80.5 63.5q36 18 79 13.5t68 -30.5q71 -73 -6 -175z" />
    <glyph glyph-name="four" unicode="4" horiz-adv-x="426" 
d="M440 512q-237 -163 -346 -280q105 27 201 32q77 149 145 248zM371 252q28 -15 37 -43q2 -7 -1 -10t-10 -2q-23 5 -54 3q-72 -131 -106 -218q-2 -5 -5 -7t-6.5 -1t-5.5 4q-29 43 -6 109q16 42 46 106q-90 -12 -146 -26q-24 -5 -34 8q-15 20 -35 57q-9 17 4 32
q60 71 181.5 170.5t222.5 164.5q26 17 39 -3q11 -17 28 -47q9 -16 8 -25.5t-16 -32.5q-55 -85 -141 -239z" />
    <glyph glyph-name="five" unicode="5" horiz-adv-x="415" 
d="M552 556q-39 0 -77.5 -5t-79.5 -12.5t-61 -10.5q-6 -1 -16 -1q-33 -49 -99 -153q37 13 73.5 8.5t59.5 -21.5q28 -21 41 -51t4.5 -82.5t-47.5 -116.5q-35 -59 -86 -91t-97.5 -32t-87.5 18q-33 17 -49 47t-14.5 58.5t9.5 54.5q23 61 82 65q6 1 8 -3.5t-2 -10.5
q-35 -55 -38 -109.5t27 -70.5q36 -22 93.5 15.5t94.5 100.5q36 62 42 117t-20 67q-27 14 -68.5 -5.5t-73.5 -62.5q-10 -12 -20 -1q-36 40 -3 110q35 72 100 175q-11 11 -17 30q-4 13 12 13q53 -2 138 12.5t102 14.5q60 1 80 -54q4 -13 -10 -13z" />
    <glyph glyph-name="six" unicode="6" horiz-adv-x="401" 
d="M484 528q-3 -81 -42 -157q-7 -15 -21 -5q-20 14 -24 44.5t10 69.5q7 20 11.5 33.5t8.5 28.5t3 22.5t-7 8.5q-35 5 -108.5 -54.5t-136.5 -167.5q75 46 143 3q33 -20 49 -53.5t10.5 -84.5t-38.5 -111q-33 -59 -75.5 -89t-83 -29t-79.5 21q-68 39 -69.5 141t69.5 231
q43 76 97 130.5t88 74t63 29.5q54 18 96 -10q37 -25 36 -76zM107 166q-11 -54 -3.5 -85.5t25.5 -42.5q30 -18 76.5 14t78.5 97t34.5 113.5t-26.5 63.5q-22 10 -57.5 -2.5t-73 -54t-54.5 -103.5z" />
    <glyph glyph-name="seven" unicode="7" horiz-adv-x="337" 
d="M383 536q-18 -3 -67 -14t-72 -14q-86 -12 -106 53q-4 12 11 12q47 0 132 14t91 15q15 3 25.5 0.5t20.5 -16.5q15 -23 29 -62q4 -16 1 -23t-20 -23q-91 -86 -211.5 -235.5t-187.5 -260.5q-9 -14 -18 0q-24 37 17 114q44 85 157 224.5t198 215.5z" />
    <glyph glyph-name="eight" unicode="8" horiz-adv-x="388" 
d="M277 327q4 -8 12 -23.5t14.5 -28t11.5 -24.5q63 -136 -28 -228q-38 -39 -104 -51t-110 10q-41 20 -57 55t-10.5 70.5t25.5 70.5q43 78 154 167q-29 65 -24 101q6 49 40 87.5t82 57.5q46 16 86.5 14t66 -29.5t22.5 -74.5q41 10 62 -3q7 -4 6.5 -9t-7.5 -9
q-130 -71 -242 -153zM396 477q3 42 -12 69.5t-48 21.5q-37 -7 -67.5 -44.5t-30.5 -77.5q0 -24 11 -54q75 52 147 85zM216 279q-101 -86 -134 -157q-37 -81 12 -106q25 -13 60.5 -3.5t61.5 37.5q15 16 24 29t16 31.5t5.5 42t-11.5 51.5t-34 75z" />
    <glyph glyph-name="nine" unicode="9" horiz-adv-x="414" 
d="M361 369q30 82 29 129.5t-24 60.5q-28 15 -78 -25t-84 -106q-35 -67 -36.5 -120.5t28.5 -66.5q36 -17 85.5 18.5t79.5 109.5zM308 220q-69 -40 -138 -6q-32 16 -50.5 47t-15.5 84.5t37 116.5q49 91 115 124.5t131 1.5q69 -36 66 -139.5t-77 -252.5q-57 -114 -118.5 -170
t-135.5 -57q-50 -1 -89 25t-42 84q-1 30 11.5 52.5t28.5 31.5q6 4 10.5 5t7 -1.5t1.5 -9.5q-28 -123 34 -145q45 -16 105.5 38t118.5 171z" />
    <glyph glyph-name="colon" unicode=":" horiz-adv-x="255" 
d="M200 343q9 19 25 29.5t31 4.5q14 -6 18.5 -22.5t-3.5 -36.5t-24.5 -30t-31.5 -5t-19.5 22.5t4.5 37.5zM43 43q10 20 26.5 30t30.5 5q15 -5 19 -22.5t-4 -37.5q-8 -19 -25 -29.5t-32 -5.5q-14 5 -19 23t4 37z" />
    <glyph glyph-name="semicolon" unicode=";" horiz-adv-x="264" 
d="M210 343q9 18 25.5 29t30.5 5q13 -5 18 -22t-3 -37t-24.5 -30t-31.5 -5t-19.5 22.5t4.5 37.5zM63 -16q-24 13 -15 47q6 22 21.5 35t31.5 12q18 -1 26 -21t-1 -47q-10 -30 -36.5 -47t-52.5 -7q-5 2 -5 6t5 6q15 5 26 16z" />
    <glyph glyph-name="less" unicode="&#x3c;" horiz-adv-x="288" 
d="M158 267q36 -20 57 -38q30 -27 25 -63q-3 -18 -18 -7q-37 27 -121 68q-21 10 -28 53q-2 12 1 17.5t16 9.5q40 13 98.5 40t88.5 47q16 11 16 -9q0 -38 -37 -66q-25 -20 -98 -52z" />
    <glyph glyph-name="equal" unicode="=" horiz-adv-x="361" 
d="M173 290q-61 1 -72 54q-2 8 0.5 11t10.5 2q28 -2 90 3t84 4q66 -4 74 -55q2 -7 -1 -11t-12 -3q-41 4 -101.5 -0.5t-72.5 -4.5zM126 182q-64 3 -74 54q-2 8 0.5 11.5t10.5 2.5q29 -2 90.5 4t82.5 5q65 -3 75 -54q2 -7 -0.5 -11t-10.5 -3q-41 3 -99 -3.5t-75 -5.5z" />
    <glyph glyph-name="greater" unicode="&#x3e;" horiz-adv-x="290" 
d="M192 276q-40 21 -61 40q-30 28 -26 65q3 20 18 8q69 -49 147 -82q20 -8 9 -30q-19 -41 -44 -51q-122 -47 -159 -67q-8 -4 -11 -2t-4 12q-1 13 10 31.5t28 30.5q32 23 93 45z" />
    <glyph glyph-name="question" unicode="?" horiz-adv-x="385" 
d="M194 528q42 67 104.5 91.5t118.5 -9.5q42 -28 51 -80t-20 -115q-26 -54 -71 -92t-114 -75q-89 -49 -115 -145q-4 -17 -18 -3q-12 12 -15.5 33.5t8.5 59.5q14 32 42 58.5t84 58.5q100 57 144 151q11 23 16.5 46t2.5 45t-18 30q-38 20 -95.5 -34t-101.5 -143q-9 -17 -19 -3
q-13 14 -10.5 51t26.5 75zM130 52q16 -41 -6 -64q-9 -11 -26.5 -7.5t-28.5 21.5q-11 20 -9 40t14 33t30 5.5t26 -28.5z" />
    <glyph glyph-name="at" unicode="@" horiz-adv-x="586" 
d="M326 165q-47 -55 -96 -55q-36 0 -54 29t-10 76t40 94q45 65 89.5 97t78.5 32q22 0 35.5 -14.5t15.5 -34.5q16 27 26 39q11 12 18 5q11 -11 12 -33.5t-12 -54.5q-7 -16 -36.5 -65t-39.5 -72q-13 -30 -14.5 -51.5t9.5 -24.5q18 -4 46.5 26.5t56.5 94.5q36 83 26.5 157
t-58.5 95q-54 23 -134 -14.5t-144 -127.5q-44 -61 -59.5 -128.5t-1 -118t54.5 -68.5q43 -17 92.5 -4.5t82.5 43.5q5 6 10 5t5 -9q0 -39 -38 -62q-25 -14 -57 -17.5t-55.5 0.5t-41.5 11q-111 43 -113 175q-1 67 28 132.5t73 113t93.5 80t91.5 41.5q88 19 137 -31
q52 -24 73.5 -75t17.5 -103t-24 -101q-28 -70 -72 -109t-88 -36q-29 2 -45.5 19.5t-18.5 43.5zM385 396q-20 1 -57 -33.5t-69 -85.5q-21 -33 -31 -65t-7.5 -52t18.5 -20q22 -1 51.5 30.5t61.5 86.5q24 42 36 74.5t10.5 48t-13.5 16.5z" />
    <glyph glyph-name="A" unicode="A" horiz-adv-x="442" 
d="M313 157q-20 -1 -96 -9t-103 -7q-46 -79 -76 -144q-3 -7 -8.5 -7t-9.5 5q-22 30 5 102q11 28 27 57q-24 13 -33 34q-4 10 -1.5 13t13.5 2q27 -4 45 -5q66 115 157.5 237.5t165.5 183.5q22 18 36 -1q15 -21 23 -41q14 -32 0 -73q-48 -145 -73 -291q38 -13 45 -51
q3 -14 -11 -9q-18 5 -43 6q-12 -93 -15 -160q0 -16 -15 -9q-36 16 -37 91q0 36 4 76zM152 201q23 2 83 9t86 8q28 191 74 308q-124 -139 -243 -325z" />
    <glyph glyph-name="B" unicode="B" horiz-adv-x="454" 
d="M213 511q-52 3 -68 40q-7 16 10 17q35 3 114 30t113 29q95 6 118 -81q24 -90 -35 -167q-61 -78 -156 -119q29 -14 48 -42q18 -21 12.5 -62.5t-35.5 -74.5q-32 -34 -81 -59.5t-94 -33.5q-54 -10 -84 5t-51 46q-14 20 -15.5 35t13.5 67q65 182 191 370zM167 288
q140 33 228 113.5t68 135.5q-6 15 -19.5 21t-37 2t-39.5 -8.5t-49.5 -16t-42.5 -14.5q3 -37 -30 -98q-11 -21 -38.5 -67.5t-39.5 -67.5zM244 238q-14 -3 -42 -7q-40 -4 -62 7q-49 -94 -67 -155q-8 -26 0 -36t32 -7q50 6 106 35t87 67q20 24 23.5 44t-15.5 35t-62 17z" />
    <glyph glyph-name="C" unicode="C" horiz-adv-x="462" 
d="M388 206q4 8 10.5 8t10.5 -10q17 -45 -12 -94t-69 -78q-51 -36 -111 -40.5t-98 19.5q-36 19 -60.5 64t-25.5 104q-1 75 27 150.5t72.5 131.5t93.5 96.5t93 57.5q91 35 135 -3q41 -35 53 -73q13 -42 -9 -88q-11 -23 -40 -99q-6 -17 -22 -6q-44 29 -24 96q4 13 11.5 31.5
t12.5 32t9 28t3.5 25t-7.5 17.5q-14 16 -60.5 -3.5t-107 -73t-102.5 -123.5q-42 -69 -57 -141.5t-6 -122t34 -70.5q48 -39 118.5 7t127.5 157z" />
    <glyph glyph-name="D" unicode="D" horiz-adv-x="483" 
d="M210 501q-49 3 -65 42q-6 17 10 19q36 5 94.5 29.5t89.5 29.5q93 14 151 -88q25 -50 24.5 -109t-32 -125t-79.5 -124.5t-118.5 -107.5t-148.5 -75q-39 -13 -64 7q-29 24 -42 43q-15 21 -16.5 38.5t13.5 67.5q23 69 76.5 171t106.5 182zM263 511q9 -44 -26 -105
q-2 -3 -39.5 -69t-51 -91.5t-36.5 -73.5t-33 -80t-4 -42.5t28 -2.5q66 25 124 65.5t98.5 85.5t72 95t44 94t15.5 82.5t-14 61.5q-12 20 -34 23t-40.5 -3t-53 -20.5t-50.5 -19.5z" />
    <glyph glyph-name="E" unicode="E" horiz-adv-x="368" 
d="M218 525q-31 12 -42 51q-2 7 1 10t10 2q47 -3 138.5 11t110.5 14q58 1 76 -49q3 -6 0 -10t-11 -3q-25 0 -54.5 -3t-50 -6.5t-52 -9.5t-46.5 -8q-46 -69 -138 -236q31 6 71 8q67 3 82 -45q5 -15 -10 -15q-73 0 -185 -28q-47 -90 -77 -158q89 28 155 31q68 3 85 -44
q5 -15 -10 -15q-67 1 -221 -40q-28 -7 -42 10q-3 3 -21 37q-12 22 1 57q33 89 99 213.5t131 225.5z" />
    <glyph glyph-name="F" unicode="F" horiz-adv-x="363" 
d="M214 526q-30 14 -39 51q-3 12 11 12q47 -2 135.5 11.5t109.5 13.5q61 0 82 -51q6 -15 -12 -15q-34 0 -69 -4.5t-77.5 -12.5t-59.5 -11q-61 -99 -131 -228q31 6 67 8q68 4 84 -48q5 -15 -11 -15q-65 1 -184 -28q-67 -130 -104 -216q-6 -14 -17 -4q-35 30 -8 110
q22 64 88 189.5t135 237.5z" />
    <glyph glyph-name="G" unicode="G" horiz-adv-x="500" 
d="M412 192q17 -63 -39.5 -123.5t-106.5 -74.5q-102 -29 -167 20q-66 49 -67 154q-1 76 31.5 153.5t82 135t102.5 98.5t97 55q88 28 135 -6q39 -28 52 -71q13 -41 -7 -87q-18 -40 -39 -96q-7 -18 -21 -5q-43 30 -26 95q4 15 13 38t14 36.5t7.5 31.5t-6.5 22q-16 17 -66.5 -3
t-114.5 -73.5t-109 -121.5q-44 -67 -62.5 -139.5t-13.5 -122.5t26 -69q41 -38 114 8t119 137q-64 -12 -88 -14q-70 -7 -96 48q-8 16 10 16q41 1 114 14t101 13q68 1 91 -51q4 -8 1.5 -12.5t-11.5 -3.5q-28 3 -70 -2z" />
    <glyph glyph-name="H" unicode="H" horiz-adv-x="488" 
d="M558 465q-11 -21 -49.5 -88t-62.5 -111q32 -14 39 -44q2 -6 -1 -9t-10 -2q-24 5 -56 3q-55 -105 -102 -212q-7 -17 -17 -2q-27 38 -3 110q12 35 42 96q-178 -22 -197 -22q-49 -98 -91 -195q-8 -19 -18 -4q-26 36 -5 110q4 15 43 102q-23 11 -34 32q-5 9 -2 12.5t15 2.5
q3 0 18.5 -1.5t23.5 -1.5q49 103 108.5 212.5t89.5 151.5q14 18 24 -1q26 -49 -25 -148q-15 -28 -53.5 -98.5t-60.5 -111.5q24 3 91.5 15.5t105.5 14.5q129 257 193 341q15 20 25 -1q25 -51 -31 -151z" />
    <glyph glyph-name="I" unicode="I" horiz-adv-x="182" 
d="M269 616q14 20 24 -1q26 -54 -30 -153q-173 -304 -245 -466q-6 -14 -16 -2q-32 34 -4 111q35 98 121 258.5t150 252.5z" />
    <glyph glyph-name="J" unicode="J" horiz-adv-x="437" 
d="M66 229q11 2 15 -3t0 -17q-23 -66 -22.5 -111t13 -62t30.5 -21q22 -5 43 2t42.5 29t37.5 42.5t38 61t34 64.5t35 71q129 265 172 331q12 19 24 -1q27 -45 -7 -125q-28 -65 -87.5 -184.5t-97.5 -183.5q-98 -163 -241 -138q-57 10 -84.5 57t-10.5 111q8 31 26.5 51.5
t39.5 25.5z" />
    <glyph glyph-name="K" unicode="K" horiz-adv-x="397" 
d="M125 210q-51 -97 -103 -219q-7 -15 -16 -3q-27 37 -5 110q19 64 115.5 254.5t142.5 254.5q13 17 24 -2q29 -51 -23 -146q-71 -129 -95 -173q211 158 366 326q12 14 19 -2q12 -46 -31 -105q-35 -47 -126 -127.5t-190 -150.5q55 -88 71 -125q30 -72 0 -111q-10 -12 -18 2
q-55 106 -131 217z" />
    <glyph glyph-name="L" unicode="L" horiz-adv-x="353" 
d="M55 56q87 23 152 28q69 6 88 -45q6 -15 -10 -15q-62 1 -218 -39q-18 -5 -27.5 -3t-17.5 13q-20 29 -26 43q-10 24 3 58q35 90 130.5 268t143.5 244q14 19 24 -2q25 -51 -25 -141q-3 -5 -56 -100t-90.5 -166t-70.5 -143z" />
    <glyph glyph-name="M" unicode="M" horiz-adv-x="573" 
d="M269 435q-187 -282 -260 -447q-6 -15 -17 -2q-31 33 -2 109q27 71 126 234.5t181 274.5q14 21 32 6q31 -27 36.5 -57.5t-12.5 -90.5q-55 -165 -106 -353q57 94 185.5 256t179.5 242q13 19 29 3q53 -54 3 -146q-154 -286 -220 -476q-5 -13 -16 -3q-32 26 -11 109
q23 92 144 324q-211 -255 -302 -425q-7 -15 -18 -7q-51 37 -38 121q21 130 86 328z" />
    <glyph glyph-name="N" unicode="N" horiz-adv-x="459" 
d="M239 429q-169 -290 -217 -435q-5 -17 -17 -4q-33 37 -5 112q64 177 259 505q11 19 26 9q28 -20 35 -46t-1 -78q-21 -127 -33 -360q49 111 124 249.5t134 229.5q12 18 23 -2q25 -51 -31 -145q-47 -78 -125 -227t-120 -244q-6 -14 -20 -6q-23 12 -34 34.5t-15 69.5
q-10 124 17 338z" />
    <glyph glyph-name="O" unicode="O" horiz-adv-x="537" 
d="M476 597q59 -26 76.5 -94t0.5 -145.5t-56 -149.5q-67 -123 -157 -187t-186 -29q-114 42 -114 187q0 76 30.5 152t77 132.5t97.5 97t95 56.5q88 30 136 -20zM424 236q43 79 60.5 155.5t8.5 124t-37 57.5q-41 15 -122.5 -39.5t-147.5 -156.5q-46 -72 -65 -148.5t-9 -130.5
t44 -68q51 -22 129 36t139 170z" />
    <glyph glyph-name="P" unicode="P" horiz-adv-x="425" 
d="M206 509q-46 5 -63 42q-8 17 10 18q41 4 116 28t110 26q89 3 119 -83q28 -80 -30 -171q-39 -61 -116.5 -110.5t-172.5 -67.5q-35 -6 -62 10q-41 -80 -93 -204q-5 -14 -16 -3q-28 30 -9 99q19 68 80 190.5t127 225.5zM146 257q154 29 243 121t66 153q-6 16 -20.5 21.5
t-36.5 2t-41 -9.5t-47 -16t-42 -14q0 -45 -38 -110q-3 -5 -34.5 -60t-49.5 -88z" />
    <glyph glyph-name="Q" unicode="Q" horiz-adv-x="543" 
d="M226 -16q9 -4 53 -27.5t60 -30t47 -13.5t55 -2q12 2 14 -2.5t-4 -9.5q-23 -30 -68.5 -36.5t-80.5 8.5q-28 9 -60 27t-54.5 32t-55 28.5t-60.5 16.5t-71 -5q-7 -1 -10 2.5t1 8.5q31 41 108 38h7q-70 53 -70 162q0 76 31 151.5t76.5 131.5t95.5 95.5t93 54.5q89 31 138 -20
q57 -26 74 -93.5t0 -144t-55 -149.5q-51 -96 -120 -157.5t-144 -65.5zM417 235q43 79 60.5 155t9 123.5t-36.5 58.5q-40 16 -121 -38t-147 -157q-46 -71 -64.5 -147t-8.5 -129.5t43 -68.5q51 -23 128 34t137 169z" />
    <glyph glyph-name="R" unicode="R" horiz-adv-x="458" 
d="M129 195q-44 -87 -89 -198q-6 -14 -16 -4q-28 30 -9 99q19 68 80 191.5t127 227.5q-44 4 -64 40q-7 14 11 17q41 5 116.5 28.5t109.5 25.5q43 2 72.5 -15.5t46.5 -65.5q31 -89 -31 -172q-40 -54 -114.5 -97.5t-158.5 -63.5q69 -86 95 -137q11 -21 12.5 -43t-7.5 -38
q-8 -13 -16 -2q-95 130 -165 207zM283 517q0 -43 -38 -113q-10 -18 -37 -64.5t-42 -74.5q154 34 241.5 120.5t63.5 145.5q-5 13 -17 19.5t-26.5 6t-34.5 -5t-36.5 -10.5t-38.5 -13t-35 -11z" />
    <glyph glyph-name="S" unicode="S" horiz-adv-x="444" 
d="M-33 134q25 7 53 1.5t48 -22.5q105 -84 173 -84q41 0 62 18q25 28 -2 52q-14 12 -54.5 37t-72 46.5t-58 56t-26.5 70.5q0 64 44 127.5t97 103t103 61.5q87 36 129 -2q38 -35 50 -84q11 -44 -29 -100q-28 -37 -69 -111q-9 -16 -22 -3q-37 37 -10 97q7 16 32 53.5t38 64.5
t2 38q-17 18 -85.5 -17.5t-133 -101.5t-66.5 -124q-1 -29 27.5 -56.5t86.5 -61t67 -40.5q28 -20 25 -53t-36 -71q-23 -27 -64.5 -40t-92 -9t-109.5 37.5t-109 93.5q-15 17 2 23z" />
    <glyph glyph-name="T" unicode="T" horiz-adv-x="403" 
d="M276 525q-31 -5 -61 -7q-45 -1 -75.5 14t-38.5 43q-2 7 1 10.5t10 2.5q50 -4 170 12.5t142 15.5q76 -2 95 -51q3 -7 0 -11.5t-12 -3.5q-52 5 -170 -15q2 -43 -33 -106q-9 -16 -47 -84t-59.5 -107.5t-55.5 -108t-61 -132.5q-5 -14 -16 -3q-30 28 -13 91q18 63 87 200
t137 240z" />
    <glyph glyph-name="U" unicode="U" horiz-adv-x="452" 
d="M76 -12q-102 42 -68 180q35 140 232 439q12 18 24 -1q29 -46 -19 -139q-13 -26 -57.5 -102t-75.5 -138.5t-42 -109.5q-20 -85 20 -100q44 -17 100 38t111 161q125 244 219 392q11 19 24 -1q24 -42 -13 -124q-31 -67 -105.5 -201.5t-120.5 -198.5q-51 -71 -113 -94
t-116 -1z" />
    <glyph glyph-name="V" unicode="V" horiz-adv-x="403" 
d="M100 78q69 116 197.5 287t198.5 244q5 5 9.5 6.5t8.5 -1.5t5 -10q11 -55 -55 -142q-3 -4 -85.5 -110t-146 -193t-115.5 -169q-11 -17 -28 -5q-56 42 -45 134q13 116 44.5 264t58.5 220q9 22 22 6q33 -38 10 -141q-60 -276 -79 -390z" />
    <glyph glyph-name="W" unicode="W" horiz-adv-x="630" 
d="M395 406q-167 -218 -291 -416q-13 -20 -30 -5q-26 23 -32.5 54.5t5.5 83.5q27 113 78 259t88 217q13 24 25 4q26 -45 -10 -142q-88 -241 -125 -362q67 109 167.5 248.5t182.5 238.5q14 16 25 -1q16 -23 17 -47t-17 -83q-76 -222 -112 -361q73 120 193.5 281.5
t189.5 234.5q9 9 15.5 8t8.5 -12q10 -56 -58 -145q-11 -15 -65 -84.5t-90 -117.5t-90.5 -123.5t-96.5 -140.5q-13 -20 -30 -5q-27 24 -34 54t3 84q23 108 83 278z" />
    <glyph glyph-name="X" unicode="X" horiz-adv-x="399" 
d="M280 387q153 157 228 226q18 16 23 -7q13 -62 -66 -138q-115 -110 -173 -168q32 -226 73 -297q5 -8 2 -13.5t-11 -4.5q-73 6 -103 128q-13 57 -24 122q-140 -143 -213 -245q-10 -14 -16 2q-18 43 22 105q36 57 193 223q-29 199 -50 282q-2 8 2 11.5t11 2.5q54 -9 77 -89
q9 -32 25 -140z" />
    <glyph glyph-name="Y" unicode="Y" horiz-adv-x="379" 
d="M174 197q-60 -107 -95 -207q-6 -15 -19 -3q-31 27 -10 100q16 54 62 145q4 245 29 370q4 22 21 11q40 -25 35 -116q-1 -26 -7 -91t-8 -105q152 168 313 311q16 13 21 -5q15 -56 -61 -131q-12 -12 -70 -67t-107 -103.5t-104 -108.5z" />
    <glyph glyph-name="Z" unicode="Z" horiz-adv-x="441" 
d="M54 50q110 29 177 34q68 6 88 -43q7 -15 -10 -15q-85 0 -236 -41q-19 -6 -30.5 -5t-19.5 14q-21 33 -24 41q-7 14 -6.5 25.5t11.5 28.5q62 92 214 238.5t263 222.5q-19 -3 -76.5 -14.5t-80.5 -14.5q-86 -9 -106 51q-5 15 11 15q43 -1 130.5 12.5t101.5 14.5q32 3 47 -17
q19 -24 33 -65q5 -15 0.5 -24t-23.5 -22q-108 -77 -239.5 -201.5t-224.5 -234.5z" />
    <glyph glyph-name="bracketleft" unicode="[" horiz-adv-x="316" 
d="M364 616q-83 -121 -177.5 -300t-153.5 -325q20 5 35 8q48 10 71 -32q9 -17 -9 -18q-42 -4 -91 -23q-20 -7 -35 9q-14 15 -24 32q-12 20 -1 52q43 123 139.5 316t187.5 314q16 21 38 29q28 9 70 11q28 1 41 -10q12 -11 24 -27q4 -5 1 -10.5t-12 -6.5q-55 -4 -104 -19z" />
    <glyph glyph-name="backslash" unicode="\" horiz-adv-x="355" 
d="M157 633q-1 11 5.5 14.5t14.5 -1.5q49 -25 65 -138q52 -372 92 -534q2 -8 -1.5 -11t-10.5 -2q-41 7 -65 78q-24 73 -57 271.5t-43 322.5z" />
    <glyph glyph-name="bracketright" unicode="]" horiz-adv-x="319" 
d="M390 619q-3 0 -22 -4t-28 -5q-27 -3 -55 36q-13 18 10 22q13 2 38.5 7t45 7.5t34.5 2.5q19 0 29 -14q3 -4 6 -10t6.5 -14t5.5 -12q9 -19 -1 -34q-190 -289 -349 -645q-10 -24 -32 -27q-11 -2 -30 -5.5t-28 -4.5q-30 -5 -47 6q-17 12 -29 24q-6 5 -4.5 11.5t10.5 9.5
q41 13 108 22q70 159 163.5 337.5t168.5 289.5z" />
    <glyph glyph-name="asciicircum" unicode="^" horiz-adv-x="267" 
d="M191 500q-7 -9 -29 -36t-36 -45t-24 -35q-8 -14 -18 -4q-10 9 -12.5 27t12.5 50q47 75 113 150q9 11 22 2q21 -15 25 -49q11 -93 29 -161q2 -9 0.5 -11.5t-9.5 -3.5q-16 -1 -32.5 8.5t-23.5 35.5q-12 42 -17 72z" />
    <glyph glyph-name="underscore" unicode="_" horiz-adv-x="366" 
d="M433 -72q17 0 12 -14q-7 -16 -28 -27.5t-52 -11.5h-432q-15 0 -11 14q5 16 26.5 27.5t52.5 11.5h432z" />
    <glyph glyph-name="grave" unicode="`" horiz-adv-x="77" 
d="M-44 505q36 19 71 0q35 -18 88 -61q11 -9 -1 -14q-26 -10 -52 1q-13 5 -107 59q-13 8 1 15z" />
    <glyph glyph-name="a" unicode="a" horiz-adv-x="407" 
d="M324 325q22 41 36 61t24 6q13 -15 14 -43.5t-15 -67.5q-9 -19 -46 -81.5t-50 -91.5q-13 -28 -17 -50t2 -35t23 -12q29 1 66 42t65 97q9 16 16 1q10 -22 -9 -62q-21 -44 -62.5 -76.5t-81.5 -30.5t-61 24t-21 58q-61 -78 -125 -78q-46 0 -67.5 36.5t-11.5 94.5t50 117
q57 83 112.5 123t97.5 40q31 0 47 -20.5t14 -51.5zM237 170q30 53 45 93t14 60t-16 22q-25 2 -72.5 -42t-87.5 -109q-26 -42 -39 -82.5t-10 -66.5t22 -26q29 -1 66 39.5t78 111.5z" />
    <glyph glyph-name="b" unicode="b" horiz-adv-x="352" 
d="M312 151q-35 -78 -79 -120t-88 -42q-76 0 -105 71q-4 -10 -14 -33t-15 -33q-6 -16 -16 -3q-29 38 -5 110q20 63 130.5 270.5t161.5 278.5q13 19 25 -1q27 -51 -26 -148q-7 -14 -40 -69t-49 -83q47 42 86 42q62 0 69.5 -74.5t-35.5 -165.5zM263 350q-31 3 -73 -40
q-61 -64 -130 -207q2 -24 12.5 -43.5t29.5 -23.5q63 -14 139 138q27 53 36 94.5t4 61t-18 20.5z" />
    <glyph glyph-name="c" unicode="c" horiz-adv-x="311" 
d="M247 386q38 -23 55 -55q5 -16 6 -26.5t-5 -28.5t-11.5 -30.5t-14.5 -31.5t-14 -32q-5 -16 -21 -8q-44 22 -24 87q3 9 8.5 22t10 22t8.5 20t4 16t-4 10q-9 7 -32.5 -9t-53.5 -52.5t-51 -79.5q-39 -85 -30 -140.5t55 -56.5q57 -1 108 41.5t89 100.5q4 6 9.5 6t8.5 -7
q7 -20 -18 -60q-29 -45 -83 -76.5t-110 -32.5q-94 -1 -124.5 76.5t19.5 174.5q46 90 110.5 132t104.5 18z" />
    <glyph glyph-name="d" unicode="d" horiz-adv-x="401" 
d="M277 108q-14 -29 -18.5 -51t1.5 -34.5t23 -11.5q29 1 65.5 41.5t64.5 96.5q9 16 16 1q10 -24 -8 -62q-21 -43 -62.5 -75t-81.5 -30q-81 5 -81 80q-62 -77 -124 -77q-46 0 -67 36.5t-11.5 94.5t49.5 116q55 81 111 121t98 40q29 0 45 -19.5t15 -48.5q112 213 166 290
q16 22 24 0q23 -54 -31 -151q-9 -16 -42.5 -75t-55.5 -98.5t-50.5 -93t-45.5 -90.5zM268 343q-24 1 -71.5 -42.5t-87.5 -107.5q-26 -42 -39 -82.5t-9.5 -66t22.5 -25.5q30 -1 67.5 39.5t73.5 109.5q84 160 49 174z" />
    <glyph glyph-name="e" unicode="e" horiz-adv-x="320" 
d="M92 171q-23 -69 -9.5 -112.5t54.5 -45.5q56 -3 108 39.5t91 102.5q10 15 17 -1q4 -7 -0.5 -25.5t-16.5 -36.5q-32 -47 -85.5 -77t-110.5 -31q-94 -1 -125 77t19 175q46 92 111.5 133.5t105.5 18.5q38 -23 59 -52q15 -16 6.5 -58t-38.5 -78q-26 -31 -54.5 -47t-63 -12.5
t-68.5 30.5zM101 193q55 -34 119 50q25 32 37.5 64.5t2.5 40.5q-11 9 -37.5 -6t-59 -51t-54.5 -81q-6 -12 -8 -17z" />
    <glyph glyph-name="f" unicode="f" horiz-adv-x="245" 
d="M106 184q54 -17 52 -116q0 -10 -2 -34q60 40 104 127q3 6 7 8t8 0t6 -9q6 -19 -10 -60q-9 -23 -44.5 -56.5t-75.5 -47.5q-12 -76 -42 -151.5t-66 -120.5q-25 -31 -46 -35.5t-43 15.5q-57 48 -44 145q13 102 85 263.5t143.5 283t140.5 225.5q6 9 14 8.5t11 -9.5
q20 -58 -34 -150q-115 -191 -164 -286zM101 18q7 36 9 72q0 18 -2.5 34t-6 24.5t-7.5 6.5q-7 -3 -13 -31t-7 -49q-2 -51 27 -57zM34 29q-45 -106 -65 -185.5t-4 -100.5q15 -20 55 49q48 86 75 197q-43 4 -61 40z" />
    <glyph glyph-name="g" unicode="g" horiz-adv-x="401" 
d="M415 90q-51 -79 -194 -131q-25 -61 -45 -104.5t-47.5 -94t-56.5 -83t-58 -43.5q-34 -14 -58 21q-41 59 -20 124q39 122 214 189q6 12 15.5 35.5t13.5 33.5q-50 -50 -101 -50q-45 0 -66.5 36t-11.5 93.5t49 115.5q55 81 111 121t99 40q29 0 44.5 -19t14.5 -47l33 55
q13 22 25 6q13 -15 14 -43t-16 -67q-109 -218 -135 -278q106 53 179 150q3 4 6.5 5.5t6.5 -0.5t4 -7q4 -19 -20 -58zM231 168q74 128 56 165q-4 8 -13 9q-24 2 -71.5 -42t-87.5 -107q-26 -42 -39 -83t-9.5 -66.5t23.5 -25.5q28 -1 64 39.5t77 110.5zM133 -73
q-60 -35 -101 -88.5t-53.5 -94.5t-2.5 -54q7 -10 31.5 17.5t59.5 87.5t66 132z" />
    <glyph glyph-name="h" unicode="h" horiz-adv-x="377" 
d="M399 91q-22 -44 -63.5 -75.5t-84.5 -31.5q-61 0 -80 41.5t5 106.5q14 41 44 93t48.5 82.5t11.5 34.5q-8 4 -39.5 -14.5t-73 -57.5t-68.5 -83q-63 -103 -97 -190q-7 -16 -17 -4q-29 33 -4 106q26 74 144 275t180 278q15 20 24 -1q25 -55 -28 -142q-9 -16 -120 -188
q32 31 66 51.5t54 18.5q28 -3 42 -34.5t-3 -70.5q-8 -16 -44 -78t-49 -91q-12 -29 -15 -53t5.5 -37.5t26.5 -12.5q29 1 65 43t62 95q3 7 9 7t9 -6q10 -22 -10 -62z" />
    <glyph glyph-name="i" unicode="i" horiz-adv-x="201" 
d="M232 459q19 -39 -7 -67q-9 -11 -27 -7.5t-29 22.5q-11 21 -9.5 41t14.5 33q12 13 30 5.5t28 -27.5zM69 -15q-55 0 -72.5 42.5t5.5 103.5q18 51 58 125.5t70 117.5q13 18 24 6q13 -14 14 -42t-15 -67q-8 -16 -40 -75t-44 -87q-18 -44 -16 -70t26 -25q32 1 69 42t61 95
q8 15 16 0q12 -23 -7 -62q-22 -46 -64 -75t-85 -29z" />
    <glyph glyph-name="j" unicode="j" horiz-adv-x="178" 
d="M230 461q17 -38 -6 -65q-9 -12 -27 -8t-29 23q-23 41 5 72q12 13 30 6t27 -28zM9 -19q112 58 189 172q3 4 6 5.5t6 0t4 -6.5q7 -22 -15 -59q-49 -87 -208 -154q-26 -62 -46.5 -105t-49 -94t-57.5 -83t-57 -43q-35 -14 -57 19q-10 15 -15 24.5t-11 26t-5 34.5t8 39
q42 123 217 190q124 297 211 430q12 19 24 6q12 -14 12.5 -42.5t-15.5 -67.5q-10 -22 -63 -129.5t-78 -162.5zM-99 -95q-60 -34 -101 -88t-53.5 -95t-2.5 -54q7 -9 32 19.5t60 88t65 129.5z" />
    <glyph glyph-name="k" unicode="k" horiz-adv-x="367" 
d="M182 347q42 41 89 57q52 18 82 -44q32 -66 -21 -117q-58 -57 -139 -81q3 -61 22 -100.5t48 -42.5q28 -3 64 39t62 96q5 9 10.5 9.5t9.5 -8.5q10 -24 -12 -61q-61 -106 -149 -105q-57 1 -92.5 49t-34.5 144q0 14 3.5 18.5t17.5 8.5q58 19 102.5 51.5t62.5 60.5t10 42
q-7 14 -38 5t-70 -39q-54 -41 -94.5 -111.5t-102.5 -217.5q-2 -6 -7.5 -7t-10.5 5q-26 30 -1 110q22 73 120.5 264t162.5 277q15 20 25 1q25 -50 -29 -143q-31 -53 -90 -160z" />
    <glyph glyph-name="l" unicode="l" horiz-adv-x="230" 
d="M98 200q-21 -50 -30 -90.5t-3.5 -66.5t27.5 -28q35 -3 81 41t76 104q3 6 7.5 8.5t8.5 0.5t6 -9q7 -24 -10 -62q-15 -32 -64.5 -72t-102.5 -39q-54 2 -77 41t-6 117q26 123 98 249t155 212q23 24 43 5q42 -37 23 -110q-22 -86 -90 -169.5t-142 -131.5zM116 243
q62 50 108.5 117.5t63 112t8.5 49.5q-10 6 -57 -64t-99 -167q-14 -24 -24 -48z" />
    <glyph glyph-name="m" unicode="m" horiz-adv-x="565" 
d="M158 284q35 41 82 75.5t73 33.5q25 -1 37 -32.5t2 -65.5q39 38 81.5 66t66.5 27q26 -1 33 -37t-9 -73q-10 -25 -46 -82.5t-46 -78.5q-20 -43 -13 -73t35 -29q49 1 125 137q9 15 18 2q4 -4 1.5 -25.5t-10.5 -37.5q-22 -44 -65 -75.5t-85 -31.5q-64 0 -87.5 45t5.5 106
q15 34 47 85t51 82t13 33q-5 2 -16.5 -2.5t-36 -22.5t-54.5 -48q-94 -94 -174 -273q-10 -20 -23 -5q-39 34 -2 126q13 34 49 91.5t58.5 95.5t13.5 41q-6 3 -23 -5.5t-44.5 -31t-57.5 -55.5q-75 -81 -147 -251q-7 -16 -19 -5q-34 30 -10 103q16 48 63.5 138.5t93.5 159.5
q11 17 21 0q24 -40 -1 -107z" />
    <glyph glyph-name="n" unicode="n" horiz-adv-x="384" 
d="M160 294q38 41 80.5 71t65.5 27q27 -4 41 -35.5t-2 -70.5q-9 -19 -44.5 -80.5t-48.5 -89.5q-13 -29 -15.5 -53t5.5 -37.5t26 -12.5q55 3 128 138q8 15 17 1q12 -19 -9 -63q-21 -43 -63.5 -75t-84.5 -32q-62 0 -81 42t5 107q14 41 44.5 94t48.5 84t10 34q-6 2 -24 -6.5
t-48.5 -32t-59.5 -55.5q-28 -30 -56 -76.5t-44.5 -80.5t-45.5 -97q-7 -16 -19 -4q-33 33 -10 103q15 46 63 134.5t97 160.5q11 17 21 0q21 -35 3 -95z" />
    <glyph glyph-name="o" unicode="o" horiz-adv-x="332" 
d="M342 215q-10 -11 -27 -13q-17 -68 -61 -130.5t-97 -80.5q-73 -24 -126 44q-31 47 -25.5 104.5t41.5 120.5q30 54 73 90.5t86 39.5q41 3 68 -34q5 -7 17 -19.5t18 -20.5t10 -26.5t2 -43.5q-1 -4 -1 -11.5t-1 -11.5q3 0 9.5 1t10.5 1q11 0 3 -10zM256 242q12 48 8 74
q-2 15 -8.5 19.5t-13 -2t-8.5 -20.5q-8 -43 22 -71zM249 215q-9 4 -19 12q-18 13 -31.5 37.5t-14.5 50.5q-47 -40 -77 -94q-31 -57 -41 -115.5t10 -74.5q22 -18 62.5 10t75.5 94q22 41 35 80z" />
    <glyph glyph-name="p" unicode="p" horiz-adv-x="389" 
d="M209 4q125 8 190 146q5 10 11 9t8 -9q7 -30 -13 -66q-54 -98 -178 -107q-94 -6 -141 37q-29 26 -34 67q-80 -146 -146 -299q-7 -16 -17 -2q-25 34 -1 110q22 71 117.5 252.5t143.5 245.5q15 20 24 -1q7 -19 6 -45q91 79 146 21q60 -64 -11 -222q-46 -101 -105 -137z
M108 181q-20 -49 -21 -88t19 -58q23 -19 65 24.5t79 118.5q29 60 36.5 113t-11.5 62q-18 9 -58.5 -25t-74.5 -90q-22 -36 -34 -57z" />
    <glyph glyph-name="q" unicode="q" horiz-adv-x="373" 
d="M154 10q-37 -25 -72 -25q-34 0 -55 22t-25.5 56t8.5 80t43 90q55 81 111.5 121t98.5 40q31 0 47 -21t14 -51q27 48 43 64q13 13 25 -3q23 -48 -22 -128q-191 -341 -259 -504q-7 -16 -18 -4q-13 15 -16 30.5t7 61.5q20 69 70 171zM237 168q73 127 56 165q-4 9 -13 10
q-25 2 -72.5 -42t-87.5 -108q-26 -42 -39.5 -83.5t-10 -67.5t22.5 -26q57 0 144 152z" />
    <glyph glyph-name="r" unicode="r" horiz-adv-x="330" 
d="M165 316q46 6 103 46q18 12 27 2q11 -12 19 -27t8 -35.5t-13 -35.5q-90 -103 -110 -166q-12 -39 -4.5 -65t29.5 -27q28 -1 61 37t58 95q7 14 14 1q11 -24 -5 -62q-17 -43 -55.5 -71.5t-78.5 -26.5q-53 2 -74 44.5t-2 99.5q24 73 120 183q-58 -38 -117 -38
q-6 -11 -48 -81.5t-69 -125.5t-36 -96q-4 -18 -17 -5q-45 46 -2 127q19 36 127 191q-22 14 -19 40t17.5 51.5t34.5 45t34 19.5q22 -3 20 -36t-22 -84z" />
    <glyph glyph-name="s" unicode="s" horiz-adv-x="302" 
d="M39 164q77 105 115 172q6 50 36 77q16 14 32 18t22 -3q11 -11 -8 -44q-1 -1 -11 -19q-4 -51 3 -130.5t6 -108.5q-4 -78 -45 -105q84 31 134 139q4 8 10 7.5t9 -7.5q10 -22 -14 -66q-28 -51 -75 -79.5t-102 -30.5q-105 -4 -148 75q-19 33 -15.5 75.5t28.5 63.5
q19 16 21 -10q1 -4 1 -12t1 -12zM152 272q-35 -64 -104 -162q12 -45 32.5 -70.5t44.5 -18.5q9 3 16 13.5t10 29.5t5 35.5t1.5 45.5t-1 44t-2.5 45.5t-2 37.5z" />
    <glyph glyph-name="t" unicode="t" horiz-adv-x="214" 
d="M125 389q-46 0 -65 26q-7 10 -4 15.5t15 4.5q36 -1 83 4q53 95 76 124q7 10 13.5 9.5t10.5 -9.5q18 -46 -13 -113q43 1 62 -30q11 -19 -12 -19q-29 4 -78 -4q-98 -168 -134 -248q-24 -55 -18 -95t38 -42q32 -1 70.5 41t68.5 103q3 6 7 8.5t8 0.5t6 -9q6 -20 -10 -57
q-15 -34 -61 -75t-98 -39q-54 2 -78 53.5t7 137.5q34 80 106 213z" />
    <glyph glyph-name="u" unicode="u" 
d="M196 81q-74 -99 -144 -94q-34 2 -49.5 25t-14.5 53.5t13 66.5q39 116 138 255q12 17 26 1q34 -51 -19 -135q-45 -72 -78 -147q-16 -37 -14 -61t19 -26q50 -4 148 154q31 50 69.5 121t54.5 93q14 20 25 6q13 -15 14 -44t-15 -68q-9 -19 -45.5 -81t-49.5 -90t-16 -50.5
t4.5 -35t25.5 -11.5q57 3 132 138q4 7 9.5 7.5t8.5 -6.5q11 -22 -9 -63q-23 -44 -65 -75.5t-85 -31.5q-47 0 -68 27t-15 72z" />
    <glyph glyph-name="v" unicode="v" horiz-adv-x="300" 
d="M68 29q52 86 136 198t136 165q16 16 19 -4q4 -30 -41 -87q-7 -8 -56.5 -67t-93.5 -117.5t-87 -126.5q-10 -15 -20 -10q-30 15 -41 34t-9 58q3 55 22 148.5t43 168.5q7 19 20 8q24 -21 29.5 -51t-5.5 -75q-4 -19 -17 -67t-21 -87t-14 -88z" />
    <glyph glyph-name="w" unicode="w" horiz-adv-x="490" 
d="M403 174q8 70 31 123.5t43 75t33 24.5q10 1 14 -8.5t1 -25.5q-13 -65 -87 -190q-114 -192 -206 -189q-31 1 -48.5 25t-15.5 58q-64 -82 -122 -78q-45 3 -56.5 45.5t9.5 97.5q44 126 139 255q13 18 24 1q36 -49 -18 -135q-55 -87 -82 -152q-15 -37 -14 -60.5t18 -22.5
q24 1 49.5 32t66.5 98q5 8 8.5 13.5t6.5 11.5q31 49 70 120.5t56 93.5q13 18 25 6q12 -16 13 -44t-15 -68q-10 -20 -47 -83t-50 -91q-20 -43 -18.5 -67t23.5 -25q26 -1 67 43.5t82 115.5z" />
    <glyph glyph-name="x" unicode="x" horiz-adv-x="391" 
d="M174 180q-25 169 -37 170q-11 1 -36.5 -28t-45.5 -75q-3 -7 -8.5 -7.5t-7.5 5.5q-7 20 6 54q15 38 53 67t74 23q23 -4 34.5 -20t18.5 -50q8 -39 14 -86q97 79 150 147q7 10 13.5 10t6.5 -12q0 -39 -54 -101q-21 -24 -109 -95q3 -19 8.5 -57t8.5 -52q11 -53 32 -55
q25 -1 53.5 37.5t55.5 94.5q3 7 8 7.5t7 -5.5q11 -25 -9 -63q-23 -46 -59.5 -75.5t-72.5 -29.5q-40 0 -62 26.5t-31 87.5q0 2 -1.5 12t-2.5 17q-86 -72 -138 -137q-4 -5 -10 -7.5t-10 0t-3 10.5q4 43 60 104q25 27 94 83z" />
    <glyph glyph-name="y" unicode="y" horiz-adv-x="375" 
d="M386 97q-47 -75 -192 -134q-26 -63 -45.5 -105.5t-48 -94t-57.5 -84t-59 -43.5q-34 -13 -57 21q-9 14 -14.5 24.5t-10.5 26t-3.5 34t8.5 39.5q40 121 214 189q2 6 13.5 32t17.5 40q-57 -59 -109 -55q-50 4 -61 50t10 95q42 123 136 253q13 18 25 0q35 -47 -19 -133
q-52 -83 -77 -146q-15 -37 -13.5 -61t18.5 -25q51 -4 140 148q14 24 57.5 105t63.5 110q13 18 25 7q12 -16 13 -43.5t-17 -68.5q-86 -165 -133 -275q107 58 177 154q4 6 9.5 5.5t6.5 -7.5q5 -23 -18 -58zM104 -72q-60 -34 -101 -88t-53.5 -94.5t-2.5 -54.5q7 -10 32 18.5
t60.5 89t64.5 129.5z" />
    <glyph glyph-name="z" unicode="z" horiz-adv-x="353" 
d="M205 3q7 34 -6 51q-9 15 -49 8.5t-76 -31.5q-13 -9 -17 1q-20 58 43 94q71 41 120 86.5t65 80t2 51.5q-21 26 -102 -18t-138 -115q-5 -6 -9 -4.5t-6 7.5q-6 21 4.5 51.5t36.5 56.5q65 63 145 73q36 5 58.5 -2.5t40.5 -33.5q40 -57 -4 -133q-38 -65 -148 -134q40 2 63 -20
q19 -18 26 -49q72 38 120 129q3 6 9 6.5t9 -6.5q9 -19 -14 -62q-30 -55 -122 -95q0 -75 -57.5 -169.5t-109.5 -123.5q-38 -21 -66 14q-10 13 -16 22t-12 24.5t-5 33t10 37.5q45 104 205 170zM196 -30q-61 -34 -102 -84t-53 -86.5t-1 -49.5q9 -10 40 24t65.5 91t50.5 105z
" />
    <glyph glyph-name="braceleft" unicode="{" horiz-adv-x="193" 
d="M139 310q37 -40 0 -112q-6 -13 -34.5 -58.5t-43 -79.5t-10.5 -55q2 -10 -2.5 -13.5t-12.5 1.5q-24 15 -32 42.5t5 66.5q14 34 47 85.5t40 68.5q13 35 -4 51q-6 7 -4.5 15t11.5 9q31 2 52 32q14 19 51 100t55 109q38 57 108 44q6 -1 8 -4t0 -7t-7 -7q-23 -16 -47 -54
t-53 -97t-32 -65q-38 -69 -95 -72z" />
    <glyph glyph-name="bar" unicode="|" horiz-adv-x="224" 
d="M309 644q15 21 24 -1q23 -51 -33 -150q-206 -363 -270 -523q-6 -15 -17 -2q-28 31 -2 107q26 75 129 272.5t169 296.5z" />
    <glyph glyph-name="braceright" unicode="}" horiz-adv-x="306" 
d="M224 295q-36 37 0 106q5 10 36 60.5t46 86t10 55.5q-3 10 1 13t14 -1q27 -11 36.5 -34.5t-0.5 -55.5q-14 -41 -54 -103t-45 -76q-13 -35 5 -53q6 -7 2 -13t-16 -9q-25 -6 -46 -34q-15 -19 -49.5 -96t-52.5 -104q-39 -58 -109 -45q-9 2 -9 7.5t9 10.5q21 13 44.5 50
t52.5 96.5t32 65.5q37 67 93 73z" />
    <glyph glyph-name="nonbreakingspace" unicode="&#xa0;" horiz-adv-x="220" 
 />
    <glyph glyph-name="exclamdown" unicode="&#xa1;" horiz-adv-x="317" 
d="M311 530q-16 34 7 64q9 12 27 7.5t28 -21.5q11 -20 9.5 -40t-14.5 -33q-11 -12 -29 -5t-28 28zM86 -33q-6 -9 -13.5 -8.5t-11.5 10.5q-24 53 30 151q124 222 190 367q7 14 17 4q31 -33 3 -109q-31 -83 -96 -209t-119 -206z" />
    <glyph glyph-name="cent" unicode="&#xa2;" horiz-adv-x="353" 
d="M307 482q23 43 60 103q9 15 18 2q17 -26 -14 -89l-21 -42q22 -19 31 -39q4 -16 5 -26.5t-5.5 -28t-13 -29.5t-16 -30t-14.5 -30q-7 -18 -23 -8q-39 26 -16 83q3 7 9 19.5t10 22t8 19.5t4 17t-5 10q-23 15 -84 -35.5t-92 -119.5q-26 -62 -21 -103t35 -52q29 -11 67.5 11
t63.5 63q8 14 16 2q16 -28 -14 -67q-24 -31 -62 -42.5t-77 -0.5q-30 -57 -46 -92q-6 -16 -14 -3q-16 25 4 74q1 5 15 39q-48 33 -54.5 94t33.5 131q44 77 106.5 117t106.5 30z" />
    <glyph glyph-name="sterling" unicode="&#xa3;" horiz-adv-x="355" 
d="M380 361q-37 -37 -77 -28q-17 3 -5 15q32 34 51.5 76t6.5 50q-12 7 -41 -8t-61 -43q-27 -24 -42.5 -54.5t-12.5 -53.5q15 4 31 4q22 1 38.5 -10.5t22.5 -28.5q3 -10 -6 -10q-26 0 -75 -7q7 -46 -24 -79q39 5 44 5q57 6 76 -39q5 -12 -8 -12q-77 -3 -174 -35q-18 -6 -28 6
q-18 22 -25 31q-12 15 5 24q80 42 98 90q-24 -7 -38 -8q-50 -4 -67 35q-6 13 7 13q27 -1 89 15q0 1 -4.5 14t-5.5 17t-3.5 16.5t-0.5 20t5 21t10 24t19 25t28 28.5q22 20 47 32.5t57 13t58 -19.5q28 -21 34 -49.5t-3 -51t-26 -39.5z" />
    <glyph glyph-name="currency" unicode="&#xa4;" horiz-adv-x="358" 
d="M231 452q38 0 71 -32q62 64 85 81q11 7 17.5 4.5t7.5 -12.5q3 -28 -23 -56q-7 -8 -51 -52q24 -27 24 -64q1 -53 -27 -104t-71 -76q11 -59 13 -88q1 -20 -10 -26q-11 -5 -16 7q-14 27 -32 90q-55 -9 -105 30q-55 -56 -78 -72q-19 -13 -31 -7q-9 5 0 19q11 17 78 90
q-48 67 1 163q30 55 75 83q-17 70 -17 96q-1 13 5 17.5t15 1.5q26 -8 33 -41l11 -55q12 3 25 3zM273 246q27 53 27 100.5t-19 57.5q-25 15 -66 -10.5t-67 -77.5q-23 -47 -22 -92t24 -59q25 -15 60.5 6t62.5 75z" />
    <glyph glyph-name="yen" unicode="&#xa5;" horiz-adv-x="355" 
d="M325 231q-47 4 -117 -9q-22 -45 -49 -120q-5 -13 -19 -3q-32 24 -14 88q2 8 9 26h-13q-51 0 -65 38q-4 13 8 13q30 0 90 8q-11 116 -4 225q1 23 20 14q25 -12 33 -31t8 -61q0 -7 -0.5 -49t-0.5 -70q117 144 195 212q19 16 19 -5q0 -34 -44 -84q-15 -16 -34 -36.5
t-48.5 -51t-49.5 -51.5q6 1 20 1q49 0 64 -44q2 -5 0 -8t-8 -2z" />
    <glyph glyph-name="brokenbar" unicode="&#xa6;" horiz-adv-x="224" 
d="M309 644q15 21 24 -1q23 -51 -33 -150q-48 -84 -67 -129q-4 -17 -8.5 -20t-11.5 4q-34 24 -7 128q9 23 45 81.5t58 86.5zM110 294q22 19 30 -1q20 -35 -16 -123q-70 -137 -94 -200q-6 -15 -17 -2q-28 31 -2 107q8 29 42.5 104.5t56.5 114.5z" />
    <glyph glyph-name="section" unicode="&#xa7;" horiz-adv-x="476" 
d="M422 187q0 -40 -38.5 -72t-99.5 -44q47 -33 47 -62q0 -35 -42.5 -69.5t-111.5 -35.5q-121 -2 -210 105q-15 17 2 23q54 16 101 -21q72 -57 133 -57q24 0 38 10t14 25q0 20 -30.5 44t-67 43t-67 49.5t-30.5 62.5q0 42 38 85t100 63q-16 24 -16 51q0 63 59 127.5t147 97.5
q54 19 84.5 14t53.5 -33q29 -37 29 -69t-29 -71q-32 -44 -69 -111q-9 -16 -22 -3q-37 37 -10 97q8 17 31 49t35 54.5t4 30.5q-10 5 -35 3t-59 -19t-65 -39t-52.5 -56t-21.5 -70q0 -25 25 -52.5t55 -48t55 -48.5t25 -53zM345 177q0 17 -14.5 34t-49 44t-46.5 37
q-45 -18 -70 -46t-25 -54q0 -16 13.5 -32.5t28.5 -26.5t43 -27q56 4 88 25t32 46z" />
    <glyph glyph-name="dieresis" unicode="&#xa8;" horiz-adv-x="181" 
d="M117 473q8 16 21 25t24 4q12 -5 15.5 -19t-3.5 -29q-7 -16 -20.5 -25t-24.5 -4q-12 5 -15.5 19t3.5 29zM8 473q7 16 20 24t25 3q27 -13 11 -47q-5 -15 -19 -23.5t-25 -4.5q-12 4 -15.5 18t3.5 30z" />
    <glyph glyph-name="copyright" unicode="&#xa9;" horiz-adv-x="550" 
d="M495 612q53 -23 74 -73.5t14 -105.5t-33 -107q-37 -75 -100 -117.5t-132 -39.5q-88 4 -113.5 71t26.5 152q46 78 102.5 113.5t90.5 15.5q32 -20 45 -49q4 -14 4.5 -23t-5.5 -25.5t-11 -27.5t-14 -28t-13 -28q-4 -9 -7 -10.5t-12 2.5q-16 8 -21 27.5t5 47.5q3 8 8.5 19
l9 18t7 16t3 13t-3.5 8q-8 6 -28 -6t-46 -41t-47 -65q-39 -71 -32.5 -119t48.5 -50q49 -3 96.5 36.5t80.5 102.5q20 38 31.5 84t4.5 94t-43 68q-53 30 -138 -8t-146 -131q-61 -98 -59.5 -191.5t58.5 -127.5q47 -23 93.5 -17t85.5 32q5 3 7.5 4t4 -1.5t1.5 -8.5
q-2 -33 -46 -51q-81 -33 -162 15q-92 55 -97 171q-3 67 24 133t70 114t92 81t91 42q86 19 132 -29z" />
    <glyph glyph-name="guillemotleft" unicode="&#xab;" horiz-adv-x="294" 
d="M307 323q-11 -17 -37 -43t-46 -40q22 -48 23.5 -82.5t-15.5 -45.5q-13 -10 -18 7q-16 59 -48 118q-11 20 11 36q80 57 123 112q12 15 19 -2q11 -27 -12 -60zM169 317q-27 -37 -65 -64q22 -49 30 -78q11 -42 -8 -61q-14 -14 -20 4q-18 58 -58 126q-16 27 10 44
q65 43 107 91q12 14 19 -3q10 -25 -15 -59z" />
    <glyph glyph-name="logicalnot" unicode="&#xac;" horiz-adv-x="349" 
d="M127 251q-56 3 -65 51q-2 7 0 11t10 3q31 -2 108.5 3.5t94.5 5.5q44 0 62 -27q20 -29 4 -54q-28 -44 -50 -98q-7 -16 -20 -6q-38 29 -13 84q9 20 19 37q-18 -1 -74.5 -6t-75.5 -4z" />
    <glyph glyph-name="registered" unicode="&#xae;" horiz-adv-x="567" 
d="M563 324q-27 -66 -72.5 -101t-93.5 -35q-46 0 -80 30t-49 87q-24 -43 -55 -107q-7 -16 -16 -3q-24 32 -2 88q24 64 98 186q-14 10 -21 24q-6 12 8 15q21 4 65.5 20.5t66.5 17.5q57 2 76 -53q19 -53 -20 -104q-20 -26 -58.5 -49t-78.5 -34q10 -40 29.5 -63t39.5 -24
q24 -1 52.5 26.5t55.5 87.5q38 89 25 160t-62 92q-54 23 -134 -14.5t-144 -126.5q-43 -61 -58.5 -127.5t-2 -117t50.5 -69.5q45 -19 93.5 -8.5t81.5 39.5q15 13 15 -3q0 -35 -40 -59q-25 -15 -57 -17.5t-55 2t-40 12.5q-108 47 -108 177q0 67 28.5 132t72.5 111.5t93 78.5
t91 41q86 18 133 -28q40 -18 64 -51.5t29.5 -73.5t0 -80.5t-21.5 -78.5zM455 481q-1 4 -5 6t-9.5 2t-11.5 -0.5t-14.5 -3.5t-15 -5t-17 -5.5t-15.5 -5.5q-50 -79 -69 -111q71 19 118.5 58.5t38.5 64.5z" />
    <glyph glyph-name="macron" unicode="&#xaf;" horiz-adv-x="220" 
d="M46 429q-40 0 -46 38q-1 7 0 9.5t7 1.5q25 -2 85 2.5t82 4.5q40 0 46 -38q1 -6 -0.5 -8.5t-7.5 -1.5q-23 3 -88.5 -2.5t-77.5 -5.5z" />
    <glyph glyph-name="degree" unicode="&#xb0;" horiz-adv-x="302" 
d="M258 613q32 0 54 -30q26 -35 23 -75q-2 -49 -32.5 -95.5t-72.5 -54.5q-47 -8 -78 35q-19 30 -17 69t22 78q18 34 45 53.5t56 19.5zM285 565q-10 12 -35 -6.5t-44 -50.5q-17 -30 -23.5 -63t3.5 -44q11 -11 31 3t41 49q20 34 27.5 69.5t-0.5 42.5z" />
    <glyph glyph-name="plusminus" unicode="&#xb1;" horiz-adv-x="314" 
d="M138 239q-64 0 -76 53q-2 7 1 11t11 3q37 -3 98 3q32 57 54 97q9 17 23 1q30 -34 1 -93q66 -1 71 -54q1 -8 -1.5 -11t-10.5 -2q-42 4 -96 -2q-38 -65 -49 -93q-6 -17 -20 -6q-21 17 -21 42q0 20 15 51zM65 50q-63 1 -73 49q-2 7 0 11t10 3q30 -2 87 3t75 5q59 0 75 -50
q2 -7 -0.5 -11t-10.5 -3q-42 3 -95 -2t-68 -5z" />
    <glyph glyph-name="acute" unicode="&#xb4;" horiz-adv-x="181" 
d="M174 504q14 -9 0 -16q-11 -5 -37.5 -18.5t-46 -22.5t-31.5 -13q-32 -10 -52 -1q-13 6 1 16q61 43 95 58q38 17 71 -3z" />
    <glyph glyph-name="mu" unicode="&#xb5;" 
d="M196 81q-74 -99 -144 -94q-28 3 -42 16q-59 -115 -104 -221q-7 -16 -17 -2q-29 41 -1 110q37 89 114.5 245t136.5 252q11 18 26 1q34 -51 -19 -135q-45 -72 -78 -147q-4 -9 -7 -21t-5.5 -28t2 -26.5t15.5 -11.5q50 -4 148 154q31 50 69.5 121t54.5 93q14 20 25 6
q13 -15 14 -44t-15 -68q-9 -19 -45.5 -81t-49.5 -90t-16 -50.5t4.5 -35t25.5 -11.5q57 3 132 138q4 7 9.5 7.5t8.5 -6.5q11 -22 -9 -63q-23 -44 -65 -75.5t-85 -31.5q-47 0 -68 27t-15 72z" />
    <glyph glyph-name="paragraph" unicode="&#xb6;" horiz-adv-x="471" 
d="M621 551h-16.5h-20h-18.5q-4 -30 -35 -83q-165 -275 -241 -465q-6 -15 -17 -2q-25 29 -5 99q21 71 90.5 207.5t139.5 239.5q-15 -1 -50 -7q-201 -334 -284 -543q-7 -18 -18 -4q-26 32 -6 99q15 53 59 144q-85 16 -96 100q-11 86 67 162q60 58 161.5 91t214.5 31
q35 -1 57 -17t30 -37q6 -15 -12 -15z" />
    <glyph glyph-name="middot" unicode="&#xb7;" horiz-adv-x="134" 
d="M56 258q9 20 25.5 30t31.5 5t19 -22.5t-4 -37.5t-25 -30t-32 -5t-19 23.5t4 36.5z" />
    <glyph glyph-name="guillemotright" unicode="&#xbb;" horiz-adv-x="357" 
d="M78 182q11 17 37 43t46 40q-43 95 -6 122q13 10 18 -7q15 -55 46 -112q11 -20 -11 -36q-71 -51 -124 -112q-12 -14 -19 2q-11 26 13 60zM216 188q25 34 65 64q-20 39 -30 78q-10 43 8 61q14 14 20 -4q18 -58 58 -126q16 -27 -10 -44q-65 -43 -107 -91q-12 -14 -19 3
q-10 25 15 59z" />
    <glyph glyph-name="onequarter" unicode="&#xbc;" horiz-adv-x="540" 
d="M531 257q-35 -53 -66 -113q9 -10 11 -21q1 -4 -0.5 -6t-5.5 -1q-6 1 -19 1q-35 -68 -58 -126q-4 -9 -12 -2q-29 23 -11 77q5 17 20 47q-17 -2 -88 -15q-18 -4 -26 8q-9 12 -14 24q-5 10 2 18q33 39 102.5 96.5t124.5 92.5q17 10 26 -2q12 -15 19 -37q7 -23 -5 -41z
M492 585q24 25 27 4q6 -43 -51 -111q-3 -3 -106 -121.5t-176 -207t-114 -148.5q-11 -16 -17 2q-12 33 24 90q41 65 177 226t236 266zM309 142q50 15 104 18q38 75 74 125q-100 -67 -178 -143zM106 327q20 63 101 197q-32 -3 -30 7l3 5q8 7 19 17.5t24 24.5t18 19q8 8 15 1
q36 -36 11 -84q-9 -17 -38 -67t-55 -99.5t-44 -95.5q-4 -9 -12 -2q-29 23 -12 77z" />
    <glyph glyph-name="onehalf" unicode="&#xbd;" horiz-adv-x="530" 
d="M492 585q24 25 27 4q6 -43 -51 -111q-3 -3 -106 -121.5t-176 -207t-114 -148.5q-11 -16 -17 2q-12 33 24 90q41 65 177 226t236 266zM106 327q20 63 101 197q-32 -3 -30 7l3 5q8 7 19 17.5t24 24.5t18 19q8 8 15 1q36 -36 11 -84q-9 -17 -38 -67t-55 -99.5t-44 -95.5
q-4 -9 -12 -2q-29 23 -12 77zM419 249q-14 -23 -36 -30t-37 -1q-6 2 -3 12q20 54 66 91q21 17 46 20t50 -15q44 -37 10 -105q-21 -42 -79 -94t-125 -85q39 14 74 14q39 0 51 -35q3 -8 -6 -8q-78 0 -143 -21q-18 -5 -27 4q-13 13 -18 33q-4 16 8 23q104 58 167 125.5
t63 111.5q0 15 -10 15q-16 0 -51 -55z" />
    <glyph glyph-name="threequarters" unicode="&#xbe;" horiz-adv-x="620" 
d="M572 585q24 25 27 4q6 -43 -51 -111q-3 -3 -106 -121.5t-176 -207t-114 -148.5q-11 -16 -17 2q-12 33 24 90q41 65 177 226t236 266zM611 257q-35 -53 -66 -113q9 -10 11 -21q1 -4 -0.5 -6t-5.5 -1q-6 1 -19 1q-35 -68 -58 -126q-4 -9 -12 -2q-29 23 -11 77q5 17 20 47
q-16 -2 -88 -15q-18 -4 -26 8q-9 12 -14 24q-5 10 2 18q33 39 102.5 96.5t124.5 92.5q17 10 26 -2q12 -15 19 -37q7 -23 -5 -41zM389 142q50 15 104 18q38 75 74 125q-100 -67 -178 -143zM343 543q0 -28 -25.5 -57t-66.5 -44q11 -2 18 -5q25 -10 22 -52t-38 -83
q-34 -40 -80 -49.5t-71 9.5q-22 13 -29 37.5t3 49.5q15 40 55 40q17 0 9 -10q-22 -28 -25.5 -55.5t10.5 -32.5q13 -7 36 3t47 41q27 36 27 68q0 20 -16 20q-2 0 -10.5 -1.5t-12.5 -1.5q-21 0 -30 18q-5 9 5 12q56 16 90 47t34 59q0 15 -12 15q-13 0 -42 -37q-15 -19 -36 -25
t-33 1q-8 3 -3 12q29 55 73 76q21 10 43.5 7.5t36.5 -16.5q21 -21 21 -46z" />
    <glyph glyph-name="questiondown" unicode="&#xbf;" horiz-adv-x="369" 
d="M342 562q-16 41 6 64q9 11 26.5 7.5t28.5 -21.5q11 -20 9 -40t-14 -33t-30 -5.5t-26 28.5zM278 86q-42 -67 -104.5 -91.5t-118.5 9.5q-42 28 -51 80t20 115q26 54 71 92t114 75q89 49 115 145q5 17 18 3q12 -12 15.5 -33.5t-8.5 -59.5q-14 -32 -42 -58.5t-84 -58.5
q-100 -57 -144 -151q-11 -23 -16.5 -46t-2.5 -45t18 -30q38 -20 95.5 34t101.5 143q9 17 19 3q13 -14 10.5 -51t-26.5 -75z" />
    <glyph glyph-name="Agrave" unicode="&#xc0;" horiz-adv-x="442" 
d="M313 157q-20 -1 -96 -9t-103 -7q-46 -79 -76 -144q-3 -7 -8.5 -7t-9.5 5q-22 30 5 102q11 28 27 57q-24 13 -33 34q-4 10 -1.5 13t13.5 2q27 -4 45 -5q66 115 157.5 237.5t165.5 183.5q22 18 36 -1q15 -21 23 -41q14 -32 0 -73q-48 -145 -73 -291q38 -13 45 -51
q3 -14 -11 -9q-18 5 -43 6q-12 -93 -15 -160q0 -16 -15 -9q-36 16 -37 91q0 36 4 76zM152 201q23 2 83 9t86 8q28 191 74 308q-124 -139 -243 -325zM363 715q36 19 71 0q35 -18 88 -61q11 -9 -1 -14q-26 -10 -52 1q-13 5 -107 59q-13 8 1 15z" />
    <glyph glyph-name="Aacute" unicode="&#xc1;" horiz-adv-x="442" 
d="M313 157q-20 -1 -96 -9t-103 -7q-46 -79 -76 -144q-3 -7 -8.5 -7t-9.5 5q-22 30 5 102q11 28 27 57q-24 13 -33 34q-4 10 -1.5 13t13.5 2q27 -4 45 -5q66 115 157.5 237.5t165.5 183.5q22 18 36 -1q15 -21 23 -41q14 -32 0 -73q-48 -145 -73 -291q38 -13 45 -51
q3 -14 -11 -9q-18 5 -43 6q-12 -93 -15 -160q0 -16 -15 -9q-36 16 -37 91q0 36 4 76zM152 201q23 2 83 9t86 8q28 191 74 308q-124 -139 -243 -325zM524 731q14 -9 0 -16q-13 -6 -38.5 -19t-45.5 -22t-31 -13q-35 -11 -53 0q-14 6 0 15q77 50 95 58q40 17 73 -3z" />
    <glyph glyph-name="Acircumflex" unicode="&#xc2;" horiz-adv-x="442" 
d="M313 157q-20 -1 -96 -9t-103 -7q-46 -79 -76 -144q-3 -7 -8.5 -7t-9.5 5q-22 30 5 102q11 28 27 57q-24 13 -33 34q-4 10 -1.5 13t13.5 2q27 -4 45 -5q66 115 157.5 237.5t165.5 183.5q22 18 36 -1q15 -21 23 -41q14 -32 0 -73q-48 -145 -73 -291q38 -13 45 -51
q3 -14 -11 -9q-18 5 -43 6q-12 -93 -15 -160q0 -16 -15 -9q-36 16 -37 91q0 36 4 76zM152 201q23 2 83 9t86 8q28 191 74 308q-124 -139 -243 -325zM447 694q-38 -27 -59 -37q-30 -14 -51 -8q-14 5 0 15q92 68 116 82q3 2 11 4q14 0 21 -15q20 -38 40 -70q7 -12 -6 -15
q-28 -7 -52 19q-10 10 -20 25z" />
    <glyph glyph-name="Atilde" unicode="&#xc3;" horiz-adv-x="442" 
d="M313 157q-20 -1 -96 -9t-103 -7q-46 -79 -76 -144q-3 -7 -8.5 -7t-9.5 5q-22 30 5 102q11 28 27 57q-24 13 -33 34q-4 10 -1.5 13t13.5 2q27 -4 45 -5q66 115 157.5 237.5t165.5 183.5q22 18 36 -1q15 -21 23 -41q14 -32 0 -73q-48 -145 -73 -291q38 -13 45 -51
q3 -14 -11 -9q-18 5 -43 6q-12 -93 -15 -160q0 -16 -15 -9q-36 16 -37 91q0 36 4 76zM152 201q23 2 83 9t86 8q28 191 74 308q-124 -139 -243 -325zM320 690q6 14 23 25t39 11q17 0 64.5 -17.5t80.5 -7.5q8 2 11 -1t-1 -11q-16 -32 -55 -35q-25 -2 -76.5 17t-77.5 10
q-6 -2 -8 0.5t0 8.5z" />
    <glyph glyph-name="Adieresis" unicode="&#xc4;" horiz-adv-x="442" 
d="M313 157q-20 -1 -96 -9t-103 -7q-46 -79 -76 -144q-3 -7 -8.5 -7t-9.5 5q-22 30 5 102q11 28 27 57q-24 13 -33 34q-4 10 -1.5 13t13.5 2q27 -4 45 -5q66 115 157.5 237.5t165.5 183.5q22 18 36 -1q15 -21 23 -41q14 -32 0 -73q-48 -145 -73 -291q38 -13 45 -51
q3 -14 -11 -9q-18 5 -43 6q-12 -93 -15 -160q0 -16 -15 -9q-36 16 -37 91q0 36 4 76zM152 201q23 2 83 9t86 8q28 191 74 308q-124 -139 -243 -325zM469 708q7 16 20 24t25 4t15.5 -18t-3.5 -30q-6 -15 -20 -23t-25 -4q-12 4 -15.5 17.5t3.5 29.5zM354 706q8 16 21 25t24 4
q12 -5 15.5 -19t-3.5 -29t-20 -24t-25 -5t-15.5 18.5t3.5 29.5z" />
    <glyph glyph-name="Aring" unicode="&#xc5;" horiz-adv-x="442" 
d="M313 157q-20 -1 -96 -9t-103 -7q-46 -79 -76 -144q-3 -7 -8.5 -7t-9.5 5q-22 30 5 102q11 28 27 57q-24 13 -33 34q-4 10 -1.5 13t13.5 2q27 -4 45 -5q66 115 157.5 237.5t165.5 183.5q22 18 36 -1q15 -21 23 -41q14 -32 0 -73q-48 -145 -73 -291q38 -13 45 -51
q3 -14 -11 -9q-18 5 -43 6q-12 -93 -15 -160q0 -16 -15 -9q-36 16 -37 91q0 36 4 76zM152 201q23 2 83 9t86 8q28 191 74 308q-124 -139 -243 -325zM493 698q39 -32 10 -85q-10 -19 -29 -25.5t-38 5.5q-21 15 -25 39.5t7 44.5q12 22 32 29.5t43 -8.5zM482 682
q-7 4 -17.5 -3.5t-16.5 -20.5q-16 -36 -2 -46q4 -3 13.5 2.5t16.5 18.5q8 15 10 29.5t-4 19.5z" />
    <glyph glyph-name="AE" unicode="&#xc6;" horiz-adv-x="651" 
d="M128 142q-64 -82 -104 -151q-7 -13 -16 0q-22 34 17 109q12 24 30 49q-24 11 -31 28q-3 6 -3 9t3 4.5t10 1.5q15 -1 53 3q73 100 175.5 208.5t183.5 163.5q28 20 60 27q115 24 202 26q67 1 88 -50q3 -7 0 -11.5t-12 -3.5q-69 6 -212 -27q-64 -103 -142 -248q42 8 79 10
q66 1 82 -51q5 -15 -12 -15q-77 1 -192 -27q-47 -97 -65 -140q82 25 152 29t89 -48q6 -15 -10 -15q-69 2 -216 -37q-21 -6 -32 -4.5t-19 13.5q-18 28 -23 38q-13 25 0 58q19 49 36 87q-117 -31 -171 -36zM482 516q-138 -118 -292 -298q23 6 73.5 21t74.5 21q59 117 144 256z
" />
    <glyph glyph-name="Ccedilla" unicode="&#xc7;" horiz-adv-x="462" 
d="M121 10q-1 0 -1 0.5t-1 0.5q-36 19 -60.5 64t-25.5 104q-1 75 27 150.5t72.5 131.5t93.5 96.5t93 57.5q91 35 135 -3q41 -35 53 -73q13 -42 -9 -88q-11 -23 -40 -99q-6 -17 -22 -6q-44 29 -24 96q4 13 11.5 31.5t12.5 32t9 28t3.5 25t-7.5 17.5q-14 16 -60.5 -3.5
t-107 -73t-102.5 -123.5q-42 -69 -57 -141.5t-6 -122t34 -70.5q48 -39 118.5 7t127.5 157q4 8 10.5 8t10.5 -10q17 -45 -12 -94t-69 -78q-77 -55 -165 -37q-10 -20 -12 -25q25 -1 38 -27q13 -27 2 -46q-18 -30 -54 -30q-29 0 -48 26q-5 7 -2.5 10.5t9.5 3.5q21 -1 39 4
t25.5 11t5.5 10q-4 7 -32 3q-19 -3 -30 10q-12 14 -5 28q6 13 22 37z" />
    <glyph glyph-name="Egrave" unicode="&#xc8;" horiz-adv-x="368" 
d="M218 525q-31 12 -42 51q-2 7 1 10t10 2q47 -3 138.5 11t110.5 14q58 1 76 -49q3 -6 0 -10t-11 -3q-25 0 -54.5 -3t-50 -6.5t-52 -9.5t-46.5 -8q-46 -69 -138 -236q31 6 71 8q67 3 82 -45q5 -15 -10 -15q-73 0 -185 -28q-47 -90 -77 -158q89 28 155 31q68 3 85 -44
q5 -15 -10 -15q-67 1 -221 -40q-28 -7 -42 10q-3 3 -21 37q-12 22 1 57q33 89 99 213.5t131 225.5zM296 735q36 19 71 0q35 -18 88 -61q11 -9 -1 -14q-26 -10 -52 1q-12 5 -107 59q-13 8 1 15z" />
    <glyph glyph-name="Eacute" unicode="&#xc9;" horiz-adv-x="368" 
d="M218 525q-31 12 -42 51q-2 7 1 10t10 2q47 -3 138.5 11t110.5 14q58 1 76 -49q3 -6 0 -10t-11 -3q-25 0 -54.5 -3t-50 -6.5t-52 -9.5t-46.5 -8q-46 -69 -138 -236q31 6 71 8q67 3 82 -45q5 -15 -10 -15q-73 0 -185 -28q-47 -90 -77 -158q89 28 155 31q68 3 85 -44
q5 -15 -10 -15q-67 1 -221 -40q-28 -7 -42 10q-3 3 -21 37q-12 22 1 57q33 89 99 213.5t131 225.5zM467 731q14 -9 0 -16q-13 -6 -38.5 -19t-45.5 -22t-31 -13q-35 -11 -53 0q-14 6 0 15q77 50 95 58q40 17 73 -3z" />
    <glyph glyph-name="Ecircumflex" unicode="&#xca;" horiz-adv-x="368" 
d="M218 525q-31 12 -42 51q-2 7 1 10t10 2q47 -3 138.5 11t110.5 14q58 1 76 -49q3 -6 0 -10t-11 -3q-25 0 -54.5 -3t-50 -6.5t-52 -9.5t-46.5 -8q-46 -69 -138 -236q31 6 71 8q67 3 82 -45q5 -15 -10 -15q-73 0 -185 -28q-47 -90 -77 -158q89 28 155 31q68 3 85 -44
q5 -15 -10 -15q-67 1 -221 -40q-28 -7 -42 10q-3 3 -21 37q-12 22 1 57q33 89 99 213.5t131 225.5zM400 694q-38 -27 -59 -37q-30 -14 -51 -8q-14 5 0 15q92 68 116 82q2 2 11 4q13 0 21 -15q20 -38 40 -70q8 -12 -6 -15q-28 -7 -52 19q-10 10 -20 25z" />
    <glyph glyph-name="Edieresis" unicode="&#xcb;" horiz-adv-x="368" 
d="M218 525q-31 12 -42 51q-2 7 1 10t10 2q47 -3 138.5 11t110.5 14q58 1 76 -49q3 -6 0 -10t-11 -3q-25 0 -54.5 -3t-50 -6.5t-52 -9.5t-46.5 -8q-46 -69 -138 -236q31 6 71 8q67 3 82 -45q5 -15 -10 -15q-73 0 -185 -28q-47 -90 -77 -158q89 28 155 31q68 3 85 -44
q5 -15 -10 -15q-67 1 -221 -40q-28 -7 -42 10q-3 3 -21 37q-12 22 1 57q33 89 99 213.5t131 225.5zM412 708q7 16 20 24t25 4t15.5 -18t-3.5 -30q-6 -15 -20 -23t-25 -4q-12 4 -15.5 17.5t3.5 29.5zM297 706q8 16 21 25t24 4q12 -5 15.5 -19t-3.5 -29t-20 -24t-25 -5
t-15.5 18.5t3.5 29.5z" />
    <glyph glyph-name="Igrave" unicode="&#xcc;" horiz-adv-x="182" 
d="M269 616q14 20 24 -1q26 -54 -30 -153q-173 -304 -245 -466q-6 -14 -16 -2q-32 34 -4 111q35 98 121 258.5t150 252.5zM233 735q36 19 71 0q35 -18 88 -61q11 -9 -1 -14q-26 -10 -52 1q-13 5 -107 59q-13 8 1 15z" />
    <glyph glyph-name="Iacute" unicode="&#xcd;" horiz-adv-x="182" 
d="M269 616q14 20 24 -1q26 -54 -30 -153q-173 -304 -245 -466q-6 -14 -16 -2q-32 34 -4 111q35 98 121 258.5t150 252.5zM394 731q14 -9 0 -16q-13 -6 -38.5 -19t-45.5 -22t-31 -13q-35 -11 -53 0q-14 6 0 15q77 50 95 58q40 17 73 -3z" />
    <glyph glyph-name="Icircumflex" unicode="&#xce;" horiz-adv-x="182" 
d="M269 616q14 20 24 -1q26 -54 -30 -153q-173 -304 -245 -466q-6 -14 -16 -2q-32 34 -4 111q35 98 121 258.5t150 252.5zM317 694q-38 -27 -59 -37q-30 -14 -51 -8q-14 5 0 15q92 68 116 82q3 2 11 4q14 0 21 -15q20 -38 40 -70q7 -12 -6 -15q-28 -7 -52 19q-10 10 -20 25z
" />
    <glyph glyph-name="Idieresis" unicode="&#xcf;" horiz-adv-x="182" 
d="M269 616q14 20 24 -1q26 -54 -30 -153q-173 -304 -245 -466q-6 -14 -16 -2q-32 34 -4 111q35 98 121 258.5t150 252.5zM339 708q7 16 20 24t25 4t15.5 -18t-3.5 -30q-6 -15 -20 -23t-25 -4q-12 4 -15.5 17.5t3.5 29.5zM224 706q8 16 21 25t24 4q12 -5 15.5 -19t-3.5 -29
t-20 -24t-25 -5t-15.5 18.5t3.5 29.5z" />
    <glyph glyph-name="Eth" unicode="&#xd0;" horiz-adv-x="483" 
d="M210 501q-49 3 -65 42q-6 17 10 19q36 5 94.5 29.5t89.5 29.5q93 14 151 -88q25 -50 24.5 -109t-32 -125t-79.5 -124.5t-118.5 -107.5t-148.5 -75q-39 -13 -64 7q-29 24 -42 43q-15 21 -16.5 38.5t13.5 67.5q23 69 76.5 171t106.5 182zM263 511q9 -44 -26 -105
q-2 -3 -39.5 -69t-51 -91.5t-36.5 -73.5t-33 -80t-4 -42.5t28 -2.5q66 25 124 65.5t98.5 85.5t72 95t44 94t15.5 82.5t-14 61.5q-12 20 -34 23t-40.5 -3t-53 -20.5t-50.5 -19.5zM85 279q-63 3 -73 53q-2 7 0 11t10 3q30 -2 93.5 3t80.5 5q64 0 75 -52q2 -7 -0.5 -11
t-10.5 -3q-41 3 -99.5 -3.5t-75.5 -5.5z" />
    <glyph glyph-name="Ntilde" unicode="&#xd1;" horiz-adv-x="459" 
d="M239 429q-169 -290 -217 -435q-5 -17 -17 -4q-33 37 -5 112q64 177 259 505q11 19 26 9q28 -20 35 -46t-1 -78q-21 -127 -33 -360q49 111 124 249.5t134 229.5q12 18 23 -2q25 -51 -31 -145q-47 -78 -125 -227t-120 -244q-6 -14 -20 -6q-23 12 -34 34.5t-15 69.5
q-10 124 17 338zM338 690q6 14 23 25t39 11q17 0 64.5 -17.5t80.5 -7.5q8 2 11 -1t-1 -11q-16 -32 -55 -35q-25 -2 -76.5 17t-77.5 10q-6 -2 -8 0.5t0 8.5z" />
    <glyph glyph-name="Ograve" unicode="&#xd2;" horiz-adv-x="537" 
d="M476 597q59 -26 76.5 -94t0.5 -145.5t-56 -149.5q-67 -123 -157 -187t-186 -29q-114 42 -114 187q0 76 30.5 152t77 132.5t97.5 97t95 56.5q88 30 136 -20zM424 236q43 79 60.5 155.5t8.5 124t-37 57.5q-41 15 -122.5 -39.5t-147.5 -156.5q-46 -72 -65 -148.5t-9 -130.5
t44 -68q51 -22 129 36t139 170zM391 735q36 19 71 0q35 -18 88 -61q11 -9 -1 -14q-26 -10 -52 1q-12 5 -107 59q-13 8 1 15z" />
    <glyph glyph-name="Oacute" unicode="&#xd3;" horiz-adv-x="537" 
d="M476 597q59 -26 76.5 -94t0.5 -145.5t-56 -149.5q-67 -123 -157 -187t-186 -29q-114 42 -114 187q0 76 30.5 152t77 132.5t97.5 97t95 56.5q88 30 136 -20zM424 236q43 79 60.5 155.5t8.5 124t-37 57.5q-41 15 -122.5 -39.5t-147.5 -156.5q-46 -72 -65 -148.5t-9 -130.5
t44 -68q51 -22 129 36t139 170zM601 731q14 -9 0 -16q-13 -6 -38.5 -19t-45.5 -22t-31 -13q-35 -11 -53 0q-14 6 0 15q77 50 95 58q40 17 73 -3z" />
    <glyph glyph-name="Ocircumflex" unicode="&#xd4;" horiz-adv-x="537" 
d="M476 597q59 -26 76.5 -94t0.5 -145.5t-56 -149.5q-67 -123 -157 -187t-186 -29q-114 42 -114 187q0 76 30.5 152t77 132.5t97.5 97t95 56.5q88 30 136 -20zM424 236q43 79 60.5 155.5t8.5 124t-37 57.5q-41 15 -122.5 -39.5t-147.5 -156.5q-46 -72 -65 -148.5t-9 -130.5
t44 -68q51 -22 129 36t139 170zM494 694q-38 -27 -59 -37q-30 -14 -51 -8q-14 5 0 15q92 68 116 82q2 2 11 4q13 0 21 -15q20 -38 40 -70q8 -12 -6 -15q-28 -7 -52 19q-10 10 -20 25z" />
    <glyph glyph-name="Otilde" unicode="&#xd5;" horiz-adv-x="537" 
d="M476 597q59 -26 76.5 -94t0.5 -145.5t-56 -149.5q-67 -123 -157 -187t-186 -29q-114 42 -114 187q0 76 30.5 152t77 132.5t97.5 97t95 56.5q88 30 136 -20zM424 236q43 79 60.5 155.5t8.5 124t-37 57.5q-41 15 -122.5 -39.5t-147.5 -156.5q-46 -72 -65 -148.5t-9 -130.5
t44 -68q51 -22 129 36t139 170zM387 690q6 14 23 25t39 11q17 0 64.5 -17.5t80.5 -7.5q8 2 11 -1t-1 -11q-16 -32 -55 -35q-25 -2 -76.5 17t-77.5 10q-6 -2 -8 0.5t0 8.5z" />
    <glyph glyph-name="Odieresis" unicode="&#xd6;" horiz-adv-x="537" 
d="M476 597q59 -26 76.5 -94t0.5 -145.5t-56 -149.5q-67 -123 -157 -187t-186 -29q-114 42 -114 187q0 76 30.5 152t77 132.5t97.5 97t95 56.5q88 30 136 -20zM424 236q43 79 60.5 155.5t8.5 124t-37 57.5q-41 15 -122.5 -39.5t-147.5 -156.5q-46 -72 -65 -148.5t-9 -130.5
t44 -68q51 -22 129 36t139 170zM516 708q7 16 20 24t25 4t15.5 -18t-3.5 -30q-6 -15 -20 -23t-25 -4q-12 4 -15.5 17.5t3.5 29.5zM401 706q8 16 21 25t24 4q12 -5 15.5 -19t-3.5 -29t-20 -24t-25 -5t-15.5 18.5t3.5 29.5z" />
    <glyph glyph-name="multiply" unicode="&#xd7;" horiz-adv-x="273" 
d="M245 190q5 -21 -4 -30q-7 -8 -17 2q-16 15 -59 80q-66 -47 -100 -77q-12 -11 -18 -1q-24 42 33 92q14 13 52 40q-35 62 -42 83q-8 24 15 24q27 0 44 -29q3 -6 27 -46q66 48 92 73q12 12 18 1q20 -40 -22 -84q-14 -16 -57 -47q30 -54 38 -81z" />
    <glyph glyph-name="Oslash" unicode="&#xd8;" horiz-adv-x="525" 
d="M540 527q26 -68 12 -152t-58 -167q-65 -121 -154.5 -185t-184.5 -30q-30 10 -52 32q-30 -39 -48 -64q-10 -15 -14 2q-7 28 22 82q5 5 8 13q-31 52 -31 120q0 75 31 151t77.5 132.5t97 96.5t93.5 55q88 29 135 -21q23 -9 32 -20q39 41 64 63q16 14 19 -3q6 -37 -48 -104
q-1 0 -1 -1zM110 116q133 185 369 429q-9 20 -26 26q-40 16 -121 -38.5t-147 -156.5q-42 -65 -61 -135t-14 -125zM493 473q-17 -19 -77 -84t-96.5 -106t-92 -105.5t-99.5 -120.5q11 -19 27 -26q51 -22 128.5 35.5t137.5 168.5q72 135 72 238z" />
    <glyph glyph-name="Ugrave" unicode="&#xd9;" horiz-adv-x="452" 
d="M76 -12q-102 42 -68 180q35 140 232 439q12 18 24 -1q29 -46 -19 -139q-13 -26 -57.5 -102t-75.5 -138.5t-42 -109.5q-20 -85 20 -100q44 -17 100 38t111 161q125 244 219 392q11 19 24 -1q24 -42 -13 -124q-31 -67 -105.5 -201.5t-120.5 -198.5q-51 -71 -113 -94
t-116 -1zM348 735q36 19 71 0q35 -18 88 -61q11 -9 -1 -14q-26 -10 -52 1q-13 5 -107 59q-13 8 1 15z" />
    <glyph glyph-name="Uacute" unicode="&#xda;" horiz-adv-x="452" 
d="M76 -12q-102 42 -68 180q35 140 232 439q12 18 24 -1q29 -46 -19 -139q-13 -26 -57.5 -102t-75.5 -138.5t-42 -109.5q-20 -85 20 -100q44 -17 100 38t111 161q125 244 219 392q11 19 24 -1q24 -42 -13 -124q-31 -67 -105.5 -201.5t-120.5 -198.5q-51 -71 -113 -94
t-116 -1zM519 731q14 -9 0 -16q-13 -6 -38.5 -19t-45.5 -22t-31 -13q-35 -11 -53 0q-14 6 0 15q77 50 95 58q40 17 73 -3z" />
    <glyph glyph-name="Ucircumflex" unicode="&#xdb;" horiz-adv-x="452" 
d="M76 -12q-102 42 -68 180q35 140 232 439q12 18 24 -1q29 -46 -19 -139q-13 -26 -57.5 -102t-75.5 -138.5t-42 -109.5q-20 -85 20 -100q44 -17 100 38t111 161q125 244 219 392q11 19 24 -1q24 -42 -13 -124q-31 -67 -105.5 -201.5t-120.5 -198.5q-51 -71 -113 -94
t-116 -1zM422 694q-38 -27 -59 -37q-30 -14 -51 -8q-14 5 0 15q92 68 116 82q2 2 11 4q13 0 21 -15q20 -38 40 -70q8 -12 -6 -15q-28 -7 -52 19q-10 10 -20 25z" />
    <glyph glyph-name="Udieresis" unicode="&#xdc;" horiz-adv-x="452" 
d="M76 -12q-102 42 -68 180q35 140 232 439q12 18 24 -1q29 -46 -19 -139q-13 -26 -57.5 -102t-75.5 -138.5t-42 -109.5q-20 -85 20 -100q44 -17 100 38t111 161q125 244 219 392q11 19 24 -1q24 -42 -13 -124q-31 -67 -105.5 -201.5t-120.5 -198.5q-51 -71 -113 -94
t-116 -1zM454 708q7 16 20 24t25 4t15.5 -18t-3.5 -30q-6 -15 -20 -23t-25 -4q-12 4 -15.5 17.5t3.5 29.5zM339 706q8 16 21 25t24 4q12 -5 15.5 -19t-3.5 -29t-20 -24t-25 -5t-15.5 18.5t3.5 29.5z" />
    <glyph glyph-name="Yacute" unicode="&#xdd;" horiz-adv-x="379" 
d="M174 197q-60 -107 -95 -207q-6 -15 -19 -3q-31 27 -10 100q16 54 62 145q4 245 29 370q4 22 21 11q40 -25 35 -116q-1 -26 -7 -91t-8 -105q152 168 313 311q16 13 21 -5q15 -56 -61 -131q-12 -12 -70 -67t-107 -103.5t-104 -108.5zM432 731q14 -9 0 -16q-13 -6 -38.5 -19
t-45.5 -22t-31 -13q-35 -11 -53 0q-14 6 0 15q77 50 95 58q40 17 73 -3z" />
    <glyph glyph-name="Thorn" unicode="&#xde;" horiz-adv-x="459" 
d="M277 621q14 20 24 -1q17 -36 -5 -98q27 7 47 8q89 3 119 -83q24 -69 -15.5 -134t-119 -105.5t-171.5 -48.5q-29 -3 -50 8q-54 -104 -83 -171q-6 -15 -17 -2q-30 35 -3 111q39 110 150 312q-33 10 -46 39q-8 17 10 18q24 2 78 17q40 67 82 130zM249 429
q-59 -105 -110 -199q69 3 129 26t94.5 55t50.5 66.5t6 60.5q-8 20 -35 22t-52.5 -4.5t-65.5 -20.5q-4 -2 -6 -2.5t-5 -1.5z" />
    <glyph glyph-name="germandbls" unicode="&#xdf;" horiz-adv-x="410" 
d="M448 405q-48 -63 -133 -96q23 -8 38 -21q39 -32 30 -92t-65 -123q-69 -77 -150 -84q-51 -3 -81 31q-6 7 -4 11.5t12 4.5q42 -1 89 22t80 61q39 46 56 88.5t0 58.5t-61 7q-40 -8 -64 35q-10 16 8 21q37 11 71 28t59 35.5t45.5 39t32.5 40t18.5 37t6 32t-8.5 23.5
q-11 13 -26.5 14t-32.5 -8.5t-33.5 -22.5t-33 -31t-27 -31t-19.5 -26q-50 -70 -120.5 -205t-116.5 -255q-7 -16 -16 -3q-26 39 -4 110q20 64 73 174t103 184q74 111 139 141q36 19 77.5 14.5t67.5 -36.5q29 -31 28 -80t-38 -98z" />
    <glyph glyph-name="agrave" unicode="&#xe0;" horiz-adv-x="407" 
d="M324 325q22 41 36 61t24 6q13 -15 14 -43.5t-15 -67.5q-9 -19 -46 -81.5t-50 -91.5q-13 -28 -17 -50t2 -35t23 -12q29 1 66 42t65 97q9 16 16 1q10 -22 -9 -62q-21 -44 -62.5 -76.5t-81.5 -30.5t-61 24t-21 58q-61 -78 -125 -78q-46 0 -67.5 36.5t-11.5 94.5t50 117
q57 83 112.5 123t97.5 40q31 0 47 -20.5t14 -51.5zM237 170q30 53 45 93t14 60t-16 22q-25 2 -72.5 -42t-87.5 -109q-26 -42 -39 -82.5t-10 -66.5t22 -26q29 -1 66 39.5t78 111.5zM226 505q36 19 71 0q35 -18 88 -61q11 -9 -1 -14q-26 -10 -52 1q-12 5 -107 59q-13 8 1 15z
" />
    <glyph glyph-name="aacute" unicode="&#xe1;" horiz-adv-x="407" 
d="M324 325q22 41 36 61t24 6q13 -15 14 -43.5t-15 -67.5q-9 -19 -46 -81.5t-50 -91.5q-13 -28 -17 -50t2 -35t23 -12q29 1 66 42t65 97q9 16 16 1q10 -22 -9 -62q-21 -44 -62.5 -76.5t-81.5 -30.5t-61 24t-21 58q-61 -78 -125 -78q-46 0 -67.5 36.5t-11.5 94.5t50 117
q57 83 112.5 123t97.5 40q31 0 47 -20.5t14 -51.5zM237 170q30 53 45 93t14 60t-16 22q-25 2 -72.5 -42t-87.5 -109q-26 -42 -39 -82.5t-10 -66.5t22 -26q29 -1 66 39.5t78 111.5zM426 504q14 -9 0 -16q-11 -5 -37.5 -18.5t-46 -22.5t-31.5 -13q-32 -10 -52 -1q-13 6 1 16
q61 43 95 58q38 17 71 -3z" />
    <glyph glyph-name="acircumflex" unicode="&#xe2;" horiz-adv-x="407" 
d="M324 325q22 41 36 61t24 6q13 -15 14 -43.5t-15 -67.5q-9 -19 -46 -81.5t-50 -91.5q-13 -28 -17 -50t2 -35t23 -12q29 1 66 42t65 97q9 16 16 1q10 -22 -9 -62q-21 -44 -62.5 -76.5t-81.5 -30.5t-61 24t-21 58q-61 -78 -125 -78q-46 0 -67.5 36.5t-11.5 94.5t50 117
q57 83 112.5 123t97.5 40q31 0 47 -20.5t14 -51.5zM237 170q30 53 45 93t14 60t-16 22q-25 2 -72.5 -42t-87.5 -109q-26 -42 -39 -82.5t-10 -66.5t22 -26q29 -1 66 39.5t78 111.5zM341 471q-44 -26 -60 -35q-27 -14 -51 -9q-16 4 -1 15q11 7 54.5 39t61.5 43q2 2 7 2l6 1
q11 2 20 -13q24 -44 41 -70q7 -11 -6 -15q-29 -6 -53 18q-11 11 -19 24z" />
    <glyph glyph-name="atilde" unicode="&#xe3;" horiz-adv-x="407" 
d="M324 325q22 41 36 61t24 6q13 -15 14 -43.5t-15 -67.5q-9 -19 -46 -81.5t-50 -91.5q-13 -28 -17 -50t2 -35t23 -12q29 1 66 42t65 97q9 16 16 1q10 -22 -9 -62q-21 -44 -62.5 -76.5t-81.5 -30.5t-61 24t-21 58q-61 -78 -125 -78q-46 0 -67.5 36.5t-11.5 94.5t50 117
q57 83 112.5 123t97.5 40q31 0 47 -20.5t14 -51.5zM237 170q30 53 45 93t14 60t-16 22q-25 2 -72.5 -42t-87.5 -109q-26 -42 -39 -82.5t-10 -66.5t22 -26q29 -1 66 39.5t78 111.5zM227 442q5 15 22 29t37 18q16 3 67 -8t74 6q7 3 10 0.5t0 -10.5q-14 -35 -50 -44
q-25 -6 -78 4.5t-72 -3.5q-7 -4 -9.5 -1t-0.5 9z" />
    <glyph glyph-name="adieresis" unicode="&#xe4;" horiz-adv-x="407" 
d="M324 325q22 41 36 61t24 6q13 -15 14 -43.5t-15 -67.5q-9 -19 -46 -81.5t-50 -91.5q-13 -28 -17 -50t2 -35t23 -12q29 1 66 42t65 97q9 16 16 1q10 -22 -9 -62q-21 -44 -62.5 -76.5t-81.5 -30.5t-61 24t-21 58q-61 -78 -125 -78q-46 0 -67.5 36.5t-11.5 94.5t50 117
q57 83 112.5 123t97.5 40q31 0 47 -20.5t14 -51.5zM237 170q30 53 45 93t14 60t-16 22q-25 2 -72.5 -42t-87.5 -109q-26 -42 -39 -82.5t-10 -66.5t22 -26q29 -1 66 39.5t78 111.5zM359 473q8 16 21 25t24 4q12 -5 15.5 -19t-3.5 -29q-7 -16 -20.5 -25t-24.5 -4
q-12 5 -15.5 19t3.5 29zM250 473q7 16 20 24t25 3q27 -13 11 -47q-5 -15 -19 -23.5t-25 -4.5q-12 4 -15.5 18t3.5 30z" />
    <glyph glyph-name="aring" unicode="&#xe5;" horiz-adv-x="407" 
d="M324 325q22 41 36 61t24 6q13 -15 14 -43.5t-15 -67.5q-9 -19 -46 -81.5t-50 -91.5q-13 -28 -17 -50t2 -35t23 -12q29 1 66 42t65 97q9 16 16 1q10 -22 -9 -62q-21 -44 -62.5 -76.5t-81.5 -30.5t-61 24t-21 58q-61 -78 -125 -78q-46 0 -67.5 36.5t-11.5 94.5t50 117
q57 83 112.5 123t97.5 40q31 0 47 -20.5t14 -51.5zM237 170q30 53 45 93t14 60t-16 22q-25 2 -72.5 -42t-87.5 -109q-26 -42 -39 -82.5t-10 -66.5t22 -26q29 -1 66 39.5t78 111.5zM413 535q39 -32 10 -85q-10 -19 -29 -25.5t-38 5.5q-21 15 -25 39.5t7 44.5q12 22 32 29.5
t43 -8.5zM402 519q-7 4 -17.5 -3.5t-16.5 -20.5q-16 -36 -2 -46q4 -3 13.5 2.5t16.5 18.5q8 15 10 29.5t-4 19.5z" />
    <glyph glyph-name="ae" unicode="&#xe6;" horiz-adv-x="555" 
d="M571 89q-74 -109 -237 -109q-61 0 -91.5 23.5t-32.5 63.5q-64 -83 -129 -83q-33 0 -53.5 22t-25 56.5t9 80t43.5 89.5q56 81 112 121t97 40q29 0 45.5 -20.5t14.5 -49.5q16 32 35 59q13 19 25 6q11 -11 13 -43q73 51 115 23q21 -13 35 -35q14 -17 5.5 -57t-37.5 -77
q-39 -49 -87.5 -58t-105.5 33q-29 -53 -35 -67q-44 -101 50 -101q83 0 136.5 40t98.5 107q4 6 9.5 5.5t7.5 -6.5q3 -7 -1.5 -26t-16.5 -37zM344 209q-1 -2 -4.5 -7t-5.5 -8q18 -13 35.5 -14t34 9.5t27.5 22t25 28.5q26 33 38.5 64t2.5 40t-35.5 -5t-58 -49t-59.5 -81z
M280 342q-26 2 -73 -41.5t-86 -107.5q-26 -43 -39.5 -84.5t-10.5 -67.5t23 -26q27 -1 64 40.5t78 112.5q31 53 45.5 93t13.5 60t-15 21z" />
    <glyph glyph-name="ccedilla" unicode="&#xe7;" horiz-adv-x="310" 
d="M66 0q-53 27 -63 93.5t28 142.5q46 90 110.5 132t104.5 18q38 -23 55 -55q5 -16 6 -26.5t-5 -28.5t-11.5 -30.5t-14.5 -31.5t-14 -32q-5 -16 -21 -8q-44 22 -24 87q3 9 8.5 22t10 22t8.5 20t4 16t-4 10q-9 7 -32.5 -9t-53.5 -52.5t-51 -79.5q-39 -85 -30 -140.5t55 -56.5
q57 -1 108 41.5t89 100.5q4 6 9.5 6t8.5 -7q7 -20 -18 -60q-29 -45 -83 -76.5t-110 -32.5q-11 0 -29 2q-7 -11 -12 -23q22 -1 36 -26q12 -21 1 -42q-15 -28 -50 -28q-28 0 -44 24q-9 13 6 13q20 -1 36 3t23 10t5 10q-5 9 -27 3q-17 -4 -29 9q-11 12 -5 27q3 7 19 33z" />
    <glyph glyph-name="egrave" unicode="&#xe8;" horiz-adv-x="320" 
d="M92 171q-23 -69 -9.5 -112.5t54.5 -45.5q56 -3 108 39.5t91 102.5q10 15 17 -1q4 -7 -0.5 -25.5t-16.5 -36.5q-32 -47 -85.5 -77t-110.5 -31q-94 -1 -125 77t19 175q46 92 111.5 133.5t105.5 18.5q38 -23 59 -52q15 -16 6.5 -58t-38.5 -78q-26 -31 -54.5 -47t-63 -12.5
t-68.5 30.5zM101 193q55 -34 119 50q25 32 37.5 64.5t2.5 40.5q-11 9 -37.5 -6t-59 -51t-54.5 -81q-6 -12 -8 -17zM182 505q36 19 71 0q35 -18 88 -61q11 -9 -1 -14q-26 -10 -52 1q-13 5 -107 59q-13 8 1 15z" />
    <glyph glyph-name="eacute" unicode="&#xe9;" horiz-adv-x="320" 
d="M92 171q-23 -69 -9.5 -112.5t54.5 -45.5q56 -3 108 39.5t91 102.5q10 15 17 -1q4 -7 -0.5 -25.5t-16.5 -36.5q-32 -47 -85.5 -77t-110.5 -31q-94 -1 -125 77t19 175q46 92 111.5 133.5t105.5 18.5q38 -23 59 -52q15 -16 6.5 -58t-38.5 -78q-26 -31 -54.5 -47t-63 -12.5
t-68.5 30.5zM101 193q55 -34 119 50q25 32 37.5 64.5t2.5 40.5q-11 9 -37.5 -6t-59 -51t-54.5 -81q-6 -12 -8 -17zM343 504q14 -9 0 -16q-11 -5 -37.5 -18.5t-46 -22.5t-31.5 -13q-32 -10 -52 -1q-13 6 1 16q61 43 95 58q38 17 71 -3z" />
    <glyph glyph-name="ecircumflex" unicode="&#xea;" horiz-adv-x="320" 
d="M92 171q-23 -69 -9.5 -112.5t54.5 -45.5q56 -3 108 39.5t91 102.5q10 15 17 -1q4 -7 -0.5 -25.5t-16.5 -36.5q-32 -47 -85.5 -77t-110.5 -31q-94 -1 -125 77t19 175q46 92 111.5 133.5t105.5 18.5q38 -23 59 -52q15 -16 6.5 -58t-38.5 -78q-26 -31 -54.5 -47t-63 -12.5
t-68.5 30.5zM101 193q55 -34 119 50q25 32 37.5 64.5t2.5 40.5q-11 9 -37.5 -6t-59 -51t-54.5 -81q-6 -12 -8 -17zM278 471q-44 -26 -60 -35q-27 -14 -51 -9q-16 4 -1 15q11 7 54.5 39t61.5 43q2 2 8 2l5 1q11 2 20 -13q24 -44 41 -70q7 -11 -6 -15q-29 -6 -53 18
q-11 11 -19 24z" />
    <glyph glyph-name="edieresis" unicode="&#xeb;" horiz-adv-x="320" 
d="M92 171q-23 -69 -9.5 -112.5t54.5 -45.5q56 -3 108 39.5t91 102.5q10 15 17 -1q4 -7 -0.5 -25.5t-16.5 -36.5q-32 -47 -85.5 -77t-110.5 -31q-94 -1 -125 77t19 175q46 92 111.5 133.5t105.5 18.5q38 -23 59 -52q15 -16 6.5 -58t-38.5 -78q-26 -31 -54.5 -47t-63 -12.5
t-68.5 30.5zM101 193q55 -34 119 50q25 32 37.5 64.5t2.5 40.5q-11 9 -37.5 -6t-59 -51t-54.5 -81q-6 -12 -8 -17zM286 473q8 16 21 25t24 4q12 -5 15.5 -19t-3.5 -29q-7 -16 -20.5 -25t-24.5 -4q-12 5 -15.5 19t3.5 29zM177 473q7 16 20 24t25 3q27 -13 11 -47
q-5 -15 -19 -23.5t-25 -4.5q-12 4 -15.5 18t3.5 30z" />
    <glyph glyph-name="igrave" unicode="&#xec;" horiz-adv-x="201" 
d="M69 -15q-55 0 -72.5 42.5t5.5 103.5q18 51 58 125.5t70 117.5q13 18 24 6q13 -14 14 -42t-15 -67q-8 -16 -40 -75t-44 -87q-18 -44 -16 -70t26 -25q32 1 69 42t61 95q8 15 16 0q12 -23 -7 -62q-22 -46 -64 -75t-85 -29zM103 505q36 19 71 0q35 -18 88 -61q11 -9 -1 -14
q-26 -10 -52 1q-13 5 -107 59q-13 8 1 15z" />
    <glyph glyph-name="iacute" unicode="&#xed;" horiz-adv-x="201" 
d="M69 -15q-55 0 -72.5 42.5t5.5 103.5q18 51 58 125.5t70 117.5q13 18 24 6q13 -14 14 -42t-15 -67q-8 -16 -40 -75t-44 -87q-18 -44 -16 -70t26 -25q32 1 69 42t61 95q8 15 16 0q12 -23 -7 -62q-22 -46 -64 -75t-85 -29zM283 504q14 -9 0 -16q-11 -5 -37.5 -18.5
t-46 -22.5t-31.5 -13q-32 -10 -52 -1q-13 6 1 16q61 43 95 58q38 17 71 -3z" />
    <glyph glyph-name="icircumflex" unicode="&#xee;" horiz-adv-x="201" 
d="M69 -15q-55 0 -72.5 42.5t5.5 103.5q18 51 58 125.5t70 117.5q13 18 24 6q13 -14 14 -42t-15 -67q-8 -16 -40 -75t-44 -87q-18 -44 -16 -70t26 -25q32 1 69 42t61 95q8 15 16 0q12 -23 -7 -62q-22 -46 -64 -75t-85 -29zM188 471q-44 -26 -60 -35q-27 -14 -51 -9
q-16 4 -1 15q11 7 54.5 39t61.5 43q2 2 8 2l5 1q11 2 20 -13q24 -44 41 -70q7 -11 -6 -15q-29 -6 -53 18q-11 11 -19 24z" />
    <glyph glyph-name="idieresis" unicode="&#xef;" horiz-adv-x="201" 
d="M69 -15q-55 0 -72.5 42.5t5.5 103.5q18 51 58 125.5t70 117.5q13 18 24 6q13 -14 14 -42t-15 -67q-8 -16 -40 -75t-44 -87q-18 -44 -16 -70t26 -25q32 1 69 42t61 95q8 15 16 0q12 -23 -7 -62q-22 -46 -64 -75t-85 -29zM216 473q8 16 21 25t24 4q12 -5 15.5 -19t-3.5 -29
q-7 -16 -20.5 -25t-24.5 -4q-12 5 -15.5 19t3.5 29zM107 473q7 16 20 24t25 3q27 -13 11 -47q-5 -15 -19 -23.5t-25 -4.5q-12 4 -15.5 18t3.5 30z" />
    <glyph glyph-name="eth" unicode="&#xf0;" horiz-adv-x="351" 
d="M443 581q15 -10 0 -19q-3 -2 -29.5 -17t-43.5 -24q7 -37 7 -67q0 -74 -30 -178t-75 -178q-53 -86 -115 -107q-73 -24 -126 44q-31 47 -25.5 104.5t41.5 120.5q30 54 73 90.5t86 39.5q41 3 68 -34q3 -5 17 -19q23 86 22 153q-34 -17 -56 -17q-16 0 -24 4q-12 6 1 17
q28 23 72 51q-14 59 -57 89q-17 11 0 16q23 5 48 -10q35 -22 57 -66q30 17 52 17t37 -10zM214 136q36 67 47.5 129t-5.5 70q-22 18 -67.5 -15.5t-81.5 -98.5q-31 -57 -41 -115.5t10 -74.5q22 -18 62 10.5t76 94.5z" />
    <glyph glyph-name="ntilde" unicode="&#xf1;" horiz-adv-x="384" 
d="M160 294q38 41 80.5 71t65.5 27q27 -4 41 -35.5t-2 -70.5q-9 -19 -44.5 -80.5t-48.5 -89.5q-13 -29 -15.5 -53t5.5 -37.5t26 -12.5q55 3 128 138q8 15 17 1q12 -19 -9 -63q-21 -43 -63.5 -75t-84.5 -32q-62 0 -81 42t5 107q14 41 44.5 94t48.5 84t10 34q-6 2 -24 -6.5
t-48.5 -32t-59.5 -55.5q-28 -30 -56 -76.5t-44.5 -80.5t-45.5 -97q-7 -16 -19 -4q-33 33 -10 103q15 46 63 134.5t97 160.5q11 17 21 0q21 -35 3 -95zM186 442q5 15 22 29t37 18q16 3 67 -8t74 6q7 3 10 0.5t0 -10.5q-14 -35 -50 -44q-25 -6 -78 4.5t-72 -3.5q-7 -4 -9.5 -1
t-0.5 9z" />
    <glyph glyph-name="ograve" unicode="&#xf2;" horiz-adv-x="332" 
d="M342 215q-10 -11 -27 -13q-17 -68 -61 -130.5t-97 -80.5q-73 -24 -126 44q-31 47 -25.5 104.5t41.5 120.5q30 54 73 90.5t86 39.5q41 3 68 -34q5 -7 17 -19.5t18 -20.5t10 -26.5t2 -43.5q-1 -4 -1 -11.5t-1 -11.5q3 0 9.5 1t10.5 1q11 0 3 -10zM256 242q12 48 8 74
q-2 15 -8.5 19.5t-13 -2t-8.5 -20.5q-8 -43 22 -71zM249 215q-9 4 -19 12q-18 13 -31.5 37.5t-14.5 50.5q-47 -40 -77 -94q-31 -57 -41 -115.5t10 -74.5q22 -18 62.5 10t75.5 94q22 41 35 80zM188 505q36 19 71 0q35 -18 88 -61q11 -9 -1 -14q-26 -10 -52 1q-13 5 -107 59
q-13 8 1 15z" />
    <glyph glyph-name="oacute" unicode="&#xf3;" horiz-adv-x="332" 
d="M342 215q-10 -11 -27 -13q-17 -68 -61 -130.5t-97 -80.5q-73 -24 -126 44q-31 47 -25.5 104.5t41.5 120.5q30 54 73 90.5t86 39.5q41 3 68 -34q5 -7 17 -19.5t18 -20.5t10 -26.5t2 -43.5q-1 -4 -1 -11.5t-1 -11.5q3 0 9.5 1t10.5 1q11 0 3 -10zM256 242q12 48 8 74
q-2 15 -8.5 19.5t-13 -2t-8.5 -20.5q-8 -43 22 -71zM249 215q-9 4 -19 12q-18 13 -31.5 37.5t-14.5 50.5q-47 -40 -77 -94q-31 -57 -41 -115.5t10 -74.5q22 -18 62.5 10t75.5 94q22 41 35 80zM349 504q14 -9 0 -16q-11 -5 -37.5 -18.5t-46 -22.5t-31.5 -13q-32 -10 -52 -1
q-13 6 1 16q61 43 95 58q38 17 71 -3z" />
    <glyph glyph-name="ocircumflex" unicode="&#xf4;" horiz-adv-x="332" 
d="M342 215q-10 -11 -27 -13q-17 -68 -61 -130.5t-97 -80.5q-73 -24 -126 44q-31 47 -25.5 104.5t41.5 120.5q30 54 73 90.5t86 39.5q41 3 68 -34q5 -7 17 -19.5t18 -20.5t10 -26.5t2 -43.5q-1 -4 -1 -11.5t-1 -11.5q3 0 9.5 1t10.5 1q11 0 3 -10zM256 242q12 48 8 74
q-2 15 -8.5 19.5t-13 -2t-8.5 -20.5q-8 -43 22 -71zM249 215q-9 4 -19 12q-18 13 -31.5 37.5t-14.5 50.5q-47 -40 -77 -94q-31 -57 -41 -115.5t10 -74.5q22 -18 62.5 10t75.5 94q22 41 35 80zM284 471q-44 -26 -60 -35q-27 -14 -51 -9q-16 4 -1 15q11 7 54.5 39t61.5 43
q2 2 8 2l5 1q11 2 20 -13q24 -44 41 -70q7 -11 -6 -15q-29 -6 -53 18q-11 11 -19 24z" />
    <glyph glyph-name="otilde" unicode="&#xf5;" horiz-adv-x="332" 
d="M342 215q-10 -11 -27 -13q-17 -68 -61 -130.5t-97 -80.5q-73 -24 -126 44q-31 47 -25.5 104.5t41.5 120.5q30 54 73 90.5t86 39.5q41 3 68 -34q5 -7 17 -19.5t18 -20.5t10 -26.5t2 -43.5q-1 -4 -1 -11.5t-1 -11.5q3 0 9.5 1t10.5 1q11 0 3 -10zM256 242q12 48 8 74
q-2 15 -8.5 19.5t-13 -2t-8.5 -20.5q-8 -43 22 -71zM249 215q-9 4 -19 12q-18 13 -31.5 37.5t-14.5 50.5q-47 -40 -77 -94q-31 -57 -41 -115.5t10 -74.5q22 -18 62.5 10t75.5 94q22 41 35 80zM160 442q5 15 22 29t37 18q16 3 67 -8t74 6q7 3 10 0.5t0 -10.5q-14 -35 -50 -44
q-25 -6 -78 4.5t-72 -3.5q-7 -4 -9.5 -1t-0.5 9z" />
    <glyph glyph-name="odieresis" unicode="&#xf6;" horiz-adv-x="332" 
d="M342 215q-10 -11 -27 -13q-17 -68 -61 -130.5t-97 -80.5q-73 -24 -126 44q-31 47 -25.5 104.5t41.5 120.5q30 54 73 90.5t86 39.5q41 3 68 -34q5 -7 17 -19.5t18 -20.5t10 -26.5t2 -43.5q-1 -4 -1 -11.5t-1 -11.5q3 0 9.5 1t10.5 1q11 0 3 -10zM256 242q12 48 8 74
q-2 15 -8.5 19.5t-13 -2t-8.5 -20.5q-8 -43 22 -71zM249 215q-9 4 -19 12q-18 13 -31.5 37.5t-14.5 50.5q-47 -40 -77 -94q-31 -57 -41 -115.5t10 -74.5q22 -18 62.5 10t75.5 94q22 41 35 80zM292 473q8 16 21 25t24 4q12 -5 15.5 -19t-3.5 -29q-7 -16 -20.5 -25t-24.5 -4
q-12 5 -15.5 19t3.5 29zM183 473q7 16 20 24t25 3q27 -13 11 -47q-5 -15 -19 -23.5t-25 -4.5q-12 4 -15.5 18t3.5 30z" />
    <glyph glyph-name="divide" unicode="&#xf7;" horiz-adv-x="314" 
d="M215 403q9 19 25 29.5t31 4.5q14 -6 18.5 -22.5t-3.5 -36.5t-24.5 -30t-31.5 -5t-19.5 22.5t4.5 37.5zM100 173q10 20 26.5 30t30.5 5q15 -5 19 -22.5t-4 -37.5q-8 -19 -25 -29.5t-32 -5.5q-14 5 -19 23t4 37zM135 239q-63 3 -73 53q-2 7 0 11t10 3q30 -2 93.5 3t80.5 5
q64 0 75 -52q2 -7 -0.5 -11t-10.5 -3q-41 3 -99.5 -3.5t-75.5 -5.5z" />
    <glyph glyph-name="oslash" unicode="&#xf8;" horiz-adv-x="330" 
d="M305 318q18 -24 15 -74q-5 -75 -54 -154.5t-110 -98.5t-107 23q-5 -6 -13.5 -18.5t-10.5 -15.5q-3 -4 -6 -5t-5 1t-3 7q-4 23 15 58q-27 47 -20.5 103t40.5 116q31 54 73.5 90t85.5 40q41 4 68 -34l2 -2q11 10 26.5 26.5t18.5 19.5q7 7 12.5 6t6.5 -10q2 -26 -34 -78z
M64 100q77 108 194 234l-3 2q-22 19 -68.5 -17.5t-80.5 -97.5q-33 -58 -42 -121zM261 263q-24 -29 -91.5 -106t-100.5 -118q1 -3 6 -8q20 -17 60.5 11.5t78.5 92.5q37 64 47 128z" />
    <glyph glyph-name="ugrave" unicode="&#xf9;" 
d="M196 81q-74 -99 -144 -94q-34 2 -49.5 25t-14.5 53.5t13 66.5q39 116 138 255q12 17 26 1q34 -51 -19 -135q-45 -72 -78 -147q-16 -37 -14 -61t19 -26q50 -4 148 154q31 50 69.5 121t54.5 93q14 20 25 6q13 -15 14 -44t-15 -68q-9 -19 -45.5 -81t-49.5 -90t-16 -50.5
t4.5 -35t25.5 -11.5q57 3 132 138q4 7 9.5 7.5t8.5 -6.5q11 -22 -9 -63q-23 -44 -65 -75.5t-85 -31.5q-47 0 -68 27t-15 72zM224 505q36 19 71 0q35 -18 88 -61q11 -9 -1 -14q-26 -10 -52 1q-12 5 -107 59q-13 8 1 15z" />
    <glyph glyph-name="uacute" unicode="&#xfa;" 
d="M196 81q-74 -99 -144 -94q-34 2 -49.5 25t-14.5 53.5t13 66.5q39 116 138 255q12 17 26 1q34 -51 -19 -135q-45 -72 -78 -147q-16 -37 -14 -61t19 -26q50 -4 148 154q31 50 69.5 121t54.5 93q14 20 25 6q13 -15 14 -44t-15 -68q-9 -19 -45.5 -81t-49.5 -90t-16 -50.5
t4.5 -35t25.5 -11.5q57 3 132 138q4 7 9.5 7.5t8.5 -6.5q11 -22 -9 -63q-23 -44 -65 -75.5t-85 -31.5q-47 0 -68 27t-15 72zM385 504q14 -9 0 -16q-11 -5 -37.5 -18.5t-46 -22.5t-31.5 -13q-32 -10 -52 -1q-13 6 1 16q61 43 95 58q38 17 71 -3z" />
    <glyph glyph-name="ucircumflex" unicode="&#xfb;" 
d="M196 81q-74 -99 -144 -94q-34 2 -49.5 25t-14.5 53.5t13 66.5q39 116 138 255q12 17 26 1q34 -51 -19 -135q-45 -72 -78 -147q-16 -37 -14 -61t19 -26q50 -4 148 154q31 50 69.5 121t54.5 93q14 20 25 6q13 -15 14 -44t-15 -68q-9 -19 -45.5 -81t-49.5 -90t-16 -50.5
t4.5 -35t25.5 -11.5q57 3 132 138q4 7 9.5 7.5t8.5 -6.5q11 -22 -9 -63q-23 -44 -65 -75.5t-85 -31.5q-47 0 -68 27t-15 72zM320 471q-44 -26 -60 -35q-27 -14 -51 -9q-16 4 -1 15q11 7 54.5 39t61.5 43q2 2 8 2l5 1q11 2 20 -13q24 -44 41 -70q7 -11 -6 -15q-29 -6 -53 18
q-11 11 -19 24z" />
    <glyph glyph-name="udieresis" unicode="&#xfc;" 
d="M196 81q-74 -99 -144 -94q-34 2 -49.5 25t-14.5 53.5t13 66.5q39 116 138 255q12 17 26 1q34 -51 -19 -135q-45 -72 -78 -147q-16 -37 -14 -61t19 -26q50 -4 148 154q31 50 69.5 121t54.5 93q14 20 25 6q13 -15 14 -44t-15 -68q-9 -19 -45.5 -81t-49.5 -90t-16 -50.5
t4.5 -35t25.5 -11.5q57 3 132 138q4 7 9.5 7.5t8.5 -6.5q11 -22 -9 -63q-23 -44 -65 -75.5t-85 -31.5q-47 0 -68 27t-15 72zM328 473q8 16 21 25t24 4q12 -5 15.5 -19t-3.5 -29q-7 -16 -20.5 -25t-24.5 -4q-12 5 -15.5 19t3.5 29zM219 473q7 16 20 24t25 3q27 -13 11 -47
q-5 -15 -19 -23.5t-25 -4.5q-12 4 -15.5 18t3.5 30z" />
    <glyph glyph-name="yacute" unicode="&#xfd;" horiz-adv-x="375" 
d="M386 97q-47 -75 -192 -134q-26 -63 -45.5 -105.5t-48 -94t-57.5 -84t-59 -43.5q-34 -13 -57 21q-9 14 -14.5 24.5t-10.5 26t-3.5 34t8.5 39.5q40 121 214 189q2 6 13.5 32t17.5 40q-57 -59 -109 -55q-50 4 -61 50t10 95q42 123 136 253q13 18 25 0q35 -47 -19 -133
q-52 -83 -77 -146q-15 -37 -13.5 -61t18.5 -25q51 -4 140 148q14 24 57.5 105t63.5 110q13 18 25 7q12 -16 13 -43.5t-17 -68.5q-86 -165 -133 -275q107 58 177 154q4 6 9.5 5.5t6.5 -7.5q5 -23 -18 -58zM104 -72q-60 -34 -101 -88t-53.5 -94.5t-2.5 -54.5q7 -10 32 18.5
t60.5 89t64.5 129.5zM370 504q14 -9 0 -16q-11 -5 -37.5 -18.5t-46 -22.5t-31.5 -13q-32 -10 -52 -1q-13 6 1 16q61 43 95 58q38 17 71 -3z" />
    <glyph glyph-name="thorn" unicode="&#xfe;" horiz-adv-x="389" 
d="M279 616q14 20 24 -1q26 -54 -30 -153q-21 -37 -58 -94q68 38 110 -5q60 -64 -11 -222q-46 -101 -105 -137q125 8 190 146q5 10 11 9t8 -9q7 -30 -13 -66q-54 -98 -178 -107q-94 -6 -141 37q-29 26 -34 67q-80 -146 -146 -299q-7 -16 -17 -2q-25 34 -1 110
q34 109 229 450q15 27 42.5 76t44.5 78.5t38 64.5t37 57zM108 181q-20 -49 -21 -88t19 -58q23 -19 65 24.5t79 118.5q29 60 36.5 113t-11.5 62q-18 9 -58.5 -25t-74.5 -90z" />
    <glyph glyph-name="ydieresis" unicode="&#xff;" horiz-adv-x="375" 
d="M386 97q-47 -75 -192 -134q-26 -63 -45.5 -105.5t-48 -94t-57.5 -84t-59 -43.5q-34 -13 -57 21q-9 14 -14.5 24.5t-10.5 26t-3.5 34t8.5 39.5q40 121 214 189q2 6 13.5 32t17.5 40q-57 -59 -109 -55q-50 4 -61 50t10 95q42 123 136 253q13 18 25 0q35 -47 -19 -133
q-52 -83 -77 -146q-15 -37 -13.5 -61t18.5 -25q51 -4 140 148q14 24 57.5 105t63.5 110q13 18 25 7q12 -16 13 -43.5t-17 -68.5q-86 -165 -133 -275q107 58 177 154q4 6 9.5 5.5t6.5 -7.5q5 -23 -18 -58zM104 -72q-60 -34 -101 -88t-53.5 -94.5t-2.5 -54.5q7 -10 32 18.5
t60.5 89t64.5 129.5zM313 473q8 16 21 25t24 4q12 -5 15.5 -19t-3.5 -29q-7 -16 -20.5 -25t-24.5 -4q-12 5 -15.5 19t3.5 29zM204 473q7 16 20 24t25 3q27 -13 11 -47q-5 -15 -19 -23.5t-25 -4.5q-12 4 -15.5 18t3.5 30z" />
    <glyph glyph-name="Amacron" unicode="&#x100;" horiz-adv-x="442" 
d="M313 157q-20 -1 -96 -9t-103 -7q-46 -79 -76 -144q-3 -7 -8.5 -7t-9.5 5q-22 30 5 102q11 28 27 57q-24 13 -33 34q-4 10 -1.5 13t13.5 2q27 -4 45 -5q66 115 157.5 237.5t165.5 183.5q22 18 36 -1q15 -21 23 -41q14 -32 0 -73q-48 -145 -73 -291q38 -13 45 -51
q3 -14 -11 -9q-18 5 -43 6q-12 -93 -15 -160q0 -16 -15 -9q-36 16 -37 91q0 36 4 76zM152 201q23 2 83 9t86 8q28 191 74 308q-124 -139 -243 -325zM387 659q-40 0 -46 38q-1 7 0 9.5t7 1.5q25 -2 85 2.5t82 4.5q40 0 46 -38q1 -6 -0.5 -8.5t-7.5 -1.5q-23 3 -88.5 -2.5
t-77.5 -5.5z" />
    <glyph glyph-name="amacron" unicode="&#x101;" horiz-adv-x="407" 
d="M324 325q22 41 36 61t24 6q13 -15 14 -43.5t-15 -67.5q-9 -19 -46 -81.5t-50 -91.5q-13 -28 -17 -50t2 -35t23 -12q29 1 66 42t65 97q9 16 16 1q10 -22 -9 -62q-21 -44 -62.5 -76.5t-81.5 -30.5t-61 24t-21 58q-61 -78 -125 -78q-46 0 -67.5 36.5t-11.5 94.5t50 117
q57 83 112.5 123t97.5 40q31 0 47 -20.5t14 -51.5zM237 170q30 53 45 93t14 60t-16 22q-25 2 -72.5 -42t-87.5 -109q-26 -42 -39 -82.5t-10 -66.5t22 -26q29 -1 66 39.5t78 111.5zM239 429q-40 0 -46 38q-1 7 0 9.5t7 1.5q25 -2 85 2.5t82 4.5q40 0 46 -38q1 -6 -0.5 -8.5
t-7.5 -1.5q-23 3 -88.5 -2.5t-77.5 -5.5z" />
    <glyph glyph-name="Abreve" unicode="&#x102;" horiz-adv-x="442" 
d="M313 157q-20 -1 -96 -9t-103 -7q-46 -79 -76 -144q-3 -7 -8.5 -7t-9.5 5q-22 30 5 102q11 28 27 57q-24 13 -33 34q-4 10 -1.5 13t13.5 2q27 -4 45 -5q66 115 157.5 237.5t165.5 183.5q22 18 36 -1q15 -21 23 -41q14 -32 0 -73q-48 -145 -73 -291q38 -13 45 -51
q3 -14 -11 -9q-18 5 -43 6q-12 -93 -15 -160q0 -16 -15 -9q-36 16 -37 91q0 36 4 76zM152 201q23 2 83 9t86 8q28 191 74 308q-124 -139 -243 -325zM406 743q10 8 16 -3q22 -38 66 -38q36 0 65 35q9 11 14 0q3 -9 -0.5 -24t-15.5 -27q-29 -31 -78 -31q-42 0 -65 24
q-14 15 -14.5 34t12.5 30z" />
    <glyph glyph-name="abreve" unicode="&#x103;" horiz-adv-x="407" 
d="M324 325q22 41 36 61t24 6q13 -15 14 -43.5t-15 -67.5q-9 -19 -46 -81.5t-50 -91.5q-13 -28 -17 -50t2 -35t23 -12q29 1 66 42t65 97q9 16 16 1q10 -22 -9 -62q-21 -44 -62.5 -76.5t-81.5 -30.5t-61 24t-21 58q-61 -78 -125 -78q-46 0 -67.5 36.5t-11.5 94.5t50 117
q57 83 112.5 123t97.5 40q31 0 47 -20.5t14 -51.5zM237 170q30 53 45 93t14 60t-16 22q-25 2 -72.5 -42t-87.5 -109q-26 -42 -39 -82.5t-10 -66.5t22 -26q29 -1 66 39.5t78 111.5zM228 523q10 8 16 -3q22 -38 66 -38q36 0 65 35q9 11 14 0q3 -9 -0.5 -24t-15.5 -27
q-29 -31 -78 -31q-42 0 -65 24q-14 15 -14.5 34t12.5 30z" />
    <glyph glyph-name="Aogonek" unicode="&#x104;" horiz-adv-x="442" 
d="M313 157q-20 -1 -96 -9t-103 -7q-46 -79 -76 -144q-3 -7 -8.5 -7t-9.5 5q-22 30 5 102q11 28 27 57q-24 13 -33 34q-4 10 -1.5 13t13.5 2q27 -4 45 -5q66 115 157.5 237.5t165.5 183.5q22 18 36 -1q15 -21 23 -41q14 -32 0 -73q-48 -145 -73 -291q38 -13 45 -51
q3 -14 -11 -9q-18 5 -43 6q-12 -93 -15 -160q0 -6 -3 -9q-6 -5 -23.5 -20.5t-25 -22t-21.5 -19.5t-20.5 -20.5t-14.5 -18t-11 -19.5t-3 -17q0 -12 9.5 -20.5t26.5 -8.5q54 0 157 88q4 4 8 4q8 0 8 -12q0 -38 -55.5 -74t-110.5 -36q-47 0 -74.5 24.5t-26.5 54.5
q1 47 43.5 86.5t97.5 53.5q-13 24 -13 68q0 36 4 76zM152 201q23 2 83 9t86 8q28 191 74 308q-124 -139 -243 -325z" />
    <glyph glyph-name="aogonek" unicode="&#x105;" horiz-adv-x="407" 
d="M324 325q22 41 36 61t24 6q13 -15 14 -43.5t-15 -67.5q-9 -19 -46 -81.5t-50 -91.5q-13 -28 -17 -50t2 -35t23 -12q29 1 66 42t65 97q9 16 16 1q10 -22 -9 -62q-12 -28 -47 -62t-69 -60t-61 -57.5t-27 -56.5q0 -12 9.5 -20.5t26.5 -8.5q54 0 157 88q4 4 8 4q8 0 8 -12
q0 -38 -55.5 -74t-110.5 -36q-47 0 -74.5 24.5t-26.5 54.5q0 67 83 116q-47 18 -47 75q-61 -78 -125 -78q-46 0 -67.5 36.5t-11.5 94.5t50 117q57 83 112.5 123t97.5 40q31 0 47 -20.5t14 -51.5zM237 170q30 53 45 93t14 60t-16 22q-25 2 -72.5 -42t-87.5 -109
q-26 -42 -39 -82.5t-10 -66.5t22 -26q29 -1 66 39.5t78 111.5z" />
    <glyph glyph-name="Cacute" unicode="&#x106;" horiz-adv-x="462" 
d="M388 206q4 8 10.5 8t10.5 -10q17 -45 -12 -94t-69 -78q-51 -36 -111 -40.5t-98 19.5q-36 19 -60.5 64t-25.5 104q-1 75 27 150.5t72.5 131.5t93.5 96.5t93 57.5q91 35 135 -3q41 -35 53 -73q13 -42 -9 -88q-11 -23 -40 -99q-6 -17 -22 -6q-44 29 -24 96q4 13 11.5 31.5
t12.5 32t9 28t3.5 25t-7.5 17.5q-14 16 -60.5 -3.5t-107 -73t-102.5 -123.5q-42 -69 -57 -141.5t-6 -122t34 -70.5q48 -39 118.5 7t127.5 157zM574 731q14 -9 0 -16q-13 -6 -38.5 -19t-45.5 -22t-31 -13q-35 -11 -53 0q-14 6 0 15q77 50 95 58q40 17 73 -3z" />
    <glyph glyph-name="cacute" unicode="&#x107;" horiz-adv-x="311" 
d="M247 386q38 -23 55 -55q5 -16 6 -26.5t-5 -28.5t-11.5 -30.5t-14.5 -31.5t-14 -32q-5 -16 -21 -8q-44 22 -24 87q3 9 8.5 22t10 22t8.5 20t4 16t-4 10q-9 7 -32.5 -9t-53.5 -52.5t-51 -79.5q-39 -85 -30 -140.5t55 -56.5q57 -1 108 41.5t89 100.5q4 6 9.5 6t8.5 -7
q7 -20 -18 -60q-29 -45 -83 -76.5t-110 -32.5q-94 -1 -124.5 76.5t19.5 174.5q46 90 110.5 132t104.5 18zM338 504q14 -9 0 -16q-11 -5 -37.5 -18.5t-46 -22.5t-31.5 -13q-32 -10 -52 -1q-13 6 1 16q61 43 95 58q38 17 71 -3z" />
    <glyph glyph-name="Ccircumflex" unicode="&#x108;" horiz-adv-x="462" 
d="M388 206q4 8 10.5 8t10.5 -10q17 -45 -12 -94t-69 -78q-51 -36 -111 -40.5t-98 19.5q-36 19 -60.5 64t-25.5 104q-1 75 27 150.5t72.5 131.5t93.5 96.5t93 57.5q91 35 135 -3q41 -35 53 -73q13 -42 -9 -88q-11 -23 -40 -99q-6 -17 -22 -6q-44 29 -24 96q4 13 11.5 31.5
t12.5 32t9 28t3.5 25t-7.5 17.5q-14 16 -60.5 -3.5t-107 -73t-102.5 -123.5q-42 -69 -57 -141.5t-6 -122t34 -70.5q48 -39 118.5 7t127.5 157zM457 694q-38 -27 -59 -37q-30 -14 -51 -8q-14 5 0 15q92 68 116 82q3 2 11 4q14 0 21 -15q20 -38 40 -70q7 -12 -6 -15
q-28 -7 -52 19q-10 10 -20 25z" />
    <glyph glyph-name="ccircumflex" unicode="&#x109;" horiz-adv-x="311" 
d="M247 386q38 -23 55 -55q5 -16 6 -26.5t-5 -28.5t-11.5 -30.5t-14.5 -31.5t-14 -32q-5 -16 -21 -8q-44 22 -24 87q3 9 8.5 22t10 22t8.5 20t4 16t-4 10q-9 7 -32.5 -9t-53.5 -52.5t-51 -79.5q-39 -85 -30 -140.5t55 -56.5q57 -1 108 41.5t89 100.5q4 6 9.5 6t8.5 -7
q7 -20 -18 -60q-29 -45 -83 -76.5t-110 -32.5q-94 -1 -124.5 76.5t19.5 174.5q46 90 110.5 132t104.5 18zM273 471q-44 -26 -60 -35q-27 -14 -51 -9q-16 4 -1 15q11 7 54.5 39t61.5 43q2 2 7 2l6 1q11 2 20 -13q24 -44 41 -70q7 -11 -6 -15q-29 -6 -53 18q-11 11 -19 24z
" />
    <glyph glyph-name="Cdotaccent" unicode="&#x10a;" horiz-adv-x="462" 
d="M388 206q4 8 10.5 8t10.5 -10q17 -45 -12 -94t-69 -78q-51 -36 -111 -40.5t-98 19.5q-36 19 -60.5 64t-25.5 104q-1 75 27 150.5t72.5 131.5t93.5 96.5t93 57.5q91 35 135 -3q41 -35 53 -73q13 -42 -9 -88q-11 -23 -40 -99q-6 -17 -22 -6q-44 29 -24 96q4 13 11.5 31.5
t12.5 32t9 28t3.5 25t-7.5 17.5q-14 16 -60.5 -3.5t-107 -73t-102.5 -123.5q-42 -69 -57 -141.5t-6 -122t34 -70.5q48 -39 118.5 7t127.5 157zM524 723q19 -39 -7 -67q-9 -11 -27 -7.5t-29 22.5q-11 21 -9.5 41t14.5 33q12 13 30 5.5t28 -27.5z" />
    <glyph glyph-name="cdotaccent" unicode="&#x10b;" horiz-adv-x="311" 
d="M247 386q38 -23 55 -55q5 -16 6 -26.5t-5 -28.5t-11.5 -30.5t-14.5 -31.5t-14 -32q-5 -16 -21 -8q-44 22 -24 87q3 9 8.5 22t10 22t8.5 20t4 16t-4 10q-9 7 -32.5 -9t-53.5 -52.5t-51 -79.5q-39 -85 -30 -140.5t55 -56.5q57 -1 108 41.5t89 100.5q4 6 9.5 6t8.5 -7
q7 -20 -18 -60q-29 -45 -83 -76.5t-110 -32.5q-94 -1 -124.5 76.5t19.5 174.5q46 90 110.5 132t104.5 18zM288 503q19 -39 -7 -67q-9 -11 -27 -7.5t-29 22.5q-11 21 -9.5 41t14.5 33q12 13 30 5.5t28 -27.5z" />
    <glyph glyph-name="Ccaron" unicode="&#x10c;" horiz-adv-x="462" 
d="M388 206q4 8 10.5 8t10.5 -10q17 -45 -12 -94t-69 -78q-51 -36 -111 -40.5t-98 19.5q-36 19 -60.5 64t-25.5 104q-1 75 27 150.5t72.5 131.5t93.5 96.5t93 57.5q91 35 135 -3q41 -35 53 -73q13 -42 -9 -88q-11 -23 -40 -99q-6 -17 -22 -6q-44 29 -24 96q4 13 11.5 31.5
t12.5 32t9 28t3.5 25t-7.5 17.5q-14 16 -60.5 -3.5t-107 -73t-102.5 -123.5q-42 -69 -57 -141.5t-6 -122t34 -70.5q48 -39 118.5 7t127.5 157zM503 702q38 27 59 37q30 14 51 8q14 -5 0 -15q-92 -68 -116 -82q-3 -2 -11 -4q-14 0 -21 15q-20 38 -40 70q-7 12 6 15
q28 7 52 -19q10 -10 20 -25z" />
    <glyph glyph-name="ccaron" unicode="&#x10d;" horiz-adv-x="311" 
d="M247 386q38 -23 55 -55q5 -16 6 -26.5t-5 -28.5t-11.5 -30.5t-14.5 -31.5t-14 -32q-5 -16 -21 -8q-44 22 -24 87q3 9 8.5 22t10 22t8.5 20t4 16t-4 10q-9 7 -32.5 -9t-53.5 -52.5t-51 -79.5q-39 -85 -30 -140.5t55 -56.5q57 -1 108 41.5t89 100.5q4 6 9.5 6t8.5 -7
q7 -20 -18 -60q-29 -45 -83 -76.5t-110 -32.5q-94 -1 -124.5 76.5t19.5 174.5q46 90 110.5 132t104.5 18zM277 482q38 27 59 37q30 14 51 8q14 -5 0 -15q-92 -68 -116 -82q-3 -2 -11 -4q-14 0 -21 15q-20 38 -40 70q-7 12 6 15q28 7 52 -19q10 -10 20 -25z" />
    <glyph glyph-name="Dcaron" unicode="&#x10e;" horiz-adv-x="483" 
d="M210 501q-49 3 -65 42q-6 17 10 19q36 5 94.5 29.5t89.5 29.5q93 14 151 -88q25 -50 24.5 -109t-32 -125t-79.5 -124.5t-118.5 -107.5t-148.5 -75q-39 -13 -64 7q-29 24 -42 43q-15 21 -16.5 38.5t13.5 67.5q23 69 76.5 171t106.5 182zM263 511q9 -44 -26 -105
q-2 -3 -39.5 -69t-51 -91.5t-36.5 -73.5t-33 -80t-4 -42.5t28 -2.5q66 25 124 65.5t98.5 85.5t72 95t44 94t15.5 82.5t-14 61.5q-12 20 -34 23t-40.5 -3t-53 -20.5t-50.5 -19.5zM433 702q38 27 59 37q30 14 51 8q14 -5 0 -15q-92 -68 -116 -82q-3 -2 -11 -4q-14 0 -21 15
q-20 38 -40 70q-7 12 6 15q28 7 52 -19q10 -10 20 -25z" />
    <glyph glyph-name="dcaron" unicode="&#x10f;" horiz-adv-x="631" 
d="M561 458q-13 -16 -29 -13q-5 1 -8.5 5.5t-0.5 10.5q14 35 47.5 91.5t56.5 81.5q8 9 16.5 8t10.5 -9q10 -27 -7 -54q-39 -64 -86 -121zM277 108q-14 -29 -18.5 -51t1.5 -34.5t23 -11.5q29 1 65.5 41.5t64.5 96.5q9 16 16 1q10 -24 -8 -62q-21 -43 -62.5 -75t-81.5 -30
q-81 5 -81 80q-62 -77 -124 -77q-46 0 -67 36.5t-11.5 94.5t49.5 116q55 81 111 121t98 40q29 0 45 -19.5t15 -48.5q112 213 166 290q16 22 24 0q23 -54 -31 -151q-9 -16 -42.5 -75t-55.5 -98.5t-50.5 -93t-45.5 -90.5zM268 343q-24 1 -71.5 -42.5t-87.5 -107.5
q-26 -42 -39 -82.5t-9.5 -66t22.5 -25.5q30 -1 67.5 39.5t73.5 109.5q84 160 49 174z" />
    <glyph glyph-name="Dcroat" unicode="&#x110;" horiz-adv-x="483" 
d="M210 501q-49 3 -65 42q-6 17 10 19q36 5 94.5 29.5t89.5 29.5q93 14 151 -88q25 -50 24.5 -109t-32 -125t-79.5 -124.5t-118.5 -107.5t-148.5 -75q-39 -13 -64 7q-29 24 -42 43q-15 21 -16.5 38.5t13.5 67.5q23 69 76.5 171t106.5 182zM263 511q9 -44 -26 -105
q-2 -3 -39.5 -69t-51 -91.5t-36.5 -73.5t-33 -80t-4 -42.5t28 -2.5q66 25 124 65.5t98.5 85.5t72 95t44 94t15.5 82.5t-14 61.5q-12 20 -34 23t-40.5 -3t-53 -20.5t-50.5 -19.5zM85 279q-63 3 -73 53q-2 7 0 11t10 3q30 -2 93.5 3t80.5 5q64 0 75 -52q2 -7 -0.5 -11
t-10.5 -3q-41 3 -99.5 -3.5t-75.5 -5.5z" />
    <glyph glyph-name="dcroat" unicode="&#x111;" horiz-adv-x="401" 
d="M277 108q-14 -29 -18.5 -51t1.5 -34.5t23 -11.5q29 1 65.5 41.5t64.5 96.5q9 16 16 1q10 -24 -8 -62q-21 -43 -62.5 -75t-81.5 -30q-81 5 -81 80q-62 -77 -124 -77q-46 0 -67 36.5t-11.5 94.5t49.5 116q55 81 111 121t98 40q29 0 45 -19.5t15 -48.5q112 213 166 290
q16 22 24 0q23 -54 -31 -151q-9 -16 -42.5 -75t-55.5 -98.5t-50.5 -93t-45.5 -90.5zM268 343q-24 1 -71.5 -42.5t-87.5 -107.5q-26 -42 -39 -82.5t-9.5 -66t22.5 -25.5q30 -1 67.5 39.5t73.5 109.5q84 160 49 174zM384 454q-63 3 -73 53q-2 7 0 11t10 3q30 -2 93.5 3t80.5 5
q64 0 75 -52q2 -7 -0.5 -11t-10.5 -3q-41 3 -99.5 -3.5t-75.5 -5.5z" />
    <glyph glyph-name="Emacron" unicode="&#x112;" horiz-adv-x="368" 
d="M218 525q-31 12 -42 51q-2 7 1 10t10 2q47 -3 138.5 11t110.5 14q58 1 76 -49q3 -6 0 -10t-11 -3q-25 0 -54.5 -3t-50 -6.5t-52 -9.5t-46.5 -8q-46 -69 -138 -236q31 6 71 8q67 3 82 -45q5 -15 -10 -15q-73 0 -185 -28q-47 -90 -77 -158q89 28 155 31q68 3 85 -44
q5 -15 -10 -15q-67 1 -221 -40q-28 -7 -42 10q-3 3 -21 37q-12 22 1 57q33 89 99 213.5t131 225.5zM320 659q-40 0 -46 38q-1 7 0 9.5t7 1.5q25 -2 85 2.5t82 4.5q40 0 46 -38q1 -6 -0.5 -8.5t-7.5 -1.5q-23 3 -88.5 -2.5t-77.5 -5.5z" />
    <glyph glyph-name="emacron" unicode="&#x113;" horiz-adv-x="320" 
d="M92 171q-23 -69 -9.5 -112.5t54.5 -45.5q56 -3 108 39.5t91 102.5q10 15 17 -1q4 -7 -0.5 -25.5t-16.5 -36.5q-32 -47 -85.5 -77t-110.5 -31q-94 -1 -125 77t19 175q46 92 111.5 133.5t105.5 18.5q38 -23 59 -52q15 -16 6.5 -58t-38.5 -78q-26 -31 -54.5 -47t-63 -12.5
t-68.5 30.5zM101 193q55 -34 119 50q25 32 37.5 64.5t2.5 40.5q-11 9 -37.5 -6t-59 -51t-54.5 -81q-6 -12 -8 -17zM196 429q-40 0 -46 38q-1 7 0 9.5t7 1.5q25 -2 85 2.5t82 4.5q40 0 46 -38q1 -6 -0.5 -8.5t-7.5 -1.5q-23 3 -88.5 -2.5t-77.5 -5.5z" />
    <glyph glyph-name="Ebreve" unicode="&#x114;" horiz-adv-x="368" 
d="M218 525q-31 12 -42 51q-2 7 1 10t10 2q47 -3 138.5 11t110.5 14q58 1 76 -49q3 -6 0 -10t-11 -3q-25 0 -54.5 -3t-50 -6.5t-52 -9.5t-46.5 -8q-46 -69 -138 -236q31 6 71 8q67 3 82 -45q5 -15 -10 -15q-73 0 -185 -28q-47 -90 -77 -158q89 28 155 31q68 3 85 -44
q5 -15 -10 -15q-67 1 -221 -40q-28 -7 -42 10q-3 3 -21 37q-12 22 1 57q33 89 99 213.5t131 225.5zM309 743q10 8 16 -3q22 -38 66 -38q36 0 65 35q9 11 14 0q3 -9 -0.5 -24t-15.5 -27q-29 -31 -78 -31q-42 0 -65 24q-14 15 -14.5 34t12.5 30z" />
    <glyph glyph-name="ebreve" unicode="&#x115;" horiz-adv-x="320" 
d="M92 171q-23 -69 -9.5 -112.5t54.5 -45.5q56 -3 108 39.5t91 102.5q10 15 17 -1q4 -7 -0.5 -25.5t-16.5 -36.5q-32 -47 -85.5 -77t-110.5 -31q-94 -1 -125 77t19 175q46 92 111.5 133.5t105.5 18.5q38 -23 59 -52q15 -16 6.5 -58t-38.5 -78q-26 -31 -54.5 -47t-63 -12.5
t-68.5 30.5zM101 193q55 -34 119 50q25 32 37.5 64.5t2.5 40.5q-11 9 -37.5 -6t-59 -51t-54.5 -81q-6 -12 -8 -17zM225 523q10 8 16 -3q22 -38 66 -38q36 0 65 35q9 11 14 0q3 -9 -0.5 -24t-15.5 -27q-29 -31 -78 -31q-42 0 -65 24q-14 15 -14.5 34t12.5 30z" />
    <glyph glyph-name="Edotaccent" unicode="&#x116;" horiz-adv-x="368" 
d="M218 525q-31 12 -42 51q-2 7 1 10t10 2q47 -3 138.5 11t110.5 14q58 1 76 -49q3 -6 0 -10t-11 -3q-25 0 -54.5 -3t-50 -6.5t-52 -9.5t-46.5 -8q-46 -69 -138 -236q31 6 71 8q67 3 82 -45q5 -15 -10 -15q-73 0 -185 -28q-47 -90 -77 -158q89 28 155 31q68 3 85 -44
q5 -15 -10 -15q-67 1 -221 -40q-28 -7 -42 10q-3 3 -21 37q-12 22 1 57q33 89 99 213.5t131 225.5zM417 723q19 -39 -7 -67q-9 -11 -27 -7.5t-29 22.5q-11 21 -9.5 41t14.5 33q12 13 30 5.5t28 -27.5z" />
    <glyph glyph-name="edotaccent" unicode="&#x117;" horiz-adv-x="320" 
d="M92 171q-23 -69 -9.5 -112.5t54.5 -45.5q56 -3 108 39.5t91 102.5q10 15 17 -1q4 -7 -0.5 -25.5t-16.5 -36.5q-32 -47 -85.5 -77t-110.5 -31q-94 -1 -125 77t19 175q46 92 111.5 133.5t105.5 18.5q38 -23 59 -52q15 -16 6.5 -58t-38.5 -78q-26 -31 -54.5 -47t-63 -12.5
t-68.5 30.5zM101 193q55 -34 119 50q25 32 37.5 64.5t2.5 40.5q-11 9 -37.5 -6t-59 -51t-54.5 -81q-6 -12 -8 -17zM323 503q19 -39 -7 -67q-9 -11 -27 -7.5t-29 22.5q-11 21 -9.5 41t14.5 33q12 13 30 5.5t28 -27.5z" />
    <glyph glyph-name="Eogonek" unicode="&#x118;" horiz-adv-x="368" 
d="M51 -127q1 47 46 87.5t103 61.5q1 0 -2 -5l-1 -2q-75 -13 -147 -33q-28 -7 -42 10q-3 3 -21 37q-12 22 1 57q33 89 99 213.5t131 225.5q-31 12 -42 51q-2 7 1 10t10 2q47 -3 138.5 11t110.5 14q58 1 76 -49q3 -6 0 -10t-11 -3q-25 0 -54.5 -3t-50 -6.5t-52 -9.5t-46.5 -8
q-46 -69 -138 -236q31 6 71 8q67 3 82 -45q5 -15 -10 -15q-73 0 -185 -28q-47 -90 -77 -158q89 28 155 31q69 3 85 -44q2 -5 -10 -15q-115 -94 -139 -122q-23 -27 -23 -47q0 -12 9.5 -20.5t26.5 -8.5q54 0 157 88q4 4 8 4q8 0 8 -12q0 -38 -55.5 -74t-110.5 -36
q-47 0 -74.5 24.5t-26.5 54.5z" />
    <glyph glyph-name="eogonek" unicode="&#x119;" horiz-adv-x="320" 
d="M31 -127q0 66 81 113q-78 11 -101 86t23 164q46 92 111.5 133.5t105.5 18.5q38 -23 59 -52q15 -16 6.5 -58t-38.5 -78q-26 -31 -54.5 -47t-63 -12.5t-68.5 30.5q-23 -69 -9.5 -112.5t54.5 -45.5q56 -3 108 39.5t91 102.5q10 15 17 -1q4 -7 -0.5 -25.5t-16.5 -36.5
q-33 -47 -74 -70q-80 -52 -126.5 -92.5t-46.5 -76.5q0 -12 9.5 -20.5t26.5 -8.5q54 0 157 88q4 4 8 4q8 0 8 -12q0 -38 -55.5 -74t-110.5 -36q-47 0 -74.5 24.5t-26.5 54.5zM101 193q55 -34 119 50q25 32 37.5 64.5t2.5 40.5q-11 9 -37.5 -6t-59 -51t-54.5 -81z" />
    <glyph glyph-name="Ecaron" unicode="&#x11a;" horiz-adv-x="368" 
d="M218 525q-31 12 -42 51q-2 7 1 10t10 2q47 -3 138.5 11t110.5 14q58 1 76 -49q3 -6 0 -10t-11 -3q-25 0 -54.5 -3t-50 -6.5t-52 -9.5t-46.5 -8q-46 -69 -138 -236q31 6 71 8q67 3 82 -45q5 -15 -10 -15q-73 0 -185 -28q-47 -90 -77 -158q89 28 155 31q68 3 85 -44
q5 -15 -10 -15q-67 1 -221 -40q-28 -7 -42 10q-3 3 -21 37q-12 22 1 57q33 89 99 213.5t131 225.5zM366 702q38 27 59 37q30 14 51 8q14 -5 0 -15q-92 -68 -116 -82q-2 -2 -11 -4q-13 0 -21 15q-20 38 -40 70q-8 12 6 15q28 7 52 -19q10 -10 20 -25z" />
    <glyph glyph-name="ecaron" unicode="&#x11b;" horiz-adv-x="320" 
d="M92 171q-23 -69 -9.5 -112.5t54.5 -45.5q56 -3 108 39.5t91 102.5q10 15 17 -1q4 -7 -0.5 -25.5t-16.5 -36.5q-32 -47 -85.5 -77t-110.5 -31q-94 -1 -125 77t19 175q46 92 111.5 133.5t105.5 18.5q38 -23 59 -52q15 -16 6.5 -58t-38.5 -78q-26 -31 -54.5 -47t-63 -12.5
t-68.5 30.5zM101 193q55 -34 119 50q25 32 37.5 64.5t2.5 40.5q-11 9 -37.5 -6t-59 -51t-54.5 -81q-6 -12 -8 -17zM292 482q38 27 59 37q30 14 51 8q14 -5 0 -15q-92 -68 -116 -82q-2 -2 -11 -4q-13 0 -21 15q-20 38 -40 70q-8 12 6 15q28 7 52 -19q10 -10 20 -25z" />
    <glyph glyph-name="Gcircumflex" unicode="&#x11c;" horiz-adv-x="500" 
d="M412 192q17 -63 -39.5 -123.5t-106.5 -74.5q-102 -29 -167 20q-66 49 -67 154q-1 76 31.5 153.5t82 135t102.5 98.5t97 55q88 28 135 -6q39 -28 52 -71q13 -41 -7 -87q-18 -40 -39 -96q-7 -18 -21 -5q-43 30 -26 95q4 15 13 38t14 36.5t7.5 31.5t-6.5 22q-16 17 -66.5 -3
t-114.5 -73.5t-109 -121.5q-44 -67 -62.5 -139.5t-13.5 -122.5t26 -69q41 -38 114 8t119 137q-64 -12 -88 -14q-70 -7 -96 48q-8 16 10 16q41 1 114 14t101 13q68 1 91 -51q4 -8 1.5 -12.5t-11.5 -3.5q-28 3 -70 -2zM476 694q-38 -27 -59 -37q-30 -14 -51 -8q-14 5 0 15
q92 68 116 82q2 2 11 4q13 0 21 -15q20 -38 40 -70q8 -12 -6 -15q-28 -7 -52 19q-10 10 -20 25z" />
    <glyph glyph-name="gcircumflex" unicode="&#x11d;" horiz-adv-x="401" 
d="M415 90q-51 -79 -194 -131q-25 -61 -45 -104.5t-47.5 -94t-56.5 -83t-58 -43.5q-34 -14 -58 21q-41 59 -20 124q39 122 214 189q6 12 15.5 35.5t13.5 33.5q-50 -50 -101 -50q-45 0 -66.5 36t-11.5 93.5t49 115.5q55 81 111 121t99 40q29 0 44.5 -19t14.5 -47l33 55
q13 22 25 6q13 -15 14 -43t-16 -67q-109 -218 -135 -278q106 53 179 150q3 4 6.5 5.5t6.5 -0.5t4 -7q4 -19 -20 -58zM231 168q74 128 56 165q-4 8 -13 9q-24 2 -71.5 -42t-87.5 -107q-26 -42 -39 -83t-9.5 -66.5t23.5 -25.5q28 -1 64 39.5t77 110.5zM133 -73
q-60 -35 -101 -88.5t-53.5 -94.5t-2.5 -54q7 -10 31.5 17.5t59.5 87.5t66 132zM318 471q-44 -26 -60 -35q-27 -14 -51 -9q-16 4 -1 15q11 7 54.5 39t61.5 43q2 2 8 2l5 1q11 2 20 -13q24 -44 41 -70q7 -11 -6 -15q-29 -6 -53 18q-11 11 -19 24z" />
    <glyph glyph-name="Gbreve" unicode="&#x11e;" horiz-adv-x="500" 
d="M412 192q17 -63 -39.5 -123.5t-106.5 -74.5q-102 -29 -167 20q-66 49 -67 154q-1 76 31.5 153.5t82 135t102.5 98.5t97 55q88 28 135 -6q39 -28 52 -71q13 -41 -7 -87q-18 -40 -39 -96q-7 -18 -21 -5q-43 30 -26 95q4 15 13 38t14 36.5t7.5 31.5t-6.5 22q-16 17 -66.5 -3
t-114.5 -73.5t-109 -121.5q-44 -67 -62.5 -139.5t-13.5 -122.5t26 -69q41 -38 114 8t119 137q-64 -12 -88 -14q-70 -7 -96 48q-8 16 10 16q41 1 114 14t101 13q68 1 91 -51q4 -8 1.5 -12.5t-11.5 -3.5q-28 3 -70 -2zM415 743q10 8 16 -3q22 -38 66 -38q36 0 65 35q9 11 14 0
q3 -9 -0.5 -24t-15.5 -27q-29 -31 -78 -31q-42 0 -65 24q-14 15 -14.5 34t12.5 30z" />
    <glyph glyph-name="gbreve" unicode="&#x11f;" horiz-adv-x="401" 
d="M415 90q-51 -79 -194 -131q-25 -61 -45 -104.5t-47.5 -94t-56.5 -83t-58 -43.5q-34 -14 -58 21q-41 59 -20 124q39 122 214 189q6 12 15.5 35.5t13.5 33.5q-50 -50 -101 -50q-45 0 -66.5 36t-11.5 93.5t49 115.5q55 81 111 121t99 40q29 0 44.5 -19t14.5 -47l33 55
q13 22 25 6q13 -15 14 -43t-16 -67q-109 -218 -135 -278q106 53 179 150q3 4 6.5 5.5t6.5 -0.5t4 -7q4 -19 -20 -58zM231 168q74 128 56 165q-4 8 -13 9q-24 2 -71.5 -42t-87.5 -107q-26 -42 -39 -83t-9.5 -66.5t23.5 -25.5q28 -1 64 39.5t77 110.5zM133 -73
q-60 -35 -101 -88.5t-53.5 -94.5t-2.5 -54q7 -10 31.5 17.5t59.5 87.5t66 132zM235 523q10 8 16 -3q22 -38 66 -38q36 0 65 35q9 11 14 0q3 -9 -0.5 -24t-15.5 -27q-29 -31 -78 -31q-42 0 -65 24q-14 15 -14.5 34t12.5 30z" />
    <glyph glyph-name="Gdotaccent" unicode="&#x120;" horiz-adv-x="500" 
d="M412 192q17 -63 -39.5 -123.5t-106.5 -74.5q-102 -29 -167 20q-66 49 -67 154q-1 76 31.5 153.5t82 135t102.5 98.5t97 55q88 28 135 -6q39 -28 52 -71q13 -41 -7 -87q-18 -40 -39 -96q-7 -18 -21 -5q-43 30 -26 95q4 15 13 38t14 36.5t7.5 31.5t-6.5 22q-16 17 -66.5 -3
t-114.5 -73.5t-109 -121.5q-44 -67 -62.5 -139.5t-13.5 -122.5t26 -69q41 -38 114 8t119 137q-64 -12 -88 -14q-70 -7 -96 48q-8 16 10 16q41 1 114 14t101 13q68 1 91 -51q4 -8 1.5 -12.5t-11.5 -3.5q-28 3 -70 -2zM533 723q19 -39 -7 -67q-9 -11 -27 -7.5t-29 22.5
q-11 21 -9.5 41t14.5 33q12 13 30 5.5t28 -27.5z" />
    <glyph glyph-name="gdotaccent" unicode="&#x121;" horiz-adv-x="401" 
d="M415 90q-51 -79 -194 -131q-25 -61 -45 -104.5t-47.5 -94t-56.5 -83t-58 -43.5q-34 -14 -58 21q-41 59 -20 124q39 122 214 189q6 12 15.5 35.5t13.5 33.5q-50 -50 -101 -50q-45 0 -66.5 36t-11.5 93.5t49 115.5q55 81 111 121t99 40q29 0 44.5 -19t14.5 -47l33 55
q13 22 25 6q13 -15 14 -43t-16 -67q-109 -218 -135 -278q106 53 179 150q3 4 6.5 5.5t6.5 -0.5t4 -7q4 -19 -20 -58zM231 168q74 128 56 165q-4 8 -13 9q-24 2 -71.5 -42t-87.5 -107q-26 -42 -39 -83t-9.5 -66.5t23.5 -25.5q28 -1 64 39.5t77 110.5zM133 -73
q-60 -35 -101 -88.5t-53.5 -94.5t-2.5 -54q7 -10 31.5 17.5t59.5 87.5t66 132zM363 503q19 -39 -7 -67q-9 -11 -27 -7.5t-29 22.5q-11 21 -9.5 41t14.5 33q12 13 30 5.5t28 -27.5z" />
    <glyph glyph-name="uni0122" unicode="&#x122;" horiz-adv-x="500" 
d="M412 192q17 -63 -39.5 -123.5t-106.5 -74.5q-102 -29 -167 20q-66 49 -67 154q-1 76 31.5 153.5t82 135t102.5 98.5t97 55q88 28 135 -6q39 -28 52 -71q13 -41 -7 -87q-18 -40 -39 -96q-7 -18 -21 -5q-43 30 -26 95q4 15 13 38t14 36.5t7.5 31.5t-6.5 22q-16 17 -66.5 -3
t-114.5 -73.5t-109 -121.5q-44 -67 -62.5 -139.5t-13.5 -122.5t26 -69q41 -38 114 8t119 137q-64 -12 -88 -14q-70 -7 -96 48q-8 16 10 16q41 1 114 14t101 13q68 1 91 -51q4 -8 1.5 -12.5t-11.5 -3.5q-28 3 -70 -2zM93 -165q-24 13 -16 47q5 22 20.5 35t31.5 12
q18 -1 27 -21.5t0 -46.5q-10 -30 -37 -47t-53 -7q-5 2 -4.5 6t4.5 6q16 6 27 16z" />
    <glyph glyph-name="uni0123" unicode="&#x123;" horiz-adv-x="401" 
d="M334 518q24 -13 16 -47q-5 -22 -20.5 -35t-31.5 -12q-18 1 -27 21.5t0 46.5q10 30 37 47t53 7q5 -2 4.5 -6t-4.5 -6q-16 -6 -27 -16zM415 90q-51 -79 -194 -131q-25 -61 -45 -104.5t-47.5 -94t-56.5 -83t-58 -43.5q-34 -14 -58 21q-41 59 -20 124q39 122 214 189
q6 12 15.5 35.5t13.5 33.5q-50 -50 -101 -50q-45 0 -66.5 36t-11.5 93.5t49 115.5q55 81 111 121t99 40q29 0 44.5 -19t14.5 -47l33 55q13 22 25 6q13 -15 14 -43t-16 -67q-109 -218 -135 -278q106 53 179 150q3 4 6.5 5.5t6.5 -0.5t4 -7q4 -19 -20 -58zM231 168
q74 128 56 165q-4 8 -13 9q-24 2 -71.5 -42t-87.5 -107q-26 -42 -39 -83t-9.5 -66.5t23.5 -25.5q28 -1 64 39.5t77 110.5zM133 -73q-60 -35 -101 -88.5t-53.5 -94.5t-2.5 -54q7 -10 31.5 17.5t59.5 87.5t66 132z" />
    <glyph glyph-name="Hcircumflex" unicode="&#x124;" horiz-adv-x="488" 
d="M558 465q-11 -21 -49.5 -88t-62.5 -111q32 -14 39 -44q2 -6 -1 -9t-10 -2q-24 5 -56 3q-55 -105 -102 -212q-7 -17 -17 -2q-27 38 -3 110q12 35 42 96q-178 -22 -197 -22q-49 -98 -91 -195q-8 -19 -18 -4q-26 36 -5 110q4 15 43 102q-23 11 -34 32q-5 9 -2 12.5t15 2.5
q3 0 18.5 -1.5t23.5 -1.5q49 103 108.5 212.5t89.5 151.5q14 18 24 -1q26 -49 -25 -148q-15 -28 -53.5 -98.5t-60.5 -111.5q24 3 91.5 15.5t105.5 14.5q129 257 193 341q15 20 25 -1q25 -51 -31 -151zM470 694q-38 -27 -59 -37q-30 -14 -51 -8q-14 5 0 15q92 68 116 82
q2 2 11 4q13 0 21 -15q20 -38 40 -70q8 -12 -6 -15q-28 -7 -52 19q-10 10 -20 25z" />
    <glyph glyph-name="hcircumflex" unicode="&#x125;" horiz-adv-x="377" 
d="M399 91q-22 -44 -63.5 -75.5t-84.5 -31.5q-61 0 -80 41.5t5 106.5q14 41 44 93t48.5 82.5t11.5 34.5q-8 4 -39.5 -14.5t-73 -57.5t-68.5 -83q-63 -103 -97 -190q-7 -16 -17 -4q-29 33 -4 106q26 74 144 275t180 278q15 20 24 -1q25 -55 -28 -142q-9 -16 -120 -188
q32 31 66 51.5t54 18.5q28 -3 42 -34.5t-3 -70.5q-8 -16 -44 -78t-49 -91q-12 -29 -15 -53t5.5 -37.5t26.5 -12.5q29 1 65 43t62 95q3 7 9 7t9 -6q10 -22 -10 -62zM334 714q-38 -27 -59 -37q-30 -14 -51 -8q-14 5 0 15q92 68 116 82q2 2 11 4q13 0 21 -15q20 -38 40 -70
q8 -12 -6 -15q-28 -7 -52 19q-10 10 -20 25z" />
    <glyph glyph-name="Hbar" unicode="&#x126;" horiz-adv-x="488" 
d="M176 391q-64 1 -71 44q-3 14 11 14q95 -3 226.5 19.5t198.5 21.5q37 -1 53.5 -11t20.5 -33q2 -7 -1 -11t-12 -3q-65 5 -203 -18.5t-223 -22.5zM558 465q-11 -21 -49.5 -88t-62.5 -111q32 -14 39 -44q2 -6 -1 -9t-10 -2q-24 5 -56 3q-55 -105 -102 -212q-7 -17 -17 -2
q-27 38 -3 110q12 35 42 96q-178 -22 -197 -22q-49 -98 -91 -195q-8 -19 -18 -4q-26 36 -5 110q4 15 43 102q-23 11 -34 32q-5 9 -2 12.5t15 2.5q3 0 18.5 -1.5t23.5 -1.5q49 103 108.5 212.5t89.5 151.5q14 18 24 -1q26 -49 -25 -148q-15 -28 -53.5 -98.5t-60.5 -111.5
q24 3 91.5 15.5t105.5 14.5q129 257 193 341q15 20 25 -1q25 -51 -31 -151z" />
    <glyph glyph-name="hbar" unicode="&#x127;" horiz-adv-x="377" 
d="M187 454q-63 3 -73 53q-2 7 0 11t10 3q30 -2 93.5 3t80.5 5q64 0 75 -52q2 -7 -0.5 -11t-10.5 -3q-41 3 -99.5 -3.5t-75.5 -5.5zM399 91q-22 -44 -63.5 -75.5t-84.5 -31.5q-61 0 -80 41.5t5 106.5q14 41 44 93t48.5 82.5t11.5 34.5q-8 4 -39.5 -14.5t-73 -57.5t-68.5 -83
q-63 -103 -97 -190q-7 -16 -17 -4q-29 33 -4 106q26 74 144 275t180 278q15 20 24 -1q25 -55 -28 -142q-9 -16 -120 -188q32 31 66 51.5t54 18.5q28 -3 42 -34.5t-3 -70.5q-8 -16 -44 -78t-49 -91q-12 -29 -15 -53t5.5 -37.5t26.5 -12.5q29 1 65 43t62 95q3 7 9 7t9 -6
q10 -22 -10 -62z" />
    <glyph glyph-name="Itilde" unicode="&#x128;" horiz-adv-x="182" 
d="M269 616q14 20 24 -1q26 -54 -30 -153q-173 -304 -245 -466q-6 -14 -16 -2q-32 34 -4 111q35 98 121 258.5t150 252.5zM190 690q6 14 23 25t39 11q17 0 64.5 -17.5t80.5 -7.5q8 2 11 -1t-1 -11q-16 -32 -55 -35q-25 -2 -76.5 17t-77.5 10q-6 -2 -8 0.5t0 8.5z" />
    <glyph glyph-name="itilde" unicode="&#x129;" horiz-adv-x="201" 
d="M69 -15q-55 0 -72.5 42.5t5.5 103.5q18 51 58 125.5t70 117.5q13 18 24 6q13 -14 14 -42t-15 -67q-8 -16 -40 -75t-44 -87q-18 -44 -16 -70t26 -25q32 1 69 42t61 95q8 15 16 0q12 -23 -7 -62q-22 -46 -64 -75t-85 -29zM75 442q5 15 22 29t37 18q16 3 67 -8t74 6
q7 3 10 0.5t0 -10.5q-14 -35 -50 -44q-25 -6 -78 4.5t-72 -3.5q-7 -4 -9.5 -1t-0.5 9z" />
    <glyph glyph-name="Imacron" unicode="&#x12a;" horiz-adv-x="182" 
d="M269 616q14 20 24 -1q26 -54 -30 -153q-173 -304 -245 -466q-6 -14 -16 -2q-32 34 -4 111q35 98 121 258.5t150 252.5zM237 659q-40 0 -46 38q-1 7 0 9.5t7 1.5q25 -2 85 2.5t82 4.5q40 0 46 -38q1 -6 -0.5 -8.5t-7.5 -1.5q-23 3 -88.5 -2.5t-77.5 -5.5z" />
    <glyph glyph-name="imacron" unicode="&#x12b;" horiz-adv-x="201" 
d="M69 -15q-55 0 -72.5 42.5t5.5 103.5q18 51 58 125.5t70 117.5q13 18 24 6q13 -14 14 -42t-15 -67q-8 -16 -40 -75t-44 -87q-18 -44 -16 -70t26 -25q32 1 69 42t61 95q8 15 16 0q12 -23 -7 -62q-22 -46 -64 -75t-85 -29zM107 429q-40 0 -46 38q-1 7 0 9.5t7 1.5
q25 -2 85 2.5t82 4.5q40 0 46 -38q1 -6 -0.5 -8.5t-7.5 -1.5q-23 3 -88.5 -2.5t-77.5 -5.5z" />
    <glyph glyph-name="Ibreve" unicode="&#x12c;" horiz-adv-x="182" 
d="M269 616q14 20 24 -1q26 -54 -30 -153q-173 -304 -245 -466q-6 -14 -16 -2q-32 34 -4 111q35 98 121 258.5t150 252.5zM266 743q10 8 16 -3q22 -38 66 -38q36 0 65 35q9 11 14 0q3 -9 -0.5 -24t-15.5 -27q-29 -31 -78 -31q-42 0 -65 24q-14 15 -14.5 34t12.5 30z" />
    <glyph glyph-name="ibreve" unicode="&#x12d;" horiz-adv-x="201" 
d="M69 -15q-55 0 -72.5 42.5t5.5 103.5q18 51 58 125.5t70 117.5q13 18 24 6q13 -14 14 -42t-15 -67q-8 -16 -40 -75t-44 -87q-18 -44 -16 -70t26 -25q32 1 69 42t61 95q8 15 16 0q12 -23 -7 -62q-22 -46 -64 -75t-85 -29zM145 523q10 8 16 -3q22 -38 66 -38q36 0 65 35
q9 11 14 0q3 -9 -0.5 -24t-15.5 -27q-29 -31 -78 -31q-42 0 -65 24q-14 15 -14.5 34t12.5 30z" />
    <glyph glyph-name="Iogonek" unicode="&#x12e;" horiz-adv-x="182" 
d="M-170 -127q1 48 44.5 87.5t99.5 53.5l15 4q-9 37 9 87q35 98 121 258.5t150 252.5q14 20 24 -1q26 -54 -30 -153q-171 -301 -242 -460q-2 -4 -11 -13q-122 -99 -122 -136q0 -12 9.5 -20.5t26.5 -8.5q54 0 157 88q4 4 8 4q8 0 8 -12q0 -38 -55.5 -74t-110.5 -36
q-47 0 -74.5 24.5t-26.5 54.5z" />
    <glyph glyph-name="iogonek" unicode="&#x12f;" horiz-adv-x="201" 
d="M78 14q18 0 49 25t46 55q4 7 9.5 7.5t8.5 -6.5q4 -4 3 -24.5t-12 -38.5q-13 -23 -43 -48.5t-57 -43.5t-48 -41.5t-21 -45.5q0 -12 9.5 -20.5t26.5 -8.5q54 0 157 88q4 4 8 4q8 0 8 -12q0 -38 -55.5 -74t-110.5 -36q-47 0 -74.5 24.5t-26.5 54.5q1 34 24 64t59 52
q-37 11 -46 50.5t10 91.5q18 51 58 125.5t70 117.5q13 18 24 6q13 -14 14 -42t-15 -67q-8 -16 -40 -75t-44 -87q-39 -95 9 -95zM232 459q19 -39 -7 -67q-9 -11 -27 -7.5t-29 22.5q-11 21 -9.5 41t14.5 33q12 13 30 5.5t28 -27.5z" />
    <glyph glyph-name="Idotaccent" unicode="&#x130;" horiz-adv-x="182" 
d="M269 616q14 20 24 -1q26 -54 -30 -153q-173 -304 -245 -466q-6 -14 -16 -2q-32 34 -4 111q35 98 121 258.5t150 252.5zM364 723q19 -39 -7 -67q-9 -11 -27 -7.5t-29 22.5q-11 21 -9.5 41t14.5 33q12 13 30 5.5t28 -27.5z" />
    <glyph glyph-name="dotlessi" unicode="&#x131;" horiz-adv-x="201" 
d="M69 -15q-55 0 -72.5 42.5t5.5 103.5q18 51 58 125.5t70 117.5q13 18 24 6q13 -14 14 -42t-15 -67q-8 -16 -40 -75t-44 -87q-18 -44 -16 -70t26 -25q32 1 69 42t61 95q8 15 16 0q12 -23 -7 -62q-22 -46 -64 -75t-85 -29z" />
    <glyph glyph-name="IJ" unicode="&#x132;" horiz-adv-x="589" 
d="M269 616q14 20 24 -1q26 -54 -30 -153q-173 -304 -245 -466q-6 -14 -16 -2q-32 34 -4 111q35 98 121 258.5t150 252.5zM218 229q11 2 15 -3t0 -17q-23 -66 -22.5 -111t13 -62t30.5 -21q22 -5 43 2t42.5 29t37.5 42.5t38 61t34 64.5t35 71q129 265 172 331q12 19 24 -1
q27 -45 -7 -125q-28 -65 -87.5 -184.5t-97.5 -183.5q-98 -163 -241 -138q-57 10 -84.5 57t-10.5 111q8 31 26.5 51.5t39.5 25.5z" />
    <glyph glyph-name="ij" unicode="&#x133;" horiz-adv-x="379" 
d="M232 459q19 -39 -7 -67q-9 -11 -27 -7.5t-29 22.5q-11 21 -9.5 41t14.5 33q12 13 30 5.5t28 -27.5zM69 -15q-55 0 -72.5 42.5t5.5 103.5q18 51 58 125.5t70 117.5q13 18 24 6q13 -14 14 -42t-15 -67q-8 -16 -40 -75t-44 -87q-18 -44 -16 -70t26 -25q32 1 69 42t61 95
q8 15 16 0q12 -23 -7 -62q-22 -46 -64 -75t-85 -29zM431 461q17 -38 -6 -65q-9 -12 -27 -8t-29 23q-23 41 5 72q12 13 30 6t27 -28zM210 -19q112 58 189 172q3 4 6 5.5t6 0t4 -6.5q7 -22 -15 -59q-49 -87 -208 -154q-26 -62 -46.5 -105t-49 -94t-57.5 -83t-57 -43
q-35 -14 -57 19q-10 15 -15 24.5t-11 26t-5 34.5t8 39q42 123 217 190q124 297 211 430q12 19 24 6q12 -14 12.5 -42.5t-15.5 -67.5q-10 -22 -63 -129.5t-78 -162.5zM102 -95q-60 -34 -101 -88t-53.5 -95t-2.5 -54q7 -9 32 19.5t60 88t65 129.5z" />
    <glyph glyph-name="Jcircumflex" unicode="&#x134;" horiz-adv-x="437" 
d="M66 229q11 2 15 -3t0 -17q-23 -66 -22.5 -111t13 -62t30.5 -21q22 -5 43 2t42.5 29t37.5 42.5t38 61t34 64.5t35 71q129 265 172 331q12 19 24 -1q27 -45 -7 -125q-28 -65 -87.5 -184.5t-97.5 -183.5q-98 -163 -241 -138q-57 10 -84.5 57t-10.5 111q8 31 26.5 51.5
t39.5 25.5zM544 694q-38 -27 -59 -37q-30 -14 -51 -8q-14 5 0 15q92 68 116 82q2 2 11 4q13 0 21 -15q20 -38 40 -70q8 -12 -6 -15q-28 -7 -52 19q-10 10 -20 25z" />
    <glyph glyph-name="jcircumflex" unicode="&#x135;" horiz-adv-x="178" 
d="M9 -19q112 58 189 172q3 4 6 5.5t6 0t4 -6.5q7 -22 -15 -59q-49 -87 -208 -154q-26 -62 -46.5 -105t-49 -94t-57.5 -83t-57 -43q-35 -14 -57 19q-10 15 -15 24.5t-11 26t-5 34.5t8 39q42 123 217 190q124 297 211 430q12 19 24 6q12 -14 12.5 -42.5t-15.5 -67.5
q-10 -22 -63 -129.5t-78 -162.5zM-99 -95q-60 -34 -101 -88t-53.5 -95t-2.5 -54q7 -9 32 19.5t60 88t65 129.5zM187 471q-44 -26 -60 -35q-27 -14 -51 -9q-16 4 -1 15q11 7 54.5 39t61.5 43q2 2 7 2l6 1q11 2 20 -13q24 -44 41 -70q7 -11 -6 -15q-29 -6 -53 18
q-11 11 -19 24z" />
    <glyph glyph-name="uni0136" unicode="&#x136;" horiz-adv-x="397" 
d="M125 210q-51 -97 -103 -219q-7 -15 -16 -3q-27 37 -5 110q19 64 115.5 254.5t142.5 254.5q13 17 24 -2q29 -51 -23 -146q-71 -129 -95 -173q211 158 366 326q12 14 19 -2q12 -46 -31 -105q-35 -47 -126 -127.5t-190 -150.5q55 -88 71 -125q30 -72 0 -111q-10 -12 -18 2
q-55 106 -131 217zM63 -165q-24 13 -16 47q5 22 20.5 35t31.5 12q18 -1 27 -21.5t0 -46.5q-10 -30 -37 -47t-53 -7q-5 2 -4.5 6t4.5 6q16 6 27 16z" />
    <glyph glyph-name="uni0137" unicode="&#x137;" horiz-adv-x="367" 
d="M182 347q42 41 89 57q52 18 82 -44q32 -66 -21 -117q-58 -57 -139 -81q3 -61 22 -100.5t48 -42.5q28 -3 64 39t62 96q5 9 10.5 9.5t9.5 -8.5q10 -24 -12 -61q-61 -106 -149 -105q-57 1 -92.5 49t-34.5 144q0 14 3.5 18.5t17.5 8.5q58 19 102.5 51.5t62.5 60.5t10 42
q-7 14 -38 5t-70 -39q-54 -41 -94.5 -111.5t-102.5 -217.5q-2 -6 -7.5 -7t-10.5 5q-26 30 -1 110q22 73 120.5 264t162.5 277q15 20 25 1q25 -50 -29 -143q-31 -53 -90 -160zM-7 -165q-24 13 -16 47q5 22 20.5 35t31.5 12q18 -1 27 -21.5t0 -46.5q-10 -30 -37 -47t-53 -7
q-5 2 -4.5 6t4.5 6q16 6 27 16z" />
    <glyph glyph-name="kgreenlandic" unicode="&#x138;" horiz-adv-x="367" 
d="M142 209q113 41 214 161q19 23 30 3q12 -25 -5 -56q-29 -51 -70.5 -87t-117.5 -68q3 -61 22 -100.5t48 -42.5q28 -3 64 39t62 96q5 9 10.5 9.5t9.5 -8.5q10 -24 -12 -61q-61 -106 -149 -105q-57 1 -92.5 49t-34.5 144q0 13 3.5 17.5t17.5 9.5zM160 372q17 -43 -5 -87
q-11 -23 -33.5 -61t-49 -90t-60.5 -134q-2 -6 -7.5 -7t-10.5 5q-26 30 -1 110q23 75 50 129t90 139q17 22 27 -4z" />
    <glyph glyph-name="Lacute" unicode="&#x139;" horiz-adv-x="353" 
d="M55 56q87 23 152 28q69 6 88 -45q6 -15 -10 -15q-62 1 -218 -39q-18 -5 -27.5 -3t-17.5 13q-20 29 -26 43q-10 24 3 58q35 90 130.5 268t143.5 244q14 19 24 -2q25 -51 -25 -141q-3 -5 -56 -100t-90.5 -166t-70.5 -143zM399 731q14 -9 0 -16q-13 -6 -38.5 -19t-45.5 -22
t-31 -13q-35 -11 -53 0q-14 6 0 15q77 50 95 58q40 17 73 -3z" />
    <glyph glyph-name="lacute" unicode="&#x13a;" horiz-adv-x="230" 
d="M98 200q-21 -50 -30 -90.5t-3.5 -66.5t27.5 -28q35 -3 81 41t76 104q3 6 7.5 8.5t8.5 0.5t6 -9q7 -24 -10 -62q-15 -32 -64.5 -72t-102.5 -39q-54 2 -77 41t-6 117q26 123 98 249t155 212q23 24 43 5q42 -37 23 -110q-22 -86 -90 -169.5t-142 -131.5zM116 243
q62 50 108.5 117.5t63 112t8.5 49.5q-10 6 -57 -64t-99 -167q-14 -24 -24 -48zM436 729q14 -9 0 -16q-11 -5 -37.5 -18.5t-46 -22.5t-31.5 -13q-32 -10 -52 -1q-13 6 1 16q61 43 95 58q38 17 71 -3z" />
    <glyph glyph-name="uni013B" unicode="&#x13b;" horiz-adv-x="353" 
d="M55 56q87 23 152 28q69 6 88 -45q6 -15 -10 -15q-62 1 -218 -39q-18 -5 -27.5 -3t-17.5 13q-20 29 -26 43q-10 24 3 58q35 90 130.5 268t143.5 244q14 19 24 -2q25 -51 -25 -141q-3 -5 -56 -100t-90.5 -166t-70.5 -143zM53 -165q-24 13 -16 47q5 22 20.5 35t31.5 12
q18 -1 27 -21.5t0 -46.5q-10 -30 -37 -47t-53 -7q-5 2 -4.5 6t4.5 6q16 6 27 16z" />
    <glyph glyph-name="uni013C" unicode="&#x13c;" horiz-adv-x="230" 
d="M98 200q-21 -50 -30 -90.5t-3.5 -66.5t27.5 -28q35 -3 81 41t76 104q3 6 7.5 8.5t8.5 0.5t6 -9q7 -24 -10 -62q-15 -32 -64.5 -72t-102.5 -39q-54 2 -77 41t-6 117q26 123 98 249t155 212q23 24 43 5q42 -37 23 -110q-22 -86 -90 -169.5t-142 -131.5zM116 243
q62 50 108.5 117.5t63 112t8.5 49.5q-10 6 -57 -64t-99 -167q-14 -24 -24 -48zM-7 -165q-24 13 -16 47q5 22 20.5 35t31.5 12q18 -1 27 -21.5t0 -46.5q-10 -30 -37 -47t-53 -7q-5 2 -4.5 6t4.5 6q16 6 27 16z" />
    <glyph glyph-name="Lcaron" unicode="&#x13d;" horiz-adv-x="353" 
d="M100 458q-13 -16 -28 -13q-14 2 -9 16q20 41 51.5 95.5t52.5 77.5q8 9 16.5 8t10.5 -9q10 -27 -7 -54q-36 -59 -87 -121zM55 56q87 23 152 28q69 6 88 -45q6 -15 -10 -15q-62 1 -218 -39q-18 -5 -27.5 -3t-17.5 13q-20 29 -26 43q-10 24 3 58q35 90 130.5 268t143.5 244
q14 19 24 -2q25 -51 -25 -141q-3 -5 -56 -100t-90.5 -166t-70.5 -143z" />
    <glyph glyph-name="lcaron" unicode="&#x13e;" horiz-adv-x="460" 
d="M391 458q-13 -16 -29 -13q-5 1 -8.5 5.5t-0.5 10.5q14 35 47.5 91.5t56.5 81.5q8 9 16.5 8t10.5 -9q10 -27 -7 -54q-39 -64 -86 -121zM98 200q-21 -50 -30 -90.5t-3.5 -66.5t27.5 -28q35 -3 81 41t76 104q3 6 7.5 8.5t8.5 0.5t6 -9q7 -24 -10 -62q-15 -32 -64.5 -72
t-102.5 -39q-54 2 -77 41t-6 117q26 123 98 249t155 212q23 24 43 5q42 -37 23 -110q-22 -86 -90 -169.5t-142 -131.5zM116 243q62 50 108.5 117.5t63 112t8.5 49.5q-10 6 -57 -64t-99 -167q-14 -24 -24 -48z" />
    <glyph glyph-name="Ldot" unicode="&#x13f;" horiz-adv-x="353" 
d="M55 56q87 23 152 28q69 6 88 -45q6 -15 -10 -15q-62 1 -218 -39q-18 -5 -27.5 -3t-17.5 13q-20 29 -26 43q-10 24 3 58q35 90 130.5 268t143.5 244q14 19 24 -2q25 -51 -25 -141q-3 -5 -56 -100t-90.5 -166t-70.5 -143zM325 303q19 -39 -7 -67q-9 -11 -27 -7.5t-29 22.5
q-11 21 -9.5 41t14.5 33q12 13 30 5.5t28 -27.5z" />
    <glyph glyph-name="ldot" unicode="&#x140;" horiz-adv-x="380" 
d="M98 200q-21 -50 -30 -90.5t-3.5 -66.5t27.5 -28q35 -3 81 41t76 104q3 6 7.5 8.5t8.5 0.5t6 -9q7 -24 -10 -62q-15 -32 -64.5 -72t-102.5 -39q-54 2 -77 41t-6 117q26 123 98 249t155 212q23 24 43 5q42 -37 23 -110q-22 -86 -90 -169.5t-142 -131.5zM116 243
q62 50 108.5 117.5t63 112t8.5 49.5q-10 6 -57 -64t-99 -167q-14 -24 -24 -48zM395 323q19 -39 -7 -67q-9 -11 -27 -7.5t-29 22.5q-11 21 -9.5 41t14.5 33q12 13 30 5.5t28 -27.5z" />
    <glyph glyph-name="Lslash" unicode="&#x141;" horiz-adv-x="353" 
d="M46 238q-60 -19 -86 28q-9 12 6 17q40 11 147.5 58.5t150.5 61.5q62 20 88 -27q10 -14 -7 -17q-45 -10 -161 -61.5t-138 -59.5zM55 56q87 23 152 28q69 6 88 -45q6 -15 -10 -15q-62 1 -218 -39q-18 -5 -27.5 -3t-17.5 13q-20 29 -26 43q-10 24 3 58q35 90 130.5 268
t143.5 244q14 19 24 -2q25 -51 -25 -141q-3 -5 -56 -100t-90.5 -166t-70.5 -143z" />
    <glyph glyph-name="lslash" unicode="&#x142;" horiz-adv-x="230" 
d="M6 161q-60 -19 -86 28q-9 12 6 17q40 11 147.5 58.5t150.5 61.5q62 20 88 -27q10 -14 -7 -17q-45 -10 -161 -61.5t-138 -59.5zM98 200q-21 -50 -30 -90.5t-3.5 -66.5t27.5 -28q35 -3 81 41t76 104q3 6 7.5 8.5t8.5 0.5t6 -9q7 -24 -10 -62q-15 -32 -64.5 -72t-102.5 -39
q-54 2 -77 41t-6 117q26 123 98 249t155 212q23 24 43 5q42 -37 23 -110q-22 -86 -90 -169.5t-142 -131.5zM116 243q62 50 108.5 117.5t63 112t8.5 49.5q-10 6 -57 -64t-99 -167q-14 -24 -24 -48z" />
    <glyph glyph-name="Nacute" unicode="&#x143;" horiz-adv-x="459" 
d="M239 429q-169 -290 -217 -435q-5 -17 -17 -4q-33 37 -5 112q64 177 259 505q11 19 26 9q28 -20 35 -46t-1 -78q-21 -127 -33 -360q49 111 124 249.5t134 229.5q12 18 23 -2q25 -51 -31 -145q-47 -78 -125 -227t-120 -244q-6 -14 -20 -6q-23 12 -34 34.5t-15 69.5
q-10 124 17 338zM532 731q14 -9 0 -16q-13 -6 -38.5 -19t-45.5 -22t-31 -13q-35 -11 -53 0q-14 6 0 15q77 50 95 58q40 17 73 -3z" />
    <glyph glyph-name="nacute" unicode="&#x144;" horiz-adv-x="384" 
d="M160 294q38 41 80.5 71t65.5 27q27 -4 41 -35.5t-2 -70.5q-9 -19 -44.5 -80.5t-48.5 -89.5q-13 -29 -15.5 -53t5.5 -37.5t26 -12.5q55 3 128 138q8 15 17 1q12 -19 -9 -63q-21 -43 -63.5 -75t-84.5 -32q-62 0 -81 42t5 107q14 41 44.5 94t48.5 84t10 34q-6 2 -24 -6.5
t-48.5 -32t-59.5 -55.5q-28 -30 -56 -76.5t-44.5 -80.5t-45.5 -97q-7 -16 -19 -4q-33 33 -10 103q15 46 63 134.5t97 160.5q11 17 21 0q21 -35 3 -95zM375 504q14 -9 0 -16q-11 -5 -37.5 -18.5t-46 -22.5t-31.5 -13q-32 -10 -52 -1q-13 6 1 16q61 43 95 58q38 17 71 -3z" />
    <glyph glyph-name="Ncedilla" unicode="&#x145;" horiz-adv-x="459" 
d="M90 -37q3 5 53 0q26 -3 38 -27q13 -27 2 -46q-18 -30 -54 -30q-29 0 -48 26q-5 7 -2.5 10.5t9.5 3.5q21 -1 39 4t25.5 11t5.5 10q-4 7 -32 3q-19 -3 -30 10t-6 25zM239 429q-169 -290 -217 -435q-5 -17 -17 -4q-33 37 -5 112q64 177 259 505q11 19 26 9q28 -20 35 -46
t-1 -78q-21 -127 -33 -360q49 111 124 249.5t134 229.5q12 18 23 -2q25 -51 -31 -145q-47 -78 -125 -227t-120 -244q-6 -14 -20 -6q-23 12 -34 34.5t-15 69.5q-10 124 17 338z" />
    <glyph glyph-name="uni0146" unicode="&#x146;" horiz-adv-x="384" 
d="M160 294q38 41 80.5 71t65.5 27q27 -4 41 -35.5t-2 -70.5q-9 -19 -44.5 -80.5t-48.5 -89.5q-13 -29 -15.5 -53t5.5 -37.5t26 -12.5q55 3 128 138q8 15 17 1q12 -19 -9 -63q-21 -43 -63.5 -75t-84.5 -32q-62 0 -81 42t5 107q14 41 44.5 94t48.5 84t10 34q-6 2 -24 -6.5
t-48.5 -32t-59.5 -55.5q-28 -30 -56 -76.5t-44.5 -80.5t-45.5 -97q-7 -16 -19 -4q-33 33 -10 103q15 46 63 134.5t97 160.5q11 17 21 0q21 -35 3 -95zM33 -165q-24 13 -16 47q5 22 20.5 35t31.5 12q18 -1 27 -21.5t0 -46.5q-10 -30 -37 -47t-53 -7q-5 2 -4.5 6t4.5 6
q16 6 27 16z" />
    <glyph glyph-name="Ncaron" unicode="&#x147;" horiz-adv-x="459" 
d="M239 429q-169 -290 -217 -435q-5 -17 -17 -4q-33 37 -5 112q64 177 259 505q11 19 26 9q28 -20 35 -46t-1 -78q-21 -127 -33 -360q49 111 124 249.5t134 229.5q12 18 23 -2q25 -51 -31 -145q-47 -78 -125 -227t-120 -244q-6 -14 -20 -6q-23 12 -34 34.5t-15 69.5
q-10 124 17 338zM451 702q38 27 59 37q30 14 51 8q14 -5 0 -15q-92 -68 -116 -82q-3 -2 -11 -4q-14 0 -21 15q-20 38 -40 70q-7 12 6 15q28 7 52 -19q10 -10 20 -25z" />
    <glyph glyph-name="ncaron" unicode="&#x148;" horiz-adv-x="384" 
d="M160 294q38 41 80.5 71t65.5 27q27 -4 41 -35.5t-2 -70.5q-9 -19 -44.5 -80.5t-48.5 -89.5q-13 -29 -15.5 -53t5.5 -37.5t26 -12.5q55 3 128 138q8 15 17 1q12 -19 -9 -63q-21 -43 -63.5 -75t-84.5 -32q-62 0 -81 42t5 107q14 41 44.5 94t48.5 84t10 34q-6 2 -24 -6.5
t-48.5 -32t-59.5 -55.5q-28 -30 -56 -76.5t-44.5 -80.5t-45.5 -97q-7 -16 -19 -4q-33 33 -10 103q15 46 63 134.5t97 160.5q11 17 21 0q21 -35 3 -95zM284 482q38 27 59 37q30 14 51 8q14 -5 0 -15q-92 -68 -116 -82q-2 -2 -11 -4q-13 0 -21 15q-20 38 -40 70q-8 12 6 15
q28 7 52 -19q10 -10 20 -25z" />
    <glyph glyph-name="napostrophe" unicode="&#x149;" horiz-adv-x="384" 
d="M1 308q-13 -16 -29 -13q-15 3 -9 16q14 35 47.5 91.5t56.5 81.5q8 9 16.5 8t10.5 -9q10 -27 -7 -54q-39 -64 -86 -121zM160 294q38 41 80.5 71t65.5 27q27 -4 41 -35.5t-2 -70.5q-9 -19 -44.5 -80.5t-48.5 -89.5q-13 -29 -15.5 -53t5.5 -37.5t26 -12.5q55 3 128 138
q8 15 17 1q12 -19 -9 -63q-21 -43 -63.5 -75t-84.5 -32q-62 0 -81 42t5 107q14 41 44.5 94t48.5 84t10 34q-6 2 -24 -6.5t-48.5 -32t-59.5 -55.5q-28 -30 -56 -76.5t-44.5 -80.5t-45.5 -97q-7 -16 -19 -4q-33 33 -10 103q15 46 63 134.5t97 160.5q11 17 21 0q21 -35 3 -95z
" />
    <glyph glyph-name="Eng" unicode="&#x14a;" horiz-adv-x="459" 
d="M239 429q-169 -290 -217 -435q-5 -17 -17 -4q-33 37 -5 112q64 177 259 505q11 19 26 9q28 -20 35 -46t-1 -78q-21 -126 -33 -353q136 285 258 472q12 18 23 -2q25 -51 -31 -145q-53 -88 -318 -603q-58 -97 -112 -133.5t-123 -23.5q-57 11 -84.5 57.5t-10.5 110.5
q8 31 26.5 51.5t39.5 25.5q11 2 15 -3t0 -17q-23 -66 -22.5 -111t13 -62t30.5 -21q22 -5 43 2t42.5 29t37.5 42.5t38 61t34 64.5t35 71l13 26q-8 20 -11 60q-10 124 17 338z" />
    <glyph glyph-name="eng" unicode="&#x14b;" horiz-adv-x="384" 
d="M81 -95q-60 -34 -101 -88t-53.5 -95t-2.5 -54q7 -9 32 19.5t60 88t65 129.5zM345 286q-95 -161 -156 -305q112 58 189 172q3 4 6 5.5t6 0t4 -6.5q7 -22 -15 -59q-49 -87 -208 -154q-26 -62 -46.5 -105t-49 -94t-57.5 -83t-57 -43q-35 -14 -57 19q-10 15 -15 24.5t-11 26
t-5 34.5t8 39q42 123 217 190q33 95 86 197t81 150.5t18 48.5q-7 0 -24.5 -8t-48 -31t-59.5 -55q-28 -30 -56 -76.5t-44.5 -80.5t-45.5 -97q-7 -16 -19 -4q-33 33 -10 103q15 46 63 134.5t97 160.5q11 17 21 0q21 -35 3 -95q38 41 80.5 71t65.5 27q27 -4 41.5 -35.5
t-2.5 -70.5z" />
    <glyph glyph-name="Omacron" unicode="&#x14c;" horiz-adv-x="537" 
d="M476 597q59 -26 76.5 -94t0.5 -145.5t-56 -149.5q-67 -123 -157 -187t-186 -29q-114 42 -114 187q0 76 30.5 152t77 132.5t97.5 97t95 56.5q88 30 136 -20zM424 236q43 79 60.5 155.5t8.5 124t-37 57.5q-41 15 -122.5 -39.5t-147.5 -156.5q-46 -72 -65 -148.5t-9 -130.5
t44 -68q51 -22 129 36t139 170zM404 659q-40 0 -46 38q-1 7 0 9.5t7 1.5q25 -2 85 2.5t82 4.5q40 0 46 -38q1 -6 -0.5 -8.5t-7.5 -1.5q-23 3 -88.5 -2.5t-77.5 -5.5z" />
    <glyph glyph-name="omacron" unicode="&#x14d;" horiz-adv-x="332" 
d="M342 215q-10 -11 -27 -13q-17 -68 -61 -130.5t-97 -80.5q-73 -24 -126 44q-31 47 -25.5 104.5t41.5 120.5q30 54 73 90.5t86 39.5q41 3 68 -34q5 -7 17 -19.5t18 -20.5t10 -26.5t2 -43.5q-1 -4 -1 -11.5t-1 -11.5q3 0 9.5 1t10.5 1q11 0 3 -10zM256 242q12 48 8 74
q-2 15 -8.5 19.5t-13 -2t-8.5 -20.5q-8 -43 22 -71zM249 215q-9 4 -19 12q-18 13 -31.5 37.5t-14.5 50.5q-47 -40 -77 -94q-31 -57 -41 -115.5t10 -74.5q22 -18 62.5 10t75.5 94q22 41 35 80zM212 429q-40 0 -46 38q-1 7 0 9.5t7 1.5q25 -2 85 2.5t82 4.5q40 0 46 -38
q1 -6 -0.5 -8.5t-7.5 -1.5q-23 3 -88.5 -2.5t-77.5 -5.5z" />
    <glyph glyph-name="Obreve" unicode="&#x14e;" horiz-adv-x="537" 
d="M476 597q59 -26 76.5 -94t0.5 -145.5t-56 -149.5q-67 -123 -157 -187t-186 -29q-114 42 -114 187q0 76 30.5 152t77 132.5t97.5 97t95 56.5q88 30 136 -20zM424 236q43 79 60.5 155.5t8.5 124t-37 57.5q-41 15 -122.5 -39.5t-147.5 -156.5q-46 -72 -65 -148.5t-9 -130.5
t44 -68q51 -22 129 36t139 170zM463 743q10 8 16 -3q22 -38 66 -38q36 0 65 35q9 11 14 0q3 -9 -0.5 -24t-15.5 -27q-29 -31 -78 -31q-42 0 -65 24q-14 15 -14.5 34t12.5 30z" />
    <glyph glyph-name="obreve" unicode="&#x14f;" horiz-adv-x="332" 
d="M342 215q-10 -11 -27 -13q-17 -68 -61 -130.5t-97 -80.5q-73 -24 -126 44q-31 47 -25.5 104.5t41.5 120.5q30 54 73 90.5t86 39.5q41 3 68 -34q5 -7 17 -19.5t18 -20.5t10 -26.5t2 -43.5q-1 -4 -1 -11.5t-1 -11.5q3 0 9.5 1t10.5 1q11 0 3 -10zM256 242q12 48 8 74
q-2 15 -8.5 19.5t-13 -2t-8.5 -20.5q-8 -43 22 -71zM249 215q-9 4 -19 12q-18 13 -31.5 37.5t-14.5 50.5q-47 -40 -77 -94q-31 -57 -41 -115.5t10 -74.5q22 -18 62.5 10t75.5 94q22 41 35 80zM221 523q10 8 16 -3q22 -38 66 -38q36 0 65 35q9 11 14 0q3 -9 -0.5 -24
t-15.5 -27q-29 -31 -78 -31q-42 0 -65 24q-14 15 -14.5 34t12.5 30z" />
    <glyph glyph-name="Ohungarumlaut" unicode="&#x150;" horiz-adv-x="537" 
d="M476 597q59 -26 76.5 -94t0.5 -145.5t-56 -149.5q-67 -123 -157 -187t-186 -29q-114 42 -114 187q0 76 30.5 152t77 132.5t97.5 97t95 56.5q88 30 136 -20zM424 236q43 79 60.5 155.5t8.5 124t-37 57.5q-41 15 -122.5 -39.5t-147.5 -156.5q-46 -72 -65 -148.5t-9 -130.5
t44 -68q51 -22 129 36t139 170zM539 757q16 -2 5 -15q-10 -10 -29.5 -31t-35 -36.5t-24.5 -22.5q-29 -22 -50 -18q-13 2 -6 15q7 9 22 28.5t27 34.5t21 23q15 15 35.5 20t34.5 2zM669 757q16 -2 5 -15q-10 -10 -29.5 -31t-35 -36.5t-24.5 -22.5q-29 -22 -50 -18q-13 2 -6 15
q7 9 22 28.5t27 34.5t21 23q15 15 35.5 20t34.5 2z" />
    <glyph glyph-name="ohungarumlaut" unicode="&#x151;" horiz-adv-x="332" 
d="M342 215q-10 -11 -27 -13q-17 -68 -61 -130.5t-97 -80.5q-73 -24 -126 44q-31 47 -25.5 104.5t41.5 120.5q30 54 73 90.5t86 39.5q41 3 68 -34q5 -7 17 -19.5t18 -20.5t10 -26.5t2 -43.5q-1 -4 -1 -11.5t-1 -11.5q3 0 9.5 1t10.5 1q11 0 3 -10zM256 242q12 48 8 74
q-2 15 -8.5 19.5t-13 -2t-8.5 -20.5q-8 -43 22 -71zM249 215q-9 4 -19 12q-18 13 -31.5 37.5t-14.5 50.5q-47 -40 -77 -94q-31 -57 -41 -115.5t10 -74.5q22 -18 62.5 10t75.5 94q22 41 35 80zM307 540q16 -2 5 -15q-10 -10 -29.5 -31t-35 -36.5t-24.5 -22.5q-29 -22 -50 -18
q-13 2 -6 15q7 9 22 28.5t27 34.5t21 23q15 15 35.5 20t34.5 2zM437 540q16 -2 5 -15q-10 -10 -29.5 -31t-35 -36.5t-24.5 -22.5q-29 -22 -50 -18q-13 2 -6 15q7 9 22 28.5t27 34.5t21 23q15 15 35.5 20t34.5 2z" />
    <glyph glyph-name="OE" unicode="&#x152;" horiz-adv-x="746" 
d="M880 550q-85 3 -211 -33q-51 -76 -132 -223q32 6 70 8q67 4 83 -48q4 -15 -11 -15q-81 -3 -187 -29q-44 -88 -72 -151q90 24 150 27q69 4 89 -47q6 -15 -12 -15q-65 1 -216 -38q-37 -10 -50 9t-24 40v1q-102 -79 -202 -42q-115 42 -115 185q0 75 31 150.5t77 132t97 97
t94 55.5q43 14 78.5 7.5t57.5 -29.5q67 -30 80 -116q4 7 49 79q17 28 37 34q89 25 161 27q71 1 88 -52q5 -14 -10 -14zM422 235q43 79 60 155t8.5 123.5t-36.5 57.5q-41 16 -121.5 -38.5t-146.5 -157.5q-46 -71 -64.5 -147t-8.5 -129t43 -68q50 -22 127.5 35t138.5 169z" />
    <glyph glyph-name="oe" unicode="&#x153;" horiz-adv-x="540" 
d="M557 91q-31 -47 -84.5 -77t-109.5 -31q-45 -1 -76.5 18.5t-45.5 54.5q-37 -44 -84 -62q-76 -28 -126 40q-31 48 -25.5 105t41.5 120q31 54 74 90.5t86 39.5q40 3 67 -34q5 -6 18 -20t19 -24q41 50 87 69.5t75 3.5q37 -21 59 -51q14 -17 6 -55t-36 -77
q-34 -49 -87.5 -58.5t-102.5 27.5q-23 -69 -8 -113t55 -46q56 -2 107 40t91 102q4 5 9.5 5t7.5 -7q8 -23 -17 -60zM256 239q11 41 7 76q-2 16 -8.5 21t-13 -1.5t-7.5 -20.5q-4 -37 22 -75zM321 193q62 -35 122 50q58 84 39 101q-11 10 -38.5 -5t-61 -51.5t-54.5 -79.5
l-3.5 -7t-3.5 -8zM248 213q-61 49 -60 105q-46 -38 -81 -98q-32 -56 -41.5 -114.5t10.5 -74.5q21 -18 61.5 10.5t75.5 92.5q17 30 35 79z" />
    <glyph glyph-name="Racute" unicode="&#x154;" horiz-adv-x="458" 
d="M129 195q-44 -87 -89 -198q-6 -14 -16 -4q-28 30 -9 99q19 68 80 191.5t127 227.5q-44 4 -64 40q-7 14 11 17q41 5 116.5 28.5t109.5 25.5q43 2 72.5 -15.5t46.5 -65.5q31 -89 -31 -172q-40 -54 -114.5 -97.5t-158.5 -63.5q69 -86 95 -137q11 -21 12.5 -43t-7.5 -38
q-8 -13 -16 -2q-95 130 -165 207zM283 517q0 -43 -38 -113q-10 -18 -37 -64.5t-42 -74.5q154 34 241.5 120.5t63.5 145.5q-5 13 -17 19.5t-26.5 6t-34.5 -5t-36.5 -10.5t-38.5 -13t-35 -11zM502 731q14 -9 0 -16q-13 -6 -38.5 -19t-45.5 -22t-31 -13q-35 -11 -53 0
q-14 6 0 15q77 50 95 58q40 17 73 -3z" />
    <glyph glyph-name="racute" unicode="&#x155;" horiz-adv-x="330" 
d="M165 316q46 6 103 46q18 12 27 2q11 -12 19 -27t8 -35.5t-13 -35.5q-90 -103 -110 -166q-12 -39 -4.5 -65t29.5 -27q28 -1 61 37t58 95q7 14 14 1q11 -24 -5 -62q-17 -43 -55.5 -71.5t-78.5 -26.5q-53 2 -74 44.5t-2 99.5q24 73 120 183q-58 -38 -117 -38
q-6 -11 -48 -81.5t-69 -125.5t-36 -96q-4 -18 -17 -5q-45 46 -2 127q19 36 127 191q-22 14 -19 40t17.5 51.5t34.5 45t34 19.5q22 -3 20 -36t-22 -84zM408 504q14 -9 0 -16q-11 -5 -37.5 -18.5t-46 -22.5t-31.5 -13q-32 -10 -52 -1q-13 6 1 16q61 43 95 58q38 17 71 -3z" />
    <glyph glyph-name="uni0156" unicode="&#x156;" horiz-adv-x="458" 
d="M129 195q-44 -87 -89 -198q-6 -14 -16 -4q-28 30 -9 99q19 68 80 191.5t127 227.5q-44 4 -64 40q-7 14 11 17q41 5 116.5 28.5t109.5 25.5q43 2 72.5 -15.5t46.5 -65.5q31 -89 -31 -172q-40 -54 -114.5 -97.5t-158.5 -63.5q69 -86 95 -137q11 -21 12.5 -43t-7.5 -38
q-8 -13 -16 -2q-95 130 -165 207zM283 517q0 -43 -38 -113q-10 -18 -37 -64.5t-42 -74.5q154 34 241.5 120.5t63.5 145.5q-5 13 -17 19.5t-26.5 6t-34.5 -5t-36.5 -10.5t-38.5 -13t-35 -11zM93 -165q-24 13 -16 47q5 22 20.5 35t31.5 12q18 -1 27 -21.5t0 -46.5
q-10 -30 -37 -47t-53 -7q-5 2 -4.5 6t4.5 6q16 6 27 16z" />
    <glyph glyph-name="uni0157" unicode="&#x157;" horiz-adv-x="330" 
d="M165 316q46 6 103 46q18 12 27 2q11 -12 19 -27t8 -35.5t-13 -35.5q-90 -103 -110 -166q-12 -39 -4.5 -65t29.5 -27q28 -1 61 37t58 95q7 14 14 1q11 -24 -5 -62q-17 -43 -55.5 -71.5t-78.5 -26.5q-53 2 -74 44.5t-2 99.5q24 73 120 183q-58 -38 -117 -38
q-6 -11 -48 -81.5t-69 -125.5t-36 -96q-4 -18 -17 -5q-45 46 -2 127q19 36 127 191q-22 14 -19 40t17.5 51.5t34.5 45t34 19.5q22 -3 20 -36t-22 -84zM13 -165q-24 13 -16 47q5 22 20.5 35t31.5 12q18 -1 27 -21.5t0 -46.5q-10 -30 -37 -47t-53 -7q-5 2 -4.5 6t4.5 6
q16 6 27 16z" />
    <glyph glyph-name="Rcaron" unicode="&#x158;" horiz-adv-x="458" 
d="M129 195q-44 -87 -89 -198q-6 -14 -16 -4q-28 30 -9 99q19 68 80 191.5t127 227.5q-44 4 -64 40q-7 14 11 17q41 5 116.5 28.5t109.5 25.5q43 2 72.5 -15.5t46.5 -65.5q31 -89 -31 -172q-40 -54 -114.5 -97.5t-158.5 -63.5q69 -86 95 -137q11 -21 12.5 -43t-7.5 -38
q-8 -13 -16 -2q-95 130 -165 207zM283 517q0 -43 -38 -113q-10 -18 -37 -64.5t-42 -74.5q154 34 241.5 120.5t63.5 145.5q-5 13 -17 19.5t-26.5 6t-34.5 -5t-36.5 -10.5t-38.5 -13t-35 -11zM411 702q38 27 59 37q30 14 51 8q14 -5 0 -15q-92 -68 -116 -82q-3 -2 -11 -4
q-14 0 -21 15q-20 38 -40 70q-7 12 6 15q28 7 52 -19q10 -10 20 -25z" />
    <glyph glyph-name="rcaron" unicode="&#x159;" horiz-adv-x="330" 
d="M165 316q46 6 103 46q18 12 27 2q11 -12 19 -27t8 -35.5t-13 -35.5q-90 -103 -110 -166q-12 -39 -4.5 -65t29.5 -27q28 -1 61 37t58 95q7 14 14 1q11 -24 -5 -62q-17 -43 -55.5 -71.5t-78.5 -26.5q-53 2 -74 44.5t-2 99.5q24 73 120 183q-58 -38 -117 -38
q-6 -11 -48 -81.5t-69 -125.5t-36 -96q-4 -18 -17 -5q-45 46 -2 127q19 36 127 191q-22 14 -19 40t17.5 51.5t34.5 45t34 19.5q22 -3 20 -36t-22 -84zM267 482q38 27 59 37q30 14 51 8q14 -5 0 -15q-92 -68 -116 -82q-3 -2 -11 -4q-14 0 -21 15q-20 38 -40 70q-7 12 6 15
q28 7 52 -19q10 -10 20 -25z" />
    <glyph glyph-name="Sacute" unicode="&#x15a;" horiz-adv-x="444" 
d="M-33 134q25 7 53 1.5t48 -22.5q105 -84 173 -84q41 0 62 18q25 28 -2 52q-14 12 -54.5 37t-72 46.5t-58 56t-26.5 70.5q0 64 44 127.5t97 103t103 61.5q87 36 129 -2q38 -35 50 -84q11 -44 -29 -100q-28 -37 -69 -111q-9 -16 -22 -3q-37 37 -10 97q7 16 32 53.5t38 64.5
t2 38q-17 18 -85.5 -17.5t-133 -101.5t-66.5 -124q-1 -29 27.5 -56.5t86.5 -61t67 -40.5q28 -20 25 -53t-36 -71q-23 -27 -64.5 -40t-92 -9t-109.5 37.5t-109 93.5q-15 17 2 23zM575 731q14 -9 0 -16q-13 -6 -38.5 -19t-45.5 -22t-31 -13q-35 -11 -53 0q-14 6 0 15
q77 50 95 58q40 17 73 -3z" />
    <glyph glyph-name="sacute" unicode="&#x15b;" horiz-adv-x="302" 
d="M39 164q77 105 115 172q6 50 36 77q16 14 32 18t22 -3q11 -11 -8 -44q-1 -1 -11 -19q-4 -51 3 -130.5t6 -108.5q-4 -78 -45 -105q84 31 134 139q4 8 10 7.5t9 -7.5q10 -22 -14 -66q-28 -51 -75 -79.5t-102 -30.5q-105 -4 -148 75q-19 33 -15.5 75.5t28.5 63.5
q19 16 21 -10q1 -4 1 -12t1 -12zM152 272q-35 -64 -104 -162q12 -45 32.5 -70.5t44.5 -18.5q9 3 16 13.5t10 29.5t5 35.5t1.5 45.5t-1 44t-2.5 45.5t-2 37.5zM334 544q14 -9 0 -16q-11 -5 -37.5 -18.5t-46 -22.5t-31.5 -13q-32 -10 -52 -1q-13 6 1 16q61 43 95 58
q38 17 71 -3z" />
    <glyph glyph-name="Scircumflex" unicode="&#x15c;" horiz-adv-x="444" 
d="M-33 134q25 7 53 1.5t48 -22.5q105 -84 173 -84q41 0 62 18q25 28 -2 52q-14 12 -54.5 37t-72 46.5t-58 56t-26.5 70.5q0 64 44 127.5t97 103t103 61.5q87 36 129 -2q38 -35 50 -84q11 -44 -29 -100q-28 -37 -69 -111q-9 -16 -22 -3q-37 37 -10 97q7 16 32 53.5t38 64.5
t2 38q-17 18 -85.5 -17.5t-133 -101.5t-66.5 -124q-1 -29 27.5 -56.5t86.5 -61t67 -40.5q28 -20 25 -53t-36 -71q-23 -27 -64.5 -40t-92 -9t-109.5 37.5t-109 93.5q-15 17 2 23zM468 694q-38 -27 -59 -37q-30 -14 -51 -8q-14 5 0 15q92 68 116 82q2 2 11 4q13 0 21 -15
q20 -38 40 -70q8 -12 -6 -15q-28 -7 -52 19q-10 10 -20 25z" />
    <glyph glyph-name="scircumflex" unicode="&#x15d;" horiz-adv-x="302" 
d="M39 164q77 105 115 172q6 50 36 77q16 14 32 18t22 -3q11 -11 -8 -44q-1 -1 -11 -19q-4 -51 3 -130.5t6 -108.5q-4 -78 -45 -105q84 31 134 139q4 8 10 7.5t9 -7.5q10 -22 -14 -66q-28 -51 -75 -79.5t-102 -30.5q-105 -4 -148 75q-19 33 -15.5 75.5t28.5 63.5
q19 16 21 -10q1 -4 1 -12t1 -12zM152 272q-35 -64 -104 -162q12 -45 32.5 -70.5t44.5 -18.5q9 3 16 13.5t10 29.5t5 35.5t1.5 45.5t-1 44t-2.5 45.5t-2 37.5zM269 511q-44 -26 -60 -35q-27 -14 -51 -9q-16 4 -1 15q11 7 54.5 39t61.5 43q2 2 7 2l6 1q11 2 20 -13
q24 -44 41 -70q7 -11 -6 -15q-29 -6 -53 18q-11 11 -19 24z" />
    <glyph glyph-name="Scedilla" unicode="&#x15e;" horiz-adv-x="444" 
d="M-33 134q25 7 53 1.5t48 -22.5q105 -84 173 -84q41 0 62 18q25 28 -2 52q-14 12 -54.5 37t-72 46.5t-58 56t-26.5 70.5q0 64 44 127.5t97 103t103 61.5q87 36 129 -2q38 -35 50 -84q11 -44 -29 -100q-28 -37 -69 -111q-9 -16 -22 -3q-37 37 -10 97q7 16 32 53.5t38 64.5
t2 38q-17 18 -85.5 -17.5t-133 -101.5t-66.5 -124q-1 -29 27.5 -56.5t86.5 -61t67 -40.5q28 -20 25 -53t-36 -71q-23 -27 -64.5 -40t-92 -9t-109.5 37.5t-109 93.5q-15 17 2 23zM150 12q-4 -5 -16 -17l-21 -21t-10 -11q25 -1 38 -27q13 -27 2 -46q-18 -30 -54 -30
q-29 0 -48 26q-5 7 -2.5 10.5t9.5 3.5q21 -1 39 4t25.5 11t5.5 10q-4 7 -32 3q-19 -3 -30 10q-12 14 -5 28q6 12 42 46v0h1v0h1h1h1h1h1h1h1h1h1h1h1h2h1h1h1h2h1h1h2h1h2h1h2h1h2h1h2h1h2h2h1h2h2h2h1h9z" />
    <glyph glyph-name="scedilla" unicode="&#x15f;" horiz-adv-x="302" 
d="M39 164q77 105 115 172q6 50 36 77q16 14 32 18t22 -3q11 -11 -8 -44q-1 -1 -11 -19q-4 -51 3 -130.5t6 -108.5q-4 -78 -45 -105q84 31 134 139q4 8 10 7.5t9 -7.5q10 -22 -14 -66q-28 -51 -75 -79.5t-102 -30.5q-105 -4 -148 75q-19 33 -15.5 75.5t28.5 63.5
q19 16 21 -10q1 -4 1 -12t1 -12zM152 272q-35 -64 -104 -162q12 -45 32.5 -70.5t44.5 -18.5q9 3 16 13.5t10 29.5t5 35.5t1.5 45.5t-1 44t-2.5 45.5t-2 37.5zM110 12q-4 -5 -16 -17l-21 -21t-10 -11q25 -1 38 -27q13 -27 2 -46q-18 -30 -54 -30q-29 0 -48 26q-5 7 -2.5 10.5
t9.5 3.5q21 -1 39 4t25.5 11t5.5 10q-4 7 -32 3q-19 -3 -30 10q-12 14 -5 28q6 12 42 46v0h1v0h1h1h1h1h1h1h1h1h1h1h1h2h1h1h1h2h1h1h2h1h2h1h2h1h2h1h2h1h2h2h1h2h2h2h1h9z" />
    <glyph glyph-name="Scaron" unicode="&#x160;" horiz-adv-x="444" 
d="M-33 134q25 7 53 1.5t48 -22.5q105 -84 173 -84q41 0 62 18q25 28 -2 52q-14 12 -54.5 37t-72 46.5t-58 56t-26.5 70.5q0 64 44 127.5t97 103t103 61.5q87 36 129 -2q38 -35 50 -84q11 -44 -29 -100q-28 -37 -69 -111q-9 -16 -22 -3q-37 37 -10 97q7 16 32 53.5t38 64.5
t2 38q-17 18 -85.5 -17.5t-133 -101.5t-66.5 -124q-1 -29 27.5 -56.5t86.5 -61t67 -40.5q28 -20 25 -53t-36 -71q-23 -27 -64.5 -40t-92 -9t-109.5 37.5t-109 93.5q-15 17 2 23zM474 702q38 27 59 37q30 14 51 8q14 -5 0 -15q-92 -68 -116 -82q-2 -2 -11 -4q-13 0 -21 15
q-20 38 -40 70q-8 12 6 15q28 7 52 -19q10 -10 20 -25z" />
    <glyph glyph-name="scaron" unicode="&#x161;" horiz-adv-x="302" 
d="M39 164q77 105 115 172q6 50 36 77q16 14 32 18t22 -3q11 -11 -8 -44q-1 -1 -11 -19q-4 -51 3 -130.5t6 -108.5q-4 -78 -45 -105q84 31 134 139q4 8 10 7.5t9 -7.5q10 -22 -14 -66q-28 -51 -75 -79.5t-102 -30.5q-105 -4 -148 75q-19 33 -15.5 75.5t28.5 63.5
q19 16 21 -10q1 -4 1 -12t1 -12zM152 272q-35 -64 -104 -162q12 -45 32.5 -70.5t44.5 -18.5q9 3 16 13.5t10 29.5t5 35.5t1.5 45.5t-1 44t-2.5 45.5t-2 37.5zM263 522q38 27 59 37q30 14 51 8q14 -5 0 -15q-92 -68 -116 -82q-3 -2 -11 -4q-14 0 -21 15q-20 38 -40 70
q-7 12 6 15q28 7 52 -19q10 -10 20 -25z" />
    <glyph glyph-name="uni0162" unicode="&#x162;" horiz-adv-x="403" 
d="M-10 -37q3 5 53 0q26 -3 38 -27q13 -27 2 -46q-18 -30 -54 -30q-29 0 -48 26q-5 7 -2.5 10.5t9.5 3.5q21 -1 39 4t25.5 11t5.5 10q-4 7 -32 3q-19 -3 -30 10t-6 25zM276 525q-31 -5 -61 -7q-45 -1 -75.5 14t-38.5 43q-2 7 1 10.5t10 2.5q50 -4 170 12.5t142 15.5
q76 -2 95 -51q3 -7 0 -11.5t-12 -3.5q-52 5 -170 -15q2 -43 -33 -106q-9 -16 -47 -84t-59.5 -107.5t-55.5 -108t-61 -132.5q-5 -14 -16 -3q-30 28 -13 91q18 63 87 200t137 240z" />
    <glyph glyph-name="uni0163" unicode="&#x163;" horiz-adv-x="214" 
d="M125 389q-46 0 -65 26q-7 10 -4 15.5t15 4.5q36 -1 83 4q53 95 76 124q7 10 13.5 9.5t10.5 -9.5q18 -46 -13 -113q43 1 62 -30q11 -19 -12 -19q-29 4 -78 -4q-98 -168 -134 -248q-24 -55 -18 -95t38 -42q32 -1 70.5 41t68.5 103q3 6 7 8.5t8 0.5t6 -9q6 -20 -10 -57
q-15 -34 -61 -75t-98 -39q-54 2 -78 53.5t7 137.5q34 80 106 213zM90 12q-4 -5 -16 -17l-21 -21t-10 -11q25 -1 38 -27q13 -27 2 -46q-18 -30 -54 -30q-29 0 -48 26q-5 7 -2.5 10.5t9.5 3.5q21 -1 39 4t25.5 11t5.5 10q-4 7 -32 3q-19 -3 -30 10q-12 14 -5 28q6 12 42 46v0
h1v0h1h1h1h1h1h1h1h1h1h1h1h2h1h1h1h2h1h1h2h1h2h1h2h1h2h1h2h1h2h2h1h2h2h2h1h9z" />
    <glyph glyph-name="Tcaron" unicode="&#x164;" horiz-adv-x="403" 
d="M276 525q-31 -5 -61 -7q-45 -1 -75.5 14t-38.5 43q-2 7 1 10.5t10 2.5q50 -4 170 12.5t142 15.5q76 -2 95 -51q3 -7 0 -11.5t-12 -3.5q-52 5 -170 -15q2 -43 -33 -106q-9 -16 -47 -84t-59.5 -107.5t-55.5 -108t-61 -132.5q-5 -14 -16 -3q-30 28 -13 91q18 63 87 200
t137 240zM353 702q38 27 59 37q30 14 51 8q14 -5 0 -15q-92 -68 -116 -82q-3 -2 -11 -4q-14 0 -21 15q-20 38 -40 70q-7 12 6 15q28 7 52 -19q10 -10 20 -25z" />
    <glyph glyph-name="tcaron" unicode="&#x165;" horiz-adv-x="449" 
d="M361 458q-13 -16 -29 -13q-5 1 -8.5 5.5t-0.5 10.5q14 35 47.5 91.5t56.5 81.5q8 9 16.5 8t10.5 -9q10 -27 -7 -54q-39 -64 -86 -121zM125 389q-46 0 -65 26q-7 10 -4 15.5t15 4.5q36 -1 83 4q53 95 76 124q7 10 13.5 9.5t10.5 -9.5q18 -46 -13 -113q43 1 62 -30
q11 -19 -12 -19q-29 4 -78 -4q-98 -168 -134 -248q-24 -55 -18 -95t38 -42q32 -1 70.5 41t68.5 103q3 6 7 8.5t8 0.5t6 -9q6 -20 -10 -57q-15 -34 -61 -75t-98 -39q-54 2 -78 53.5t7 137.5q34 80 106 213z" />
    <glyph glyph-name="Tbar" unicode="&#x166;" horiz-adv-x="403" 
d="M106 361q-64 1 -71 44q-3 14 11 14q70 -3 191.5 14.5t163.5 16.5q37 -1 53.5 -11t20.5 -33q2 -7 -1 -11t-12 -3q-71 5 -189.5 -13.5t-166.5 -17.5zM276 525q-31 -5 -61 -7q-45 -1 -75.5 14t-38.5 43q-2 7 1 10.5t10 2.5q50 -4 170 12.5t142 15.5q76 -2 95 -51
q3 -7 0 -11.5t-12 -3.5q-52 5 -170 -15q2 -43 -33 -106q-9 -16 -47 -84t-59.5 -107.5t-55.5 -108t-61 -132.5q-5 -14 -16 -3q-30 28 -13 91q18 63 87 200t137 240z" />
    <glyph glyph-name="tbar" unicode="&#x167;" horiz-adv-x="214" 
d="M125 389q-46 0 -65 26q-7 10 -4 15.5t15 4.5q36 -1 83 4q53 95 76 124q7 10 13.5 9.5t10.5 -9.5q18 -46 -13 -113q43 1 62 -30q11 -19 -12 -19q-29 4 -78 -4q-98 -168 -134 -248q-24 -55 -18 -95t38 -42q32 -1 70.5 41t68.5 103q3 6 7 8.5t8 0.5t6 -9q6 -20 -10 -57
q-15 -34 -61 -75t-98 -39q-54 2 -78 53.5t7 137.5q34 80 106 213zM65 290q-40 0 -46 38q-1 7 0 9.5t7 1.5q25 -2 85 2.5t82 4.5q40 0 46 -38q1 -6 -0.5 -8.5t-7.5 -1.5q-23 3 -88.5 -2.5t-77.5 -5.5z" />
    <glyph glyph-name="Utilde" unicode="&#x168;" horiz-adv-x="452" 
d="M76 -12q-102 42 -68 180q35 140 232 439q12 18 24 -1q29 -46 -19 -139q-13 -26 -57.5 -102t-75.5 -138.5t-42 -109.5q-20 -85 20 -100q44 -17 100 38t111 161q125 244 219 392q11 19 24 -1q24 -42 -13 -124q-31 -67 -105.5 -201.5t-120.5 -198.5q-51 -71 -113 -94
t-116 -1zM315 690q6 14 23 25t39 11q17 0 64.5 -17.5t80.5 -7.5q8 2 11 -1t-1 -11q-16 -32 -55 -35q-25 -2 -76.5 17t-77.5 10q-6 -2 -8 0.5t0 8.5z" />
    <glyph glyph-name="utilde" unicode="&#x169;" 
d="M196 81q-74 -99 -144 -94q-34 2 -49.5 25t-14.5 53.5t13 66.5q39 116 138 255q12 17 26 1q34 -51 -19 -135q-45 -72 -78 -147q-16 -37 -14 -61t19 -26q50 -4 148 154q31 50 69.5 121t54.5 93q14 20 25 6q13 -15 14 -44t-15 -68q-9 -19 -45.5 -81t-49.5 -90t-16 -50.5
t4.5 -35t25.5 -11.5q57 3 132 138q4 7 9.5 7.5t8.5 -6.5q11 -22 -9 -63q-23 -44 -65 -75.5t-85 -31.5q-47 0 -68 27t-15 72zM196 442q5 15 22 29t37 18q16 3 67 -8t74 6q7 3 10 0.5t0 -10.5q-14 -35 -50 -44q-25 -6 -78 4.5t-72 -3.5q-7 -4 -9.5 -1t-0.5 9z" />
    <glyph glyph-name="Umacron" unicode="&#x16a;" horiz-adv-x="452" 
d="M76 -12q-102 42 -68 180q35 140 232 439q12 18 24 -1q29 -46 -19 -139q-13 -26 -57.5 -102t-75.5 -138.5t-42 -109.5q-20 -85 20 -100q44 -17 100 38t111 161q125 244 219 392q11 19 24 -1q24 -42 -13 -124q-31 -67 -105.5 -201.5t-120.5 -198.5q-51 -71 -113 -94
t-116 -1zM362 659q-40 0 -46 38q-1 7 0 9.5t7 1.5q25 -2 85 2.5t82 4.5q40 0 46 -38q1 -6 -0.5 -8.5t-7.5 -1.5q-23 3 -88.5 -2.5t-77.5 -5.5z" />
    <glyph glyph-name="umacron" unicode="&#x16b;" 
d="M196 81q-74 -99 -144 -94q-34 2 -49.5 25t-14.5 53.5t13 66.5q39 116 138 255q12 17 26 1q34 -51 -19 -135q-45 -72 -78 -147q-16 -37 -14 -61t19 -26q50 -4 148 154q31 50 69.5 121t54.5 93q14 20 25 6q13 -15 14 -44t-15 -68q-9 -19 -45.5 -81t-49.5 -90t-16 -50.5
t4.5 -35t25.5 -11.5q57 3 132 138q4 7 9.5 7.5t8.5 -6.5q11 -22 -9 -63q-23 -44 -65 -75.5t-85 -31.5q-47 0 -68 27t-15 72zM218 429q-40 0 -46 38q-1 7 0 9.5t7 1.5q25 -2 85 2.5t82 4.5q40 0 46 -38q1 -6 -0.5 -8.5t-7.5 -1.5q-23 3 -88.5 -2.5t-77.5 -5.5z" />
    <glyph glyph-name="Ubreve" unicode="&#x16c;" horiz-adv-x="452" 
d="M76 -12q-102 42 -68 180q35 140 232 439q12 18 24 -1q29 -46 -19 -139q-13 -26 -57.5 -102t-75.5 -138.5t-42 -109.5q-20 -85 20 -100q44 -17 100 38t111 161q125 244 219 392q11 19 24 -1q24 -42 -13 -124q-31 -67 -105.5 -201.5t-120.5 -198.5q-51 -71 -113 -94
t-116 -1zM361 743q10 8 16 -3q22 -38 66 -38q36 0 65 35q9 11 14 0q3 -9 -0.5 -24t-15.5 -27q-29 -31 -78 -31q-42 0 -65 24q-14 15 -14.5 34t12.5 30z" />
    <glyph glyph-name="ubreve" unicode="&#x16d;" 
d="M196 81q-74 -99 -144 -94q-34 2 -49.5 25t-14.5 53.5t13 66.5q39 116 138 255q12 17 26 1q34 -51 -19 -135q-45 -72 -78 -147q-16 -37 -14 -61t19 -26q50 -4 148 154q31 50 69.5 121t54.5 93q14 20 25 6q13 -15 14 -44t-15 -68q-9 -19 -45.5 -81t-49.5 -90t-16 -50.5
t4.5 -35t25.5 -11.5q57 3 132 138q4 7 9.5 7.5t8.5 -6.5q11 -22 -9 -63q-23 -44 -65 -75.5t-85 -31.5q-47 0 -68 27t-15 72zM227 523q10 8 16 -3q22 -38 66 -38q36 0 65 35q9 11 14 0q3 -9 -0.5 -24t-15.5 -27q-29 -31 -78 -31q-42 0 -65 24q-14 15 -14.5 34t12.5 30z" />
    <glyph glyph-name="Uring" unicode="&#x16e;" horiz-adv-x="452" 
d="M76 -12q-102 42 -68 180q35 140 232 439q12 18 24 -1q29 -46 -19 -139q-13 -26 -57.5 -102t-75.5 -138.5t-42 -109.5q-20 -85 20 -100q44 -17 100 38t111 161q125 244 219 392q11 19 24 -1q24 -42 -13 -124q-31 -67 -105.5 -201.5t-120.5 -198.5q-51 -71 -113 -94
t-116 -1zM456 744q39 -33 11 -83q-11 -19 -29 -26.5t-38 4.5q-44 32 -19 84q11 23 31.5 30t43.5 -9zM445 729q-7 4 -17 -3.5t-17 -21.5q-17 -35 -2 -46q4 -3 13.5 2.5t16.5 18.5q8 14 10 30t-4 20z" />
    <glyph glyph-name="uring" unicode="&#x16f;" 
d="M196 81q-74 -99 -144 -94q-34 2 -49.5 25t-14.5 53.5t13 66.5q39 116 138 255q12 17 26 1q34 -51 -19 -135q-45 -72 -78 -147q-16 -37 -14 -61t19 -26q50 -4 148 154q31 50 69.5 121t54.5 93q14 20 25 6q13 -15 14 -44t-15 -68q-9 -19 -45.5 -81t-49.5 -90t-16 -50.5
t4.5 -35t25.5 -11.5q57 3 132 138q4 7 9.5 7.5t8.5 -6.5q11 -22 -9 -63q-23 -44 -65 -75.5t-85 -31.5q-47 0 -68 27t-15 72zM322 535q39 -32 10 -85q-10 -19 -29 -25.5t-38 5.5q-21 15 -25 39.5t7 44.5q12 22 32 29.5t43 -8.5zM311 519q-7 4 -17.5 -3.5t-16.5 -20.5
q-16 -36 -2 -46q4 -3 13.5 2.5t16.5 18.5q8 15 10 29.5t-4 19.5z" />
    <glyph glyph-name="Uhungarumlaut" unicode="&#x170;" horiz-adv-x="452" 
d="M76 -12q-102 42 -68 180q35 140 232 439q12 18 24 -1q29 -46 -19 -139q-13 -26 -57.5 -102t-75.5 -138.5t-42 -109.5q-20 -85 20 -100q44 -17 100 38t111 161q125 244 219 392q11 19 24 -1q24 -42 -13 -124q-31 -67 -105.5 -201.5t-120.5 -198.5q-51 -71 -113 -94
t-116 -1zM467 757q16 -2 5 -15q-10 -10 -29.5 -31t-35 -36.5t-24.5 -22.5q-29 -22 -50 -18q-13 2 -6 15q7 9 22 28.5t27 34.5t21 23q15 15 35.5 20t34.5 2zM597 757q16 -2 5 -15q-10 -10 -29.5 -31t-35 -36.5t-24.5 -22.5q-29 -22 -50 -18q-13 2 -6 15q7 9 22 28.5t27 34.5
t21 23q15 15 35.5 20t34.5 2z" />
    <glyph glyph-name="uhungarumlaut" unicode="&#x171;" 
d="M196 81q-74 -99 -144 -94q-34 2 -49.5 25t-14.5 53.5t13 66.5q39 116 138 255q12 17 26 1q34 -51 -19 -135q-45 -72 -78 -147q-16 -37 -14 -61t19 -26q50 -4 148 154q31 50 69.5 121t54.5 93q14 20 25 6q13 -15 14 -44t-15 -68q-9 -19 -45.5 -81t-49.5 -90t-16 -50.5
t4.5 -35t25.5 -11.5q57 3 132 138q4 7 9.5 7.5t8.5 -6.5q11 -22 -9 -63q-23 -44 -65 -75.5t-85 -31.5q-47 0 -68 27t-15 72zM323 540q16 -2 5 -15q-10 -10 -29.5 -31t-35 -36.5t-24.5 -22.5q-29 -22 -50 -18q-13 2 -6 15q7 9 22 28.5t27 34.5t21 23q15 15 35.5 20t34.5 2z
M453 540q16 -2 5 -15q-10 -10 -29.5 -31t-35 -36.5t-24.5 -22.5q-29 -22 -50 -18q-13 2 -6 15q7 9 22 28.5t27 34.5t21 23q15 15 35.5 20t34.5 2z" />
    <glyph glyph-name="Uogonek" unicode="&#x172;" horiz-adv-x="452" 
d="M-45 -127q1 48 44.5 87.5t99.5 53.5q22 -5 39.5 -2.5t29.5 8.5l11 5q-117 -96 -142 -124q-24 -28 -24 -48q0 -12 9.5 -20.5t26.5 -8.5q54 0 157 88q4 4 8 4q8 0 8 -12q0 -38 -55.5 -74t-110.5 -36q-47 0 -74.5 24.5t-26.5 54.5zM76 -12q-102 42 -68 180q35 140 232 439
q12 18 24 -1q29 -46 -19 -139q-13 -26 -57.5 -102t-75.5 -138.5t-42 -109.5q-20 -85 20 -100q44 -17 100 38t111 161q125 244 219 392q11 19 24 -1q24 -42 -13 -124q-31 -67 -105.5 -201.5t-120.5 -198.5q-51 -71 -113 -94t-116 -1z" />
    <glyph glyph-name="uogonek" unicode="&#x173;" 
d="M196 81q-74 -99 -144 -94q-34 2 -49.5 25t-14.5 53.5t13 66.5q39 116 138 255q12 17 26 1q34 -51 -19 -135q-45 -72 -78 -147q-16 -37 -14 -61t19 -26q50 -4 148 154q31 50 69.5 121t54.5 93q14 20 25 6q13 -15 14 -44t-15 -68q-9 -19 -45.5 -81t-49.5 -90t-16 -50
t4.5 -34.5t25.5 -12.5t49.5 25.5t46.5 55.5q4 7 9.5 7.5t8.5 -6.5q4 -4 3 -24.5t-12 -38.5q-13 -23 -43 -48.5t-57 -43.5t-48 -41.5t-21 -45.5q0 -12 9.5 -20.5t26.5 -8.5q54 0 157 88q4 4 8 4q8 0 8 -12q0 -38 -55.5 -74t-110.5 -36q-46 0 -73.5 24.5t-27.5 54.5
q0 65 78 114q-59 18 -48 94z" />
    <glyph glyph-name="Wcircumflex" unicode="&#x174;" horiz-adv-x="630" 
d="M395 406q-167 -218 -291 -416q-13 -20 -30 -5q-26 23 -32.5 54.5t5.5 83.5q27 113 78 259t88 217q13 24 25 4q26 -45 -10 -142q-88 -241 -125 -362q67 109 167.5 248.5t182.5 238.5q14 16 25 -1q16 -23 17 -47t-17 -83q-76 -222 -112 -361q73 120 193.5 281.5
t189.5 234.5q9 9 15.5 8t8.5 -12q10 -56 -58 -145q-11 -15 -65 -84.5t-90 -117.5t-90.5 -123.5t-96.5 -140.5q-13 -20 -30 -5q-27 24 -34 54t3 84q23 108 83 278zM531 694q-38 -27 -59 -37q-30 -14 -51 -8q-14 5 0 15q92 68 116 82q3 2 11 4q14 0 21 -15q20 -38 40 -70
q7 -12 -6 -15q-28 -7 -52 19q-10 10 -20 25z" />
    <glyph glyph-name="wcircumflex" unicode="&#x175;" horiz-adv-x="490" 
d="M403 174q8 70 31 123.5t43 75t33 24.5q10 1 14 -8.5t1 -25.5q-13 -65 -87 -190q-114 -192 -206 -189q-31 1 -48.5 25t-15.5 58q-64 -82 -122 -78q-45 3 -56.5 45.5t9.5 97.5q44 126 139 255q13 18 24 1q36 -49 -18 -135q-55 -87 -82 -152q-15 -37 -14 -60.5t18 -22.5
q24 1 49.5 32t66.5 98q5 8 8.5 13.5t6.5 11.5q31 49 70 120.5t56 93.5q13 18 25 6q12 -16 13 -44t-15 -68q-10 -20 -47 -83t-50 -91q-20 -43 -18.5 -67t23.5 -25q26 -1 67 43.5t82 115.5zM363 471q-44 -26 -60 -35q-27 -14 -51 -9q-16 4 -1 15q11 7 54.5 39t61.5 43q2 2 7 2
l6 1q11 2 20 -13q24 -44 41 -70q7 -11 -6 -15q-29 -6 -53 18q-11 11 -19 24z" />
    <glyph glyph-name="Ycircumflex" unicode="&#x176;" horiz-adv-x="379" 
d="M174 197q-60 -107 -95 -207q-6 -15 -19 -3q-31 27 -10 100q16 54 62 145q4 245 29 370q4 22 21 11q40 -25 35 -116q-1 -26 -7 -91t-8 -105q152 168 313 311q16 13 21 -5q15 -56 -61 -131q-12 -12 -70 -67t-107 -103.5t-104 -108.5zM365 694q-38 -27 -59 -37
q-30 -14 -51 -8q-14 5 0 15q92 68 116 82q3 2 11 4q14 0 21 -15q20 -38 40 -70q7 -12 -6 -15q-28 -7 -52 19q-10 10 -20 25z" />
    <glyph glyph-name="ycircumflex" unicode="&#x177;" horiz-adv-x="375" 
d="M386 97q-47 -75 -192 -134q-26 -63 -45.5 -105.5t-48 -94t-57.5 -84t-59 -43.5q-34 -13 -57 21q-9 14 -14.5 24.5t-10.5 26t-3.5 34t8.5 39.5q40 121 214 189q2 6 13.5 32t17.5 40q-57 -59 -109 -55q-50 4 -61 50t10 95q42 123 136 253q13 18 25 0q35 -47 -19 -133
q-52 -83 -77 -146q-15 -37 -13.5 -61t18.5 -25q51 -4 140 148q14 24 57.5 105t63.5 110q13 18 25 7q12 -16 13 -43.5t-17 -68.5q-86 -165 -133 -275q107 58 177 154q4 6 9.5 5.5t6.5 -7.5q5 -23 -18 -58zM104 -72q-60 -34 -101 -88t-53.5 -94.5t-2.5 -54.5q7 -10 32 18.5
t60.5 89t64.5 129.5zM285 471q-44 -26 -60 -35q-27 -14 -51 -9q-16 4 -1 15q11 7 54.5 39t61.5 43q2 2 7 2l6 1q11 2 20 -13q24 -44 41 -70q7 -11 -6 -15q-29 -6 -53 18q-11 11 -19 24z" />
    <glyph glyph-name="Ydieresis" unicode="&#x178;" horiz-adv-x="379" 
d="M174 197q-60 -107 -95 -207q-6 -15 -19 -3q-31 27 -10 100q16 54 62 145q4 245 29 370q4 22 21 11q40 -25 35 -116q-1 -26 -7 -91t-8 -105q152 168 313 311q16 13 21 -5q15 -56 -61 -131q-12 -12 -70 -67t-107 -103.5t-104 -108.5zM387 708q7 16 20 24t25 4t15.5 -18
t-3.5 -30q-6 -15 -20 -23t-25 -4q-12 4 -15.5 17.5t3.5 29.5zM272 706q8 16 21 25t24 4q12 -5 15.5 -19t-3.5 -29t-20 -24t-25 -5t-15.5 18.5t3.5 29.5z" />
    <glyph glyph-name="Zacute" unicode="&#x179;" horiz-adv-x="441" 
d="M54 50q110 29 177 34q68 6 88 -43q7 -15 -10 -15q-85 0 -236 -41q-19 -6 -30.5 -5t-19.5 14q-21 33 -24 41q-7 14 -6.5 25.5t11.5 28.5q62 92 214 238.5t263 222.5q-19 -3 -76.5 -14.5t-80.5 -14.5q-86 -9 -106 51q-5 15 11 15q43 -1 130.5 12.5t101.5 14.5q32 3 47 -17
q19 -24 33 -65q5 -15 0.5 -24t-23.5 -22q-108 -77 -239.5 -201.5t-224.5 -234.5zM523 731q14 -9 0 -16q-13 -6 -38.5 -19t-45.5 -22t-31 -13q-35 -11 -53 0q-14 6 0 15q77 50 95 58q40 17 73 -3z" />
    <glyph glyph-name="zacute" unicode="&#x17a;" horiz-adv-x="353" 
d="M205 3q7 34 -6 51q-9 15 -49 8.5t-76 -31.5q-13 -9 -17 1q-20 58 43 94q71 41 120 86.5t65 80t2 51.5q-21 26 -102 -18t-138 -115q-5 -6 -9 -4.5t-6 7.5q-6 21 4.5 51.5t36.5 56.5q65 63 145 73q36 5 58.5 -2.5t40.5 -33.5q40 -57 -4 -133q-38 -65 -148 -134q40 2 63 -20
q19 -18 26 -49q72 38 120 129q3 6 9 6.5t9 -6.5q9 -19 -14 -62q-30 -55 -122 -95q0 -75 -57.5 -169.5t-109.5 -123.5q-38 -21 -66 14q-10 13 -16 22t-12 24.5t-5 33t10 37.5q45 104 205 170zM196 -30q-61 -34 -102 -84t-53 -86.5t-1 -49.5q9 -10 40 24t65.5 91t50.5 105z
M359 504q14 -9 0 -16q-11 -5 -37.5 -18.5t-46 -22.5t-31.5 -13q-32 -10 -52 -1q-13 6 1 16q61 43 95 58q38 17 71 -3z" />
    <glyph glyph-name="Zdotaccent" unicode="&#x17b;" horiz-adv-x="441" 
d="M54 50q110 29 177 34q68 6 88 -43q7 -15 -10 -15q-85 0 -236 -41q-19 -6 -30.5 -5t-19.5 14q-21 33 -24 41q-7 14 -6.5 25.5t11.5 28.5q62 92 214 238.5t263 222.5q-19 -3 -76.5 -14.5t-80.5 -14.5q-86 -9 -106 51q-5 15 11 15q43 -1 130.5 12.5t101.5 14.5q32 3 47 -17
q19 -24 33 -65q5 -15 0.5 -24t-23.5 -22q-108 -77 -239.5 -201.5t-224.5 -234.5zM453 723q19 -39 -7 -67q-9 -11 -27 -7.5t-29 22.5q-11 21 -9.5 41t14.5 33q12 13 30 5.5t28 -27.5z" />
    <glyph glyph-name="zdotaccent" unicode="&#x17c;" horiz-adv-x="353" 
d="M205 3q7 34 -6 51q-9 15 -49 8.5t-76 -31.5q-13 -9 -17 1q-20 58 43 94q71 41 120 86.5t65 80t2 51.5q-21 26 -102 -18t-138 -115q-5 -6 -9 -4.5t-6 7.5q-6 21 4.5 51.5t36.5 56.5q65 63 145 73q36 5 58.5 -2.5t40.5 -33.5q40 -57 -4 -133q-38 -65 -148 -134q40 2 63 -20
q19 -18 26 -49q72 38 120 129q3 6 9 6.5t9 -6.5q9 -19 -14 -62q-30 -55 -122 -95q0 -75 -57.5 -169.5t-109.5 -123.5q-38 -21 -66 14q-10 13 -16 22t-12 24.5t-5 33t10 37.5q45 104 205 170zM196 -30q-61 -34 -102 -84t-53 -86.5t-1 -49.5q9 -10 40 24t65.5 91t50.5 105z
M309 503q19 -39 -7 -67q-9 -11 -27 -7.5t-29 22.5q-11 21 -9.5 41t14.5 33q12 13 30 5.5t28 -27.5z" />
    <glyph glyph-name="Zcaron" unicode="&#x17d;" horiz-adv-x="441" 
d="M54 50q110 29 177 34q68 6 88 -43q7 -15 -10 -15q-85 0 -236 -41q-19 -6 -30.5 -5t-19.5 14q-21 33 -24 41q-7 14 -6.5 25.5t11.5 28.5q62 92 214 238.5t263 222.5q-19 -3 -76.5 -14.5t-80.5 -14.5q-86 -9 -106 51q-5 15 11 15q43 -1 130.5 12.5t101.5 14.5q32 3 47 -17
q19 -24 33 -65q5 -15 0.5 -24t-23.5 -22q-108 -77 -239.5 -201.5t-224.5 -234.5zM412 702q38 27 59 37q30 14 51 8q14 -5 0 -15q-92 -68 -116 -82q-2 -2 -11 -4q-13 0 -21 15q-20 38 -40 70q-8 12 6 15q28 7 52 -19q10 -10 20 -25z" />
    <glyph glyph-name="zcaron" unicode="&#x17e;" horiz-adv-x="353" 
d="M205 3q7 34 -6 51q-9 15 -49 8.5t-76 -31.5q-13 -9 -17 1q-20 58 43 94q71 41 120 86.5t65 80t2 51.5q-21 26 -102 -18t-138 -115q-5 -6 -9 -4.5t-6 7.5q-6 21 4.5 51.5t36.5 56.5q65 63 145 73q36 5 58.5 -2.5t40.5 -33.5q40 -57 -4 -133q-38 -65 -148 -134q40 2 63 -20
q19 -18 26 -49q72 38 120 129q3 6 9 6.5t9 -6.5q9 -19 -14 -62q-30 -55 -122 -95q0 -75 -57.5 -169.5t-109.5 -123.5q-38 -21 -66 14q-10 13 -16 22t-12 24.5t-5 33t10 37.5q45 104 205 170zM196 -30q-61 -34 -102 -84t-53 -86.5t-1 -49.5q9 -10 40 24t65.5 91t50.5 105z
M258 482q38 27 59 37q30 14 51 8q14 -5 0 -15q-92 -68 -116 -82q-2 -2 -11 -4q-13 0 -21 15q-20 38 -40 70q-8 12 6 15q28 7 52 -19q10 -10 20 -25z" />
    <glyph glyph-name="uni0189" unicode="&#x189;" horiz-adv-x="483" 
d="M210 501q-49 3 -65 42q-6 17 10 19q36 5 94.5 29.5t89.5 29.5q93 14 151 -88q25 -50 24.5 -109t-32 -125t-79.5 -124.5t-118.5 -107.5t-148.5 -75q-39 -13 -64 7q-29 24 -42 43q-15 21 -16.5 38.5t13.5 67.5q23 69 76.5 171t106.5 182zM263 511q9 -44 -26 -105
q-2 -3 -39.5 -69t-51 -91.5t-36.5 -73.5t-33 -80t-4 -42.5t28 -2.5q66 25 124 65.5t98.5 85.5t72 95t44 94t15.5 82.5t-14 61.5q-12 20 -34 23t-40.5 -3t-53 -20.5t-50.5 -19.5zM85 279q-63 3 -73 53q-2 7 0 11t10 3q30 -2 93.5 3t80.5 5q64 0 75 -52q2 -7 -0.5 -11
t-10.5 -3q-41 3 -99.5 -3.5t-75.5 -5.5z" />
    <glyph glyph-name="uni018F" unicode="&#x18f;" horiz-adv-x="537" 
d="M514 364q-9 -34 -12 -34q-78 -9 -160 -52t-137 -104t-55 -117q0 -3 2.5 -10t10.5 -14.5t20 -7.5q52 0 118.5 54t114.5 143q81 149 81 257q0 39 -15.5 69t-41.5 30q-9 0 -18.5 -9t-31 -34t-45.5 -48q-31 -28 -62 -28q-19 0 -19 10q0 1 2 7q27 56 68 106t73 50q21 0 69 -35
q85 -38 85 -159q0 -99 -50 -206t-131.5 -179.5t-161.5 -72.5q-35 0 -61 9t-39 20.5t-20.5 28t-9 27t-1.5 21.5q0 70 58.5 131.5t156.5 100.5t212 46zM531 339l18 42q112 58 189 172q3 4 6 5.5t6 0t4 -6.5q7 -22 -15 -59q-49 -87 -208 -154z" />
    <glyph glyph-name="florin" unicode="&#x192;" horiz-adv-x="383" 
d="M373 290q-30 4 -99 -6q-12 -26 -35.5 -77.5t-34.5 -75.5q-30 -62 -67.5 -85t-87.5 -21q-66 4 -98 43q-12 16 4 23q37 19 73 1q6 -3 27 -17.5t33 -14.5q21 0 36 32q16 34 42 97t37 89q-49 0 -63 39q-5 12 7 12q39 0 82 5q56 116 107 159q25 22 51 22q23 0 43 -20
q27 -27 27 -55q0 -18 -16 -56t-18 -45q-4 -14 -16 -7q-40 22 -20 78q3 9 9 22.5t9.5 22t3.5 13.5q0 6 -6 6q-10 0 -24 -15q-35 -38 -76 -118q6 1 18 1q44 0 59 -43q2 -4 0 -7t-7 -2z" />
    <glyph glyph-name="uni019E" unicode="&#x19e;" horiz-adv-x="384" 
d="M106 -218q-5 -8 -9 -8q-7 0 -16.5 19t-9.5 38q0 25 17 59q21 41 62.5 121t60 115.5t42 85t33 76t9.5 40.5q0 15 -11 15q-16 0 -53 -23.5t-80 -70.5q-28 -30 -56 -76.5t-44.5 -80.5t-45.5 -97q-5 -9 -10 -9q-11 0 -19.5 19t-8.5 38q0 37 51 141.5t118 204.5q5 8 10 8
q10 0 16 -17.5t6 -35.5q0 -23 -8 -50q38 40 83 69t80 29q22 0 36.5 -18.5t14.5 -45.5q0 -53 -268 -546z" />
    <glyph glyph-name="uni019F" unicode="&#x19f;" horiz-adv-x="419" 
d="M178 259q-35 1 -54.5 17.5t-19.5 41.5q0 8 9 8q3 0 10 -0.5t11 -0.5q25 0 70 4.5t65 4.5q36 0 56 -16.5t20 -41.5q0 -8 -10 -8q-6 0 -17 0.5t-16 0.5q-27 0 -63.5 -5t-52.5 -5h-8zM406 597q53 -24 53 -112q0 -105 -53.5 -223.5t-132 -198t-146.5 -79.5q-37 0 -62 15
t-36 40.5t-15 47.5t-4 46q0 93 55 210t137.5 200.5t153.5 83.5q22 0 50 -30zM304 236q106 194 106 288q0 52 -41 52q-75 0 -203 -199q-50 -77 -80.5 -154.5t-30.5 -128.5q0 -70 57 -70q42 0 88 53t104 159z" />
    <glyph glyph-name="Ohorn" unicode="&#x1a0;" horiz-adv-x="632" 
d="M476 597q43 -19 63 -59q41 5 54.5 48t-7.5 84q-8 16 12 16q28 0 45.5 -17.5t17.5 -44.5q0 -43 -30.5 -74t-79.5 -40q18 -67 2 -147.5t-56 -154.5q-67 -123 -157 -187t-186 -29q-114 42 -114 187q0 76 30.5 152t77 132.5t97.5 97t95 56.5q88 30 136 -20zM424 236
q43 79 60.5 155.5t8.5 124t-37 57.5q-41 15 -122.5 -39.5t-147.5 -156.5q-46 -72 -65 -148.5t-9 -130.5t44 -68q51 -22 129 36t139 170z" />
    <glyph glyph-name="ohorn" unicode="&#x1a1;" horiz-adv-x="382" 
d="M322 262q0 -77 -50 -163t-115 -108q-73 -24 -126 44q-31 47 -25.5 104.5t41.5 120.5q30 54 73 90.5t86 39.5q41 3 68 -34q4 -6 19.5 -23t21.5 -30q35 10 45 51t-9 79q-8 16 12 16q28 0 45.5 -17.5t17.5 -44.5q0 -41 -29 -71.5t-76 -41.5q1 -4 1 -12zM214 136
q36 67 47.5 129t-5.5 70q-22 18 -67.5 -15.5t-81.5 -98.5q-31 -57 -41 -115.5t10 -74.5q22 -18 62 10.5t76 94.5z" />
    <glyph glyph-name="Uhorn" unicode="&#x1af;" horiz-adv-x="552" 
d="M76 -12q-102 42 -68 180q35 140 232 439q12 18 24 -1q29 -46 -19 -139q-13 -26 -57.5 -102t-75.5 -138.5t-42 -109.5q-20 -85 20 -100q44 -17 100 38t111 161q125 244 219 392q11 19 24 -1q17 -32 0 -88q39 7 51.5 49.5t-8.5 82.5q-8 16 12 16q28 0 45.5 -17.5
t17.5 -44.5q0 -47 -36.5 -79.5t-92.5 -37.5l-2 -5q-31 -67 -105.5 -201.5t-120.5 -198.5q-51 -71 -113 -94t-116 -1z" />
    <glyph glyph-name="uhorn" unicode="&#x1b0;" 
d="M199 81q-74 -99 -144 -94q-34 2 -49.5 25t-14.5 53.5t13 66.5q39 116 138 255q14 19 26 1q36 -47 -19 -135q-45 -72 -78 -147q-16 -37 -14 -61t19 -26q50 -4 148 154q31 50 69.5 121t54.5 93q14 20 25 6q26 -32 7 -91q38 8 50 49.5t-8 81.5q-8 16 12 16q28 0 45.5 -17.5
t17.5 -44.5q0 -47 -37 -79.5t-94 -37.5q-6 -12 -41.5 -72.5t-47.5 -87.5q-20 -45 -12 -72t36 -25q67 3 142 138q4 7 9.5 7.5t8.5 -6.5q11 -22 -9 -63q-26 -49 -70.5 -78t-89.5 -29q-48 0 -73.5 27.5t-19.5 71.5z" />
    <glyph glyph-name="DZcaron" unicode="&#x1c4;" horiz-adv-x="924" 
d="M210 501q-49 3 -65 42q-6 17 10 19q36 5 94.5 29.5t89.5 29.5q93 14 151 -88q25 -50 24.5 -109t-32 -125t-79.5 -124.5t-118.5 -107.5t-148.5 -75q-39 -13 -64 7q-29 24 -42 43q-15 21 -16.5 38.5t13.5 67.5q23 69 76.5 171t106.5 182zM263 511q9 -44 -26 -105
q-2 -3 -39.5 -69t-51 -91.5t-36.5 -73.5t-33 -80t-4 -42.5t28 -2.5q66 25 124 65.5t98.5 85.5t72 95t44 94t15.5 82.5t-14 61.5q-12 20 -34 23t-40.5 -3t-53 -20.5t-50.5 -19.5zM537 60q110 29 177 34q68 6 88 -43q7 -15 -10 -15q-85 0 -236 -41q-19 -6 -30.5 -5t-19.5 14
q-21 33 -24 41q-7 14 -6.5 25.5t11.5 28.5q62 92 214 238.5t263 222.5q-19 -3 -76.5 -14.5t-80.5 -14.5q-86 -9 -106 51q-5 15 11 15q43 -1 130.5 12.5t101.5 14.5q32 3 47 -17q19 -24 33 -65q5 -15 0.5 -24t-23.5 -22q-108 -77 -239.5 -201.5t-224.5 -234.5zM880 702
q38 27 59 37q30 14 51 8q14 -5 0 -15q-92 -68 -116 -82q-2 -2 -11 -4q-13 0 -21 15q-20 38 -40 70q-8 12 6 15q28 7 52 -19q10 -10 20 -25z" />
    <glyph glyph-name="Dzcaron" unicode="&#x1c5;" horiz-adv-x="833" 
d="M210 501q-49 3 -65 42q-6 17 10 19q36 5 94.5 29.5t89.5 29.5q93 14 151 -88q25 -50 24.5 -109t-32 -125t-79.5 -124.5t-118.5 -107.5t-148.5 -75q-39 -13 -64 7q-29 24 -42 43q-15 21 -16.5 38.5t13.5 67.5q23 69 76.5 171t106.5 182zM263 511q9 -44 -26 -105
q-2 -3 -39.5 -69t-51 -91.5t-36.5 -73.5t-33 -80t-4 -42.5t28 -2.5q66 25 124 65.5t98.5 85.5t72 95t44 94t15.5 82.5t-14 61.5q-12 20 -34 23t-40.5 -3t-53 -20.5t-50.5 -19.5zM685 3q7 34 -6 51q-9 15 -49 8.5t-76 -31.5q-13 -9 -17 1q-20 58 43 94q71 41 120 86.5t65 80
t2 51.5q-21 26 -102 -18t-138 -115q-5 -6 -9 -4.5t-6 7.5q-6 21 4.5 51.5t36.5 56.5q65 63 145 73q36 5 58.5 -2.5t40.5 -33.5q40 -57 -4 -133q-38 -65 -148 -134q40 2 63 -20q19 -18 26 -49q72 38 120 129q3 6 9 6.5t9 -6.5q9 -19 -14 -62q-30 -55 -122 -95
q0 -75 -57.5 -169.5t-109.5 -123.5q-38 -21 -66 14q-10 13 -16 22t-12 24.5t-5 33t10 37.5q45 104 205 170zM676 -30q-61 -34 -102 -84t-53 -86.5t-1 -49.5q9 -10 40 24t65.5 91t50.5 105zM730 482q38 27 59 37q30 14 51 8q14 -5 0 -15q-92 -68 -116 -82q-2 -2 -11 -4
q-13 0 -21 15q-20 38 -40 70q-8 12 6 15q28 7 52 -19q10 -10 20 -25z" />
    <glyph glyph-name="dzcaron" unicode="&#x1c6;" horiz-adv-x="754" 
d="M277 108q-14 -29 -18.5 -51t1.5 -34.5t23 -11.5q29 1 65.5 41.5t64.5 96.5q9 16 16 1q10 -24 -8 -62q-21 -43 -62.5 -75t-81.5 -30q-81 5 -81 80q-62 -77 -124 -77q-46 0 -67 36.5t-11.5 94.5t49.5 116q55 81 111 121t98 40q29 0 45 -19.5t15 -48.5q112 213 166 290
q16 22 24 0q23 -54 -31 -151q-9 -16 -42.5 -75t-55.5 -98.5t-50.5 -93t-45.5 -90.5zM268 343q-24 1 -71.5 -42.5t-87.5 -107.5q-26 -42 -39 -82.5t-9.5 -66t22.5 -25.5q30 -1 67.5 39.5t73.5 109.5q84 160 49 174zM604 3q7 34 -6 51q-9 15 -49 8.5t-76 -31.5q-13 -9 -17 1
q-20 58 43 94q71 41 120 86.5t65 80t2 51.5q-21 26 -102 -18t-138 -115q-5 -6 -9 -4.5t-6 7.5q-6 21 4.5 51.5t36.5 56.5q65 63 145 73q36 5 58.5 -2.5t40.5 -33.5q40 -57 -4 -133q-38 -65 -148 -134q40 2 63 -20q19 -18 26 -49q72 38 120 129q3 6 9 6.5t9 -6.5
q9 -19 -14 -62q-30 -55 -122 -95q0 -75 -57.5 -169.5t-109.5 -123.5q-38 -21 -66 14q-10 13 -16 22t-12 24.5t-5 33t10 37.5q45 104 205 170zM595 -30q-61 -34 -102 -84t-53 -86.5t-1 -49.5q9 -10 40 24t65.5 91t50.5 105zM680 482q38 27 59 37q30 14 51 8q14 -5 0 -15
q-92 -68 -116 -82q-2 -2 -11 -4q-13 0 -21 15q-20 38 -40 70q-8 12 6 15q28 7 52 -19q10 -10 20 -25z" />
    <glyph glyph-name="uni01C7" unicode="&#x1c7;" horiz-adv-x="770" 
d="M55 56q87 23 152 28q69 6 88 -45q6 -15 -10 -15q-62 1 -218 -39q-18 -5 -27.5 -3t-17.5 13q-20 29 -26 43q-10 24 3 58q35 90 130.5 268t143.5 244q14 19 24 -2q25 -51 -25 -141q-3 -5 -56 -100t-90.5 -166t-70.5 -143zM399 229q11 2 15 -3t0 -17q-23 -66 -22.5 -111
t13 -62t30.5 -21q22 -5 43 2t42.5 29t37.5 42.5t38 61t34 64.5t35 71q129 265 172 331q12 19 24 -1q27 -45 -7 -125q-28 -65 -87.5 -184.5t-97.5 -183.5q-98 -163 -241 -138q-57 10 -84.5 57t-10.5 111q8 31 26.5 51.5t39.5 25.5z" />
    <glyph glyph-name="uni01C8" unicode="&#x1c8;" horiz-adv-x="541" 
d="M55 56q87 23 152 28q69 6 88 -45q6 -15 -10 -15q-62 1 -218 -39q-18 -5 -27.5 -3t-17.5 13q-20 29 -26 43q-10 24 3 58q35 90 130.5 268t143.5 244q14 19 24 -2q25 -51 -25 -141q-3 -5 -56 -100t-90.5 -166t-70.5 -143zM593 461q17 -38 -6 -65q-9 -12 -27 -8t-29 23
q-23 41 5 72q12 13 30 6t27 -28zM372 -19q112 58 189 172q3 4 6 5.5t6 0t4 -6.5q7 -22 -15 -59q-49 -87 -208 -154q-26 -62 -46.5 -105t-49 -94t-57.5 -83t-57 -43q-35 -14 -57 19q-10 15 -15 24.5t-11 26t-5 34.5t8 39q42 123 217 190q124 297 211 430q12 19 24 6
q12 -14 12.5 -42.5t-15.5 -67.5q-10 -22 -63 -129.5t-78 -162.5zM264 -95q-60 -34 -101 -88t-53.5 -95t-2.5 -54q7 -9 32 19.5t60 88t65 129.5z" />
    <glyph glyph-name="uni01C9" unicode="&#x1c9;" horiz-adv-x="407" 
d="M98 200q-21 -50 -30 -90.5t-3.5 -66.5t27.5 -28q35 -3 81 41t76 104q3 6 7.5 8.5t8.5 0.5t6 -9q7 -24 -10 -62q-15 -32 -64.5 -72t-102.5 -39q-54 2 -77 41t-6 117q26 123 98 249t155 212q23 24 43 5q42 -37 23 -110q-22 -86 -90 -169.5t-142 -131.5zM116 243
q62 50 108.5 117.5t63 112t8.5 49.5q-10 6 -57 -64t-99 -167q-14 -24 -24 -48zM459 461q17 -38 -6 -65q-9 -12 -27 -8t-29 23q-23 41 5 72q12 13 30 6t27 -28zM238 -19q112 58 189 172q3 4 6 5.5t6 0t4 -6.5q7 -22 -15 -59q-49 -87 -208 -154q-26 -62 -46.5 -105t-49 -94
t-57.5 -83t-57 -43q-35 -14 -57 19q-10 15 -15 24.5t-11 26t-5 34.5t8 39q42 123 217 190q124 297 211 430q12 19 24 6q12 -14 12.5 -42.5t-15.5 -67.5q-10 -22 -63 -129.5t-78 -162.5zM130 -95q-60 -34 -101 -88t-53.5 -95t-2.5 -54q7 -9 32 19.5t60 88t65 129.5z" />
    <glyph glyph-name="uni01CA" unicode="&#x1ca;" horiz-adv-x="866" 
d="M239 429q-169 -290 -217 -435q-5 -17 -17 -4q-33 37 -5 112q64 177 259 505q11 19 26 9q28 -20 35 -46t-1 -78q-21 -127 -33 -360q49 111 124 249.5t134 229.5q12 18 23 -2q25 -51 -31 -145q-47 -78 -125 -227t-120 -244q-6 -14 -20 -6q-23 12 -34 34.5t-15 69.5
q-10 124 17 338zM495 229q11 2 15 -3t0 -17q-23 -66 -22.5 -111t13 -62t30.5 -21q22 -5 43 2t42.5 29t37.5 42.5t38 61t34 64.5t35 71q129 265 172 331q12 19 24 -1q27 -45 -7 -125q-28 -65 -87.5 -184.5t-97.5 -183.5q-98 -163 -241 -138q-57 10 -84.5 57t-10.5 111
q8 31 26.5 51.5t39.5 25.5z" />
    <glyph glyph-name="uni01CB" unicode="&#x1cb;" horiz-adv-x="622" 
d="M239 429q-169 -290 -217 -435q-5 -17 -17 -4q-33 37 -5 112q64 177 259 505q11 19 26 9q28 -20 35 -46t-1 -78q-21 -127 -33 -360q49 111 124 249.5t134 229.5q12 18 23 -2q25 -51 -31 -145q-47 -78 -125 -227t-120 -244q-6 -14 -20 -6q-23 12 -34 34.5t-15 69.5
q-10 124 17 338zM674 461q17 -38 -6 -65q-9 -12 -27 -8t-29 23q-23 41 5 72q12 13 30 6t27 -28zM453 -19q112 58 189 172q3 4 6 5.5t6 0t4 -6.5q7 -22 -15 -59q-49 -87 -208 -154q-26 -62 -46.5 -105t-49 -94t-57.5 -83t-57 -43q-35 -14 -57 19q-10 15 -15 24.5t-11 26
t-5 34.5t8 39q42 123 217 190q124 297 211 430q12 19 24 6q12 -14 12.5 -42.5t-15.5 -67.5q-10 -22 -63 -129.5t-78 -162.5zM345 -95q-60 -34 -101 -88t-53.5 -95t-2.5 -54q7 -9 32 19.5t60 88t65 129.5z" />
    <glyph glyph-name="uni01CC" unicode="&#x1cc;" horiz-adv-x="562" 
d="M160 294q38 41 80.5 71t65.5 27q27 -4 41 -35.5t-2 -70.5q-9 -19 -44.5 -80.5t-48.5 -89.5q-13 -29 -15.5 -53t5.5 -37.5t26 -12.5q55 3 128 138q8 15 17 1q12 -19 -9 -63q-21 -43 -63.5 -75t-84.5 -32q-62 0 -81 42t5 107q14 41 44.5 94t48.5 84t10 34q-6 2 -24 -6.5
t-48.5 -32t-59.5 -55.5q-28 -30 -56 -76.5t-44.5 -80.5t-45.5 -97q-7 -16 -19 -4q-33 33 -10 103q15 46 63 134.5t97 160.5q11 17 21 0q21 -35 3 -95zM614 461q17 -38 -6 -65q-9 -12 -27 -8t-29 23q-23 41 5 72q12 13 30 6t27 -28zM393 -19q112 58 189 172q3 4 6 5.5t6 0
t4 -6.5q7 -22 -15 -59q-49 -87 -208 -154q-26 -62 -46.5 -105t-49 -94t-57.5 -83t-57 -43q-35 -14 -57 19q-10 15 -15 24.5t-11 26t-5 34.5t8 39q42 123 217 190q124 297 211 430q12 19 24 6q12 -14 12.5 -42.5t-15.5 -67.5q-10 -22 -63 -129.5t-78 -162.5zM285 -95
q-60 -34 -101 -88t-53.5 -95t-2.5 -54q7 -9 32 19.5t60 88t65 129.5z" />
    <glyph glyph-name="Acaron" unicode="&#x1cd;" horiz-adv-x="442" 
d="M313 157q-20 -1 -96 -9t-103 -7q-46 -79 -76 -144q-3 -7 -8.5 -7t-9.5 5q-22 30 5 102q11 28 27 57q-24 13 -33 34q-4 10 -1.5 13t13.5 2q27 -4 45 -5q66 115 157.5 237.5t165.5 183.5q22 18 36 -1q15 -21 23 -41q14 -32 0 -73q-48 -145 -73 -291q38 -13 45 -51
q3 -14 -11 -9q-18 5 -43 6q-12 -93 -15 -160q0 -16 -15 -9q-36 16 -37 91q0 36 4 76zM152 201q23 2 83 9t86 8q28 191 74 308q-124 -139 -243 -325zM480 702q38 27 59 37q30 14 51 8q14 -5 0 -15q-92 -68 -116 -82q-2 -2 -11 -4q-13 0 -21 15q-20 38 -40 70q-8 12 6 15
q28 7 52 -19q10 -10 20 -25z" />
    <glyph glyph-name="acaron" unicode="&#x1ce;" horiz-adv-x="407" 
d="M324 325q22 41 36 61t24 6q13 -15 14 -43.5t-15 -67.5q-9 -19 -46 -81.5t-50 -91.5q-13 -28 -17 -50t2 -35t23 -12q29 1 66 42t65 97q9 16 16 1q10 -22 -9 -62q-21 -44 -62.5 -76.5t-81.5 -30.5t-61 24t-21 58q-61 -78 -125 -78q-46 0 -67.5 36.5t-11.5 94.5t50 117
q57 83 112.5 123t97.5 40q31 0 47 -20.5t14 -51.5zM237 170q30 53 45 93t14 60t-16 22q-25 2 -72.5 -42t-87.5 -109q-26 -42 -39 -82.5t-10 -66.5t22 -26q29 -1 66 39.5t78 111.5zM335 482q38 27 59 37q30 14 51 8q14 -5 0 -15q-92 -68 -116 -82q-3 -2 -11 -4q-14 0 -21 15
q-20 38 -40 70q-7 12 6 15q28 7 52 -19q10 -10 20 -25z" />
    <glyph glyph-name="Icaron" unicode="&#x1cf;" horiz-adv-x="182" 
d="M269 616q14 20 24 -1q26 -54 -30 -153q-173 -304 -245 -466q-6 -14 -16 -2q-32 34 -4 111q35 98 121 258.5t150 252.5zM340 702q38 27 59 37q30 14 51 8q14 -5 0 -15q-92 -68 -116 -82q-2 -2 -11 -4q-13 0 -21 15q-20 38 -40 70q-8 12 6 15q28 7 52 -19q10 -10 20 -25z
" />
    <glyph glyph-name="icaron" unicode="&#x1d0;" horiz-adv-x="201" 
d="M69 -15q-55 0 -72.5 42.5t5.5 103.5q18 51 58 125.5t70 117.5q13 18 24 6q13 -14 14 -42t-15 -67q-8 -16 -40 -75t-44 -87q-18 -44 -16 -70t26 -25q32 1 69 42t61 95q8 15 16 0q12 -23 -7 -62q-22 -46 -64 -75t-85 -29zM182 482q38 27 59 37q30 14 51 8q14 -5 0 -15
q-92 -68 -116 -82q-2 -2 -11 -4q-13 0 -21 15q-20 38 -40 70q-8 12 6 15q28 7 52 -19q10 -10 20 -25z" />
    <glyph glyph-name="Ocaron" unicode="&#x1d1;" horiz-adv-x="537" 
d="M476 597q59 -26 76.5 -94t0.5 -145.5t-56 -149.5q-67 -123 -157 -187t-186 -29q-114 42 -114 187q0 76 30.5 152t77 132.5t97.5 97t95 56.5q88 30 136 -20zM424 236q43 79 60.5 155.5t8.5 124t-37 57.5q-41 15 -122.5 -39.5t-147.5 -156.5q-46 -72 -65 -148.5t-9 -130.5
t44 -68q51 -22 129 36t139 170zM510 702q38 27 59 37q30 14 51 8q14 -5 0 -15q-92 -68 -116 -82q-2 -2 -11 -4q-13 0 -21 15q-20 38 -40 70q-8 12 6 15q28 7 52 -19q10 -10 20 -25z" />
    </font>
</defs>
</svg>
